<mxfile host="app.diagrams.net" modified="2021-05-07T08:21:29.447Z" agent="5.0 (Windows NT 10.0; Win64; x64) AppleWebKit/537.36 (KHTML, like Gecko) Chrome/90.0.4430.93 Safari/537.36" etag="q31oZsgiY-MmwSXT00z9" version="14.6.10" type="github">
  <diagram id="2FomUyg4ECzVJnQTq8-b" name="Page-1">
    <mxGraphModel dx="1422" dy="794" grid="1" gridSize="10" guides="1" tooltips="1" connect="1" arrows="1" fold="1" page="1" pageScale="1" pageWidth="827" pageHeight="1169" math="0" shadow="0">
      <root>
        <mxCell id="0" />
        <mxCell id="1" parent="0" />
        <mxCell id="Y9sVNeH2r-ziv9Ro1sDB-98" value="" style="shape=image;verticalLabelPosition=bottom;labelBackgroundColor=#ffffff;verticalAlign=top;aspect=fixed;imageAspect=0;image=data:image/png,iVBORw0KGgoAAAANSUhEUgAAAjAAAADmCAYAAADLCb90AAAgAElEQVR4Aey9d3CkTX7f9/oPkSpbJKWyKfJEqly2aJnWH2aJVXaZlGXaIlmUXSRl3h3DyeTdUae7e8PmnHPC7iIucs45h0HOOeecJwGDMIMwOX1c/Qywi8Xuu8DuuwsM8D5T1cAzzzyh+9vf7v72r3/d/RnyR0ZARkBGQEZARkBGQEbgiCHw2RGLrxxdGQEZARkBGQEZARkBGQFkASOTQEZARkBGQEZARkBG4MghIAuYI5dlcoRlBGQEZARkBGQEZARkASNzQEZARkBGQEZARkBG4MghIAuYI5dlcoRlBGQEZARkBGQEZARkASNzQEZARkBGQEZARkBG4MghIAuYI5dlcoRlBGQEZARkBGQEZARkASNzQEZARkBGQEZARkBG4MghIAuYI5dlcoRlBGQEZARkBGQEZARkASNzQEZARkBGQEZARkBG4MghIAuYI5dlcoRlBGQEZARkBGQEZARkASNzQEZARkBGQEZARkBG4MghIAuYI5dlcoRlBGQEZARkBGQEZARkASNzQEZARkBGQEZARkBG4Mgh8NnaxgbD41NMzMwxMT17/MLMHKOT01I4tmk8jvkmp+n4lUU5T+U8lTkgc+AjcuAzjW6JWaWaDaMRw/rGsQubRhOTs/NSEMfHMY1ymo4fb+U8lfNU5oDMAZkD7+bAZwtLy2h1S9gcdsxW67ELdocDpUYrBXF8HNMop+n48VbOUzlPZQ7IHJA58G4OSAJGs6jDardhsliOXbDZ7cyrtVIQx8cxjXKajh9v5TyV81TmgMwBmQPv5oAsYI6haJNJ/27Sy/jI+MgckDkgc+Doc2BvAWO1YhWWC7MZo8WCUfzfGbbOmaw2zDbvs+IcRwuMWRZdh2JJM1uPfoF/V6V93NP3rrS/72/HGavjnLb3zeeDuF7G+8Pr1XcLGKsdm2mVptoy2oaVWCwWzCbT68Fsxrq5Slt9JT3DMzhcjkNpXL6OaMdJwIjx0PXNTZZW9ZIvz9el+TDOi7gJh7MVg8Hr4vYx8BCiXbey6lXc/hjp2n7GpsnE0srqscy77TR+rP+C6wKr9U3jscRL8Fzw/WPhJT/n6xtoudx9PTb74c07BYzF4cS4OEVaZj46k+sdc8TdaCYb6W5qxAFeRfz9CxiPs9BL0KxWr0qHiJeoOMW0d+F0bfEya5fFamVFv8bi8so74ybS8BLjrTS9+m5GWPKcLjfieRa7cCzfIrjZgsXuwCkJ5IOvXEWFrl7QvRb3V/H+ZoXQG54jKlLhC7c7f94et11l5b0sgq/nv8myy0lPPEuaTPAK09fj9Or6t8ft1X2f6ncRH4HV2sbmPvA6/Pi+Lw6C5/sTMDt4IDqyDhcOh33Pe7/Ogixw/brf3jcN73f9bk5+eg5tx+9Dy50YDbE53djtNozmD4vv6+Xqw56xnY73+S/l86524H3u33ntngJmc2GKrDwFBts79AuwpOxgoLUZ+1EVMFYbNocDq81DZjEc9rLxfK8K+tMRQWS8EDBi5pg3CphVw5pkpXhn3IQw2cbYapOEiiiMEinFMOTmMoNjwyxtbLKo0bC6YZYaCYvdxsqCkv5RJUab/cArOlGhaxaXjrWAEcJ4P5WaReBv/7Dy4RGlrxoMo8nI2uYmJouZjc1N1oWF12ZHmjG4xYttPgkBa3fY2DRuYrKJ48NxyhcYCaz2EjCe+NrZNBrZNFsOnLM7K/r3ORY834+AMYvyusUDwQmNcoQR5QKirH7t+6w2rG/pfIlniXw2b9UNX3v/dl3xAf8Fr7br9+3ni066w+k8tLwRAmbf5W4bI+HWYbUwOz3I5MLquyfgvANvkQ+fFm+R16/KusBcdExF+TWK0Z138WSf+btvAaO3vlvA6Obbj6yAsblczPdXEhGVzvymC7fLREtZJc1DizhwYne6cLhcOJyOQyO6yPyjLGBEBWW3rlNTkk/LxBIutxu9aoCs4npW7UjfnYB1ZYzo1BhGdasMtbcxu2TE6fJY/5R9jYQm17LhFBaaTycUtyu3nf/3K2BEoyW4YhdcERWNqCAFd1xOqfCaxe9u8bsLp8uJzeHE6Xa9UdB3vvsgjvdXkVpxOO0MN+cTlV7Hms2TJpvTk0Yxk1E0ZG9Lv5Rep5nB9hpG1AapLFkdDlSDnWQnxPEiJJzopAxaxmbpLEsisaAFI2BfV1GcV8OMwY5tY5Hakhzi4mNIzshnWLmC3XnwImY/AsZsd2JcW6ShrICEmGjSCspQrdklLgt8ROVtsTs9FguLFbvLKTXsdpdbalB3V/wHwYHtd+xHwEh15kAl4fHFLGzacQOddfEk1XYjSquH8x5eC5EgOC7Strk8Q1V7Nwar61UZtjmxbSjJSIyjuk8jWVnNtu1y4pQwE+XE4XZvlRMrtpd1skd8CA7a7FZMVruEpahvPOXs1buV4120DExLdbqw9AjBpF+cobysgD6lHsdHaFC3Mdzv/32XO5eD8a4KouKK0Vmc4LRRVRxOfucU4Ma+VccI3gheCbwdLljXTVLX1sOG4xXeZpsT8/ocKVFxNI9osbscCLyF5du+VZZFZ17gbZMEiO2NNlDgL3HUapf4Ksq9lMdb9Zqo/7STgzR2jWN1u6V20+qwoZkeJD8zhcTMfEa1BmyOd4jdfYgYWcBYLJLVaLIrn5sPbpBf2yfoQHlqBorOBVwuIz1N5WRm5dI0NIfJfngi5igLGDFU4HQ76K/JIqmkTarkBqqzySpvYXy4i+y0LOr7ZjGtzZCSk8z4wjK9jfVo1m0szQ9SlFdAQWY6sdnNbEpDTN4nYIR42VxSUlmYTa6igSWzjcWpHvJzMimqaWPVYmdldpC6yirKykqpahugt62W7MJqVAbzoYqYfVWkNgfmtQUqsjNISc6kV2XA7bQyNdBGbnYe7cNKDHo11YoC8ipaWDHZ0Ez0kp+TQ8vwDPrFCSLuX8M/soi5ZZNUeRktNszL00RHZtCn2sDlNFGVF8j1p/50Ta2CSUl8eA6TeiOtJUkkFjWh0xsY7SgjNCqL+TXbViV7cHzYU8AIsW7boDo9gezSNhaWllCq5zFYbGhn+sjNSqeyc5y5yW7qhiZw2NZpqWtnSqujt66ckooqOme02A9p2Yc9BYywVlvXaCjOIyUhmaZRtdS77WlKJatlCJtJLwm3gvJ6Fo1m5kd6KCgqo72vl66adK7du0NJSz9Gu1OyctvdLmb7WsiKjyentIE1wKAapa68isoyBRVNvQx01ZGTq2B2xYTTYWK0q4aMrCxqO0exOaz0trXRO7uKaXWW1vpOllcXqa+qo6ZWQX55CytrqxSnPOTGs2C6pxcRgsdiWaOrtpigJ89omVjBdQhieF/lTvDJtEJtaTbxaem0TS4JiUhdeRwl/Upc1hWaKgvJLa1DuW5lYbyLyuISanr7aayI4fr9+5R1jmKU2i4rdreb2f4GUlPjyaloZcMFa7oxKusqqKwooaK+g8HeZjLzi5gQHUjHJoNttWRkZlPXO4bFaWWwuZpRpQHj8hRVXd0saOaoqqijuqqQotoezJZNipLDuXI/mJYJLTanA6vVzIJWw8q6kY6yVOKKurHh+kZGAVnACAHjdjPaVUxqVSWVubl0TKtpyC+kZkDHWGsxKYUNKJVjpMUk0DOrl3pN+1XYH/O6oy1gLJgdbtY1gyQmFbC0vkJRZho9M6usrOoY760nLjyRKdUUGQWpTGhUFMXFMDKnpDA1nsbBObors4lKr/dOASN6IhY9ZTmJFDf2o9JoUc0OkBKfxsC8iqaSNHIahlD1VxIemcXYeA8BzwKpH5qiKi2WkqZxqRf1MfnyPs/aT0VqdYFqsJbc6k4GO6vIrRrEblQTGxxLTfcUq6vLNJVlEJVVy7x2maXZXpJSM+kb6iclMZ628VmqksMpax5HEi7CiiasEOsqEhPyGNFZwG2kvCyV4oZ68nMUzC3Ok5VYwqhyioKYOKYMTnCL/v4GZXFRtE4s43R+s17c++Akrt1LwJjtbja0A0Qn5KK2gMsperOwuThGSkIqLSMzqJf0DDRnE1XRCnY9aVFZdE1Mkx0aSGnnFBtv+IcdnEDbS8AIA8DqTDvZinpGB1tIL2hAGOj7mtPJb+6guSKLwvo+2qoySSlvp7s6lxeJ5ejFcMloHcHJSUzqNjxDRsJSYtVTXZJD59gUitxchnQWVofrCA9MZmRqkIgnflT2jNNQEEtOywiqoSYS0kqYU82Rl5pA29g8FTnZKHoXMGn7SI/JQa2dIvxFNN3TU+QlJFHZo6GvJZWYohpWTVbJGmoSfnVWPbXJCbSM6nB6qYCxOtzoptrIL21mrL+R3JImqdNdX5lA1dAUXZX55FV30FFTQGphEwMNBUTE5rNoMqEcKic0JY2ZlS1/Lasdp3WFisJ8escnKcnOYmzVydpsPQGR0QxNjBAd+Iji9lEaFGmkVw0yPVBLYmY588ppMpNTaJtQU58eSdPwEpvqDsLyC5ke6yYwOJnx+XGSIpLomtUz2FBKWEo1S0YP3sJXR7iY2E1LFGenUT2oliyx71v+dl4vC5htAdNRQHJjL2vaYXIys0lJLKBpWEVjTix1A0LxQlNKFDU9Kun4oIcwtivOI+0DIyor2zq1xdmU1tSQk1/N0qaege5W6itzCQ+JY2J+ikxJwKgpT0uht6+T7PgM1oHl0TZiMhu9cghJWF+MunkSkpKZt0gUQdVfTkRmrWRtWhxuIDa3hamBagoKG7BYViiIT5CuHa/IoqiqHzGE9jHGhXcW8P0e7ylgrDZcTjN1hQmExiSRmRRFUEweCyYbkz1NpGRk0jSowrAyS2VuFgXVnYx0VhLkF0BhWSmpSUWMKhdpyImna2oFt9vp8ZMQvixrShLjcxleNIPLSFlxArUzOuZ7q8nKziM+sYJJrZL82Gh61GJgCZzWBXKj4uidX8fxDc3Q+8Vo+7q9BYwL09Io0ZFpTOhFlS2M/DDfU0tkcoNUiYtzI225JNR1g3uNrPgcuidmKEuJZ3TBjPOA07SdNvH/3QLGisvtoLs2i+CwGLLTE/APSWJ63cVwezY59XXkR/sRk1FAYU42pbVDdNaWk105JmFgmG0jqrAIvQNskqO+m7XFYWLCgkjNziEyKIj8jjlWJ5rJyajG6FijJDaRMb2LmZ4C0pq66ajKJqNRDJ1AZ0U+RY2DVBYVUj28ik03SFZSIWrtNCnxpaw6obkkmZymCcZ6Cshs7pfu8zgL23A416hOjPNiASPwttNRmcmLyDiy02PxD0tFvW6juSaZqt5BClODCE4poCgvg4rGDvrriymp6JDqk+XpeuKKFGy4wWL1OFrr1UNEhb4gNTebsBcBlHRqWde0S9cZrRvk50bTs2hD1VNPZmEnDaX5FDTNS7g1FhZS2DRMQ04C7ZNrmLXdRBUomB7rIyG5HhsOitOjqRrUMN3VQGJxnxQPs9mMGD436ucpV+RQ2z8vifpv6rS9t4DRTpKVV8ravpx4PcpwZ2E47OP9zEISVcxQSxYR5U1SJo235XP+xD2qh/TM9VeTmKmgv79dmo01PjdLfXkVc6uWQzFdH2kBY7FI49KzPbXcu3mX0hEdhtkWIiLi6O5rJz4kjtGZMZKy4hhTKSmMjWZ4VkVxSjRlrX3U5iTyIqGaTakwHlyPVHB4Tx8YYea1GCjNSSarrJGhsUnUqgmyE5Np7B2goiCT6sF5lN0K0jMr2dxcICsiklmTi8GiZIqrehnqrqNlVHUofh17CRiLw4V+rpuE1EzmRQa4NilLT6a4roeZuWnqinOISqtnTjnN2FAr0dEZdAz0kZ2dTmP3AGMz85hsJhozo0gramPN7HHglpxxDXNERaQzsOARMEW5ERQNLYDLQnmKP+cvxzBvcjDRXkJ0ciYtHR2U5qSSWtzKuvDD2cdY+cesh/YSMGK41OEw01aaSVRiNo0tbbR29zKvnCAtMY6q1h5G5nTMDlYTlphOT18LAQ9j6Z6coSgmnH7lJnbhz3HA6dp+37sEjGiETCtTpCQnMbQk7C42mgrSyKsfo7c1nYyGDroa8skoa2R0Yhzd+iZdpfkkFQ9KDdmGupewmDA6p3TSLEOHaJzLU8lu8Py+MttNXGIe/Z01ZCYpMFiWyQ+LYmTZyVhrJnF1XegmuklKyqZ7oI+czCyGtHp6K7KJy6misyab4IhMNJpJYsLzWbQ6qM0JJ6V2iNmBKkISclAajFuOxDbsDj1lUeE0DC165RCS8GcxLY4Qn5LM2IpohG005cSjaBqmriqO0v5JBusVZBTWMjA+ycLaBsM1GWQXNiGuNii7CI2IoWdOzFy143RaaVIkkdMyLrV1y5NtJCYWMTreRGRuHuvGVTIyQ+nUmplpLSc+p5v5yRaSUvPo7esiKyOLkQUDPYpkkgtqaa9O52GKxwITEV2ByWUhO96fkl4V2sF6QiIzmFoxSmvJuZ1GKjLiiMqsYGxykln1Eqa3OHRv83A//98pYIQjmmlxivSMPIR1912fBWkaddORnEYtZkZo54fpnJhFOJxZzUs0V9Qzpl7H4bQw2tNIoaKSEc0aVtMK3W2daNcsB+6zcNSHkAQhJRVuUNNUU4fSYMNmXqO3tZb6tk56ugZYXNHRN9zLol7PSE8Xuk07K5pRqsor6ejqpWtoFqOYXn3AlfueAmY7bataGitLqGzuw2BzsKoeo1xRQkPPOGankxXlGANDUxhNawx2dbNstqEdH2BsWsPUaDeDc4uHYoXZU8DY7ejmJ+jqm8LkEI7tDtTTA3QNDNHVWouiqhnV6ibaqV5KFMV0jM5jcTpZmB2itKSAxp4xNuwOVlSjlCnqmFvexCo5XdqwGFfp6hpEs2bGbjcxOtLF6IJechzUa8eoqehAZ7LjdJiZGmyjqKiI2rZBDBb7gXciJA7vYxaSmPFisxkZ6W4iP7+IurYByel5RTVCaXExLcNKrNYNelvqqGnpoqNjBNXSMqM9XWj0plcOrgfMc5G+dwoYmx3D4hydXSOsW52SL8mycpjOoUnm5wYZmFvAatTTVl9KSVU9ylUj6skx+sYXsDgc2CzCn6Kauo4hiQ922yZD3T1Ma9ekZ1lNq/T2djI+Oc7wwCSblg1GhI/Fho3F+SG6ppU4nDZmRzooKimjd1L4V7gwrqqoq62gpauL/r4xVg1LdHeNSn5H0yNd9E1rsWys0FBZRs+U1rM4q0XMiNxkoruLmYW1A6/PBdb7KXd6zSTd3QNs2ES5c7I430/38CQTU72MavQ4zHo6G6soqKhnbnkd3ewwQ2NzmMWsWssGvU011PeMYLQ5sFk3GO5qZVa3gd3hxGJcoruniynlFN2jo2yaNhkc6kRpMLM8P0nXoAq7y8b0YDtFxaUMzC5IQ90bK0pqaypo7emiY2yCpUU1nT1TmOwWhvraGVXrsRqXaakpp21cg3DYt1uNDHY1UlCsoLCwmPaBOUxif8JvwPF3ChixJofDukFnbQEpuaW0dHbT1tX5eujupqWljuTUdHrH1TidR3AhO7MZ0cMUcZemD1rtktnf0wsSTk8eE7CYwilh4n7l0S1IeFBhW8B46zowYhr1XuvAiOmyonIXMxVsNovkCyHWDhKzksSsATEzwCE56dok3yQxVCfyRpjghZe7tA7MISyyJXixn3VghDe/SJvL7XFOE4JYxN3l9syWEJ0CMSNJ6qW73ZL1wOp0SVOCRUX8TdZ1+CY8FBXpO9eBEWVEWodHxF2sxm1BxFukRfh3iDSKGQsv82prQUuxNoiUd1KaPeVMfLdKeb9VdsTaP2ImllVYuizSbBVR9gTmnud5cBKYiZksHjwPpwwKjEU53Nc6MMIqJyK7I/9f4iP5W9gkq4TgihMxq8PDeYHNN8nLb3rvu9eB8ZRfkV9miQev6s7tdWCktZy2hs1EnlrFzBaRXmk1d6vUyXVt8UEsoSDy1MN7zzpQ0uwXafaep5wIH8XtesAp1pkRa6Bs8UB6rlSneMqdU6pHhHOw4NTWDCUxs0tMuRfDoML9VdTjL+sQj1OrmMH0cjmHA6zT9yx3Im2i3O3AW8LZ6Xi5Dsw23oJn0iwksR6PaIelNFo9HHuJt6c9k9Irfhc+MWK2kXiHc6tecrmlsijNHnOJWX7WV3hLSxd44iSwFDOXxH2eWUhOhF+RqA9Efu7EW5RlKa+3yoOI6zYnvglf3y1gREaKufOmNSbGh+kaGKRncOiNIM6PKxeltRm+SWQ+xb37GUL6FO/9FM8UFadYiVeslLm9NsaneM+HPFPM79evrbOsN3hd3D4kPbvvEQVQiLPd54/Ld1GR6pZXpMb5uKTpU6VDlEOB1XFdiVfwXPD9U+EnP/eVQJXL3SssPoQXewsYIWKEJcbl2uoBi17wriBU7yGvkfJ1iT9OAubr0iif/2aFQMZPxk/mgMwBmQNHjwP7EzAHaFL72CSSBczRI+XH5oD8PJkDMgdkDsgcOH4c+FYImDmVBhGEmJFJfPxILOepnKcyB2QOyBz49nFAEjBizFM4PNkc9mMXxHDXgm5ZCuL4OKZRTtPx462cp3KeyhyQOSBz4N0c+GxxaZn+4TFm5lVMzc0fw6BkanbeE+aUxzB9xyXPRN5sh+OSJjkdx7NOkfNVzleZA97Agc+EdUIMrxjW1o9tUGoWEOE4p/HIpm3DiMFqweCwYXDaMThtGGwWDCajnF/HuEweWb7KeSKXS5kDXsMBScAY1jektQqO6x8x7VgE+eONCLhhehYSi+FeOgQUQ8sUiI135I+MgIyAjICMgIzA1yAgCRixANlx/iwsLSOC/PEyBHRKuB4M/+4O/DwUrsXBhRD407vwVy+gac7LIixHR0ZARkBGQEbAWxCQBYy35MQnjYeJ1vw88vKqWTJ/0hft/+FL0/C3d+Bvo6FXA1bPpndirw+WtOAfC//2DpRM7v+Z8pUyAjICMgIyAt8aBPYlYDa0Y5SUlFBcVY1id6iupri8lOLadgw2sZ+u932+rRaY2boI/uT3fp//7X/+F3z22WdS+PV/8bv8/u//G25ldBxeRrk34NIz+HEyGL+OMy5ISYE/fgqTm4cXV/nNMgIyAjICMgJeicCeAsZtXqEoJ53moXk2NjfZWF9nfUfY2Nhg07BES1UuBQ3D0r4L3pbS/QsYNxbjHrtWelvi3hEf3XA5N06f5tSZc1y7dYtbt25w4dxpTp0+T2rTIVo2umrgjx7DtMkT+5Z2qJv1HOtmIasdJIOMGU48httV70ilN/0kVqR24tyx34eInUGnQrmwIu0BI77r1GrWzGIHKM9nVaNmeeNo8M6yaUCjUqLWrkj7yuA2oVJpsEsuSw4WtWqUShW6FbHT7Ks0bqf12/PfLe1Lsy3P3W6XtB+WzbiBRqVhdXkJjUqFyWLHsr6KWqlEuXB0/PScViMqpYoNx5avmtvO6pIWpVLJpsWT79a1RdS6V+4JTuMKKu2KtJeVhwdW1Co15m3jK04W1Go2TK8KkF6jZmntldl4U7fAwvIOn02LHpVmwSvbnY/JdYdxHZVKjXFH5aJfULGw8RI8rBvLqDWvOOS0GFCrda+i4bBJeNtewutCq1Jh3N6wC9hYUqM1vMLbotegXl5/+Qy3WY9KrfMavPcUMI6VedJzFGzu4VO5sdBJRmEb3lgN70fAWJbnSX14kx8+jMH4MoNf5tsRPdjgxff+hN/5nd95Lfyv//tV5g4zo0Ii4HzBFqYOSEqFP/SBojY4KSwzSbC21fgp8uGHkbC+BwG9IofWCS/Ko161Da6bqeEabt67zq0XGehxMF8bxbUTp/jyXBQzK3ZW+zO59/Mv+ekXvrTP7KiYvSI9uyLhWCHk0Qk+P3OR24+T0VvWqA18zqnTn3M7qh6DfYWAx7e4dPkCf/2Hf05k+SGK5F1RP/ivFsJ+8kNuJ5dJr7aqGyipiWO8rYE7577gD//0L/jZ2at093dx6eZ5Tl28yIXzlwlIqcGwrXoOPtL7eqPbbqczO4rzF89y/U4I2nUbq61lXP6bk9y5dYPmiVVWFqe5e/siJ058Sb7YdXh9Gd+nNzn9+U+JruvF6XbQEhHMyVNfcul5IctWG6OZCZz78gQnbyagMroxDOby4Gdf8NPPn9E2b8G0UIf/iZ/zk7+/jaJvDZw6IiIucurnf0d0cjXWfcX+CF7ksNKTE8vpcye4fD+BDYuD6f5KTp45xY9v3GLYsIlNM0PEhYt88dPzJLSqsOmXSL95k1NfnSSwYAi7fZ3m2HucPn2Sq8/K0ZvNDOf5c+H0ac7eTGdxw41WWcOlayc48eU5+qaW0esHuXXvZ3z10y+o6ZjDZtET7H+XM5//hOCyZjHYf+ifvQXMqorMXAX6Pdixqmonq7jjyAoYq2GBtoIE/j4qAf2x6TiqOfHf/Tcvh4+2h5E++8U/o+vQfJodcNUX/Ft3kN8N4QnwWyfh+9GwuUNBDjfAXwbAvHHH9d56aMAnPYmyWU8Pxm5WERIaTlZJDZOLBnBo8H8Rifi1Pf0xMTmZxMYnonbAdHkoPlFpXtOzeSvC65Mk5aaw3cdbHK7gXmyT2GuZuGs3qR7Qe26zqciIDGVO/6p3+NbnHeuTG+R/9YQbp+5TMy38uqpISvPB05fVcD4gjikhVIyjnEkrQRokdW8S6nOb8Frvdl53OxysGzxiu/TeVSoGtIwqMrh5I5beWU+PvyHrDgXjRlht5fLTVKpKgkhpnwXHFNcehNE10Mqj6AqJAdlPnpBfUMyT6EKJ/7WRfmTk1JCQFMesBVR1sQTHRJKankqn2oZxtIQnoeH0V1cSX9ID7lXu3r9D/YI3NKmfgNROG5at/lv64xeMzM2RkfCAMRso6+N4GF9NXWUmSU0rYB3B/4ofhRX5hBaLDsQygZd8qGutIyypWIpc6rPzZFWWEh6bIX0vC71Cen07iogo2jfA0pXBhegsyuPjKZ+zwVwV5wJTaamOIqF+CNBy4/ZTunWHj7csYHbybbmdE5FxrB4bAfRj6JkAACAASURBVKPh7G//xhsC5h/+yvfoWdmZ8IM8dsGdAHjasPVSNyyq4Ewg/Ml9+DNfaJjn5ThMbw38TRBotq0aBxnX933XGr5ZqVTMeQTMUn8+f/3VZWKCA7h9MZy+thrOZJZLQy9r4zmER93ndHIJQku6lQoC0+K92/pnW8T39k/4/Pw1ArJb6WsIIa6xTwKpK/c8hR1j0nFfQQBJ1YPvC94xu36FoqtF9PbW8zw8Bu1EMzl5/kgDKuZpzvtFMyxUy8YoF1ILWdrqIGrr6oj2qd8xzOK9sCyP1hP+JALNpotN1QARwUHcOHee2p4hSn3CGdCKinSVjEsJhN8OomNYCFwreVcKyE/1Jba2UUrcRM0zooLPEabwWKu0neFkJzzgbJoCjejL6OpJiL3Fqdhs+oRuMg6QWORL/N18qktV0jMSEpMo6T+0Xtknz6SlwRKu37pMVGE3a4vjpNyPkbhkHu0h8XwmqYrHNKiEytFTGn+KwOjHKMY9lXx92nlCUuO4VyXEBwzVB/E03JdrxW3S9/mOSMIL0kg+k8OCENXrkzyOjCTsVAoTkh7V4puYTsKDEBo7taK2Iu98PM0Dhk+e7r1eIAuYHQg5lY18FRkvC5gdmHySw5RE+FGiKAcg+lyhsfC38aBbhZhk+EHkqyGkuCT4SSJeadp7AxwDvrlZNG+ZKHS9WfwsplK6qiflFgkJEZxOVEjfte1hxMQ+5UxMHqJat42l4BsX5d1mcOMcsQnBtEwusGp0MNYUzdNSj4Cp8r+CoksjPH4IeRrH2PLh987eyJ4DPbFK7rk0NDYXU8U53Hl8m7TiYI8FZqeAWR/hUnbFy3xvzA8go3L8QGP6IS9bmBsgN1bBwq7OnmNcwVeJeZS8eEyn1Pip8bmTSHzAQ2pHJfWB/+1kSorieFrg6cR0JjwnIcyHh1mesjFZGEZWTATn47NZFPa92XxiI+9wMSqDHtE3WG8lPO0J+b65FBUopej7hgZSMuHlQ7AfArS4R9STdiOLizOkBd6ntLmd9ABfiUvGwSqePc4no8CfEsmNcInUezcITQwkpc9TEeU+vkliTho3CrqlGDRlXycsIYKL6XXS9+HSB8SW5pJ6Kh5JDuo6OR8TTfyZaAaXkKxml6NSyAx9SlnXghShwGvBNE8dvlVcFjA7SOWcq+XHLyJY2VUod1xyxA7VnPmXb7HA/PJ36T40CwygGoA/uQWKLVO5fgUMW11QtwXUW5EzzMNf3IKY/iOCu5FHwQ+5HpZOXlEpSu0Y0bevk5iexq3LQbSMzlAQdZOo+GTu+4TQMqmkLv0xweFx+PgEktcx5d3pNM/j/+wyEVkKyqpqEY2Y3+WnpKTEciMohXmjm7W+XPxik46G3vykaK+Q/nkcYyuiV2zF7/S/4Qcn73p8002TfPEohAHR3prG+dHt2yTm5pGdEsC9iABJ9HzSqH3Dh7uMSp5//jnBafmUFJUwtLjGaF0W8Xl5RN89R17NICOdmVz2DyMp8h4JNS1MD1Vx6dkzUmKfEJJTwsqaluCrPiQlx3EzMJHheSXJD54THZfAHf8wOmcMNGU/4UVIDM+fBlHcM0V/VQS+vsEE+wYT1zjM5nQH13wekxwVxAvfHHTHpt5+PYNspjXqSrJQlOQTdvsWA9NaFJm+3I9IITLoBpWTamZaFNy59oKYhGD88jqYH2jh/iU/kpPCeRBfw5JmnDCfKySnpHIzIJFJ1QwpgVeJT07h9tNwhhb0tORHcDMijqQHjylqHGegIYMrL0JJefqElMI+tDMNXHn6hNS4ZwSkpLOyw6H49Rgf3DdZwOzA2m1aomNymlde2jt+PJKHWr74b//RG0NIn/2Df0/3tiPDoaTLBYkp8H89gjb122OwoYGTj+FHSXj3uMrr0R/rqiE6MpKI2CTmNsA630NERARNgx7/EIdujLiICEqbPaZvNlVkRESQXTb6+oO88puD7rp8oiIjiE3OZMMJmoE6IiJiGVzyDPGtz04zMyx6ad/2jw1l9ywbW84LZvUwHe3Dnplbzk26R6e2/NQt1JVkEhkRQUJOKes73L+8FkHnOk3pScRERxEREUOb0oBurEnieWHN9vIMVuryIojMKJV8vkRauipjiIjPYmXLOKcba5Pu6VB6ZioZVUPS96phMUwhxJ2W7IgIMko8Qx+41ihLiCQurfWlA+loSw4REdGojwRwnmS9/18b7VVZEjZto8LKCW7jHGnREeQ2bA/VOqgrTCYiuUSy6IprempyiYjKZHtOgW6wXsKqd8tHzzjrqZsa+rc6jM5lCuMjSFN4hvbARHVWBHGZipd4D9QnERGdwsLWBNL3T8vHvWNvAbOiJCOnVKqs3vXq9YVOMo/wLKR3pe3o/majKuEGv/Ubv/JSxPzCL/8qP32W5QXDZEYIiIY/uANPy6BrGrQ6mJ6C7HL4q7vwg2hQymvAHF3+yTGXEZARkBH4dAjsKWBcRh05Gen0z+txu1y4Xc5dwYXLbmaorZisyl6PifTTxfeDnryfadQf9OAjcpNOM8vo6KgUJmY8Y8beEXUHVNXAT/zh+w/gz+/Bdx/AX/tBYDVsfptnsXhHDsmxkBGQEZAR8FYE9hQwYork4kQH6Vk5FFZUUlK5K1RVUaAoJK2gAvW6d84U+bYLGG8l36t4OWByGpqHoWcajN92B9BXyMhHMgIyAjICMgJvR2AfAsZzo8tpx2SxYH5LMFmsnrHdt7/j0M9qdUuIIH9kBGQEZARkBGQEZASOBwKSgNGvvVoq+Hgk6/VUrOgNiCB/ZARkBGQEZARkBGQEjgcCkoBRLyxitlgxmszHMmwaTYhwXNMnp+t48lbOVzlfZQ7IHJA58PUckATMvHoBo8nE+obx2IXNTSOLSytSEMfHMY1HOk0iT0wW1p1O1nGx7naybrWwLueVzNVjWB8d6bIq54dcJr2MA5KAWdZ75uGLJQiOWxCGMq1uWQri+Lil71ikx2mG3mFQdEH9MCyb5HySuSpzQOaAzAGZA+/kgCRgllY9/iFOl5u3BtFK7uPz1nu/7pkHdF5EW7O4JAVx7I1x/FRx2mv/5k/13n09V+SF04IrtwT+5gl87yF875FnOvV/eAL3inAtmaXN3fb1vAPikxyXr6kjZPy/VXWLXA7kcuANHNiHgBHNvpuNNT0LYihm+c0gzq+bPes4e0Oidsbh2yxgrKYNFrRa5gcauPPjH/OjH52noGECjVbL6qb18CpcIV7sBtz3QuDfPcAd2YBrVINr1YBLq8ZV2YT7xw/hPwTjGtfLIkYWB4fHVRl7GXuZA17LgT0FDDiY6qsjOTMPRU0tZdXVlO4IZTW1lFYoSM4uZHzRs5nWTgFx2MffTgEjUg1Dhff5rV/7db7zq/+E/+Kzz6TVeH/pn/wa3/nOr/GfQqula1wHXTjdYvtGO66wWPjj57gHlzwCxbOt46tj2zLuq8/hr2Nw6Z2yiDnofJLf57WV9mHXqfL7ZeuLt3DgnQJGjBw51rRkZGQxs/ruxcXmBirJUHRKm7i53d6TwaKV3s8Q0u5RMm/JoA+Nh8vtxqSfJj3Inyc+T3nu54evnx9PfXzweR5Hr3Idcc2HPv+D7xNCZaob/vg27hqNJExcajUu9aZHpFg3cI2qPcebWvirO7hDuo6IgJE0ofRnG59XZ0CIxd2f3We27/PO/6/HfndyRPp2pseb6oGDx/MVVtK7t77uxOfVFa8fHQXcdsZYxHf3cPXudO7+3bnrhHv3De7XuSTet+sWdu8leOCdsQMT+TvRRqq3Xz/zJja7sdpdVnfjLfLwjSzY9ZLdz/AGvPcUMLaleTLySlnfY6fPNa1nL6RNN3hTARR5sJeAcbtdLE+1ceP8Oc5cjmbCaEVk8MFXeh9PUHgIrOP8v3pzN+pf/JW/os+zt+DBplGyvoA7Pg5+kiJVQE4cuIOj4HsRuGY0uMT+SH8ZgWvV4RE3yanw9/G4TMJy48V5InjvMlLQ3EivzsMfUSGs6QZ5ePs8F58lswxsjFZw+9RpbvmXsG4Du6aNZydOceFuKkpP4TnYPNlnJSwqL7drk/SIu5w6e54bD5NYdToYzYvn9OmTRClGpAbGZNTi/+w2ly4GMaqze1VdcGDlWaoDLWT6PCBBrC4NWHT9tPaVM95Sz62zp/lPP/05J89epmNgiBD/B5w5f55zl+9R3Dkv4Xhgcd1n/r+MjxtcDieDpamcPX8Wv9gSzHY360Mt3PvZaS5evEjD2ApWi4kov+ucvHibzgUjLqeLjOgnnD51kfKxRQmT6dJMTp0+SUBGF2Iv+pXWci6dPM39sCpp/1bHQhd+X53k3K1E5kzgtkwSffkUX50LYnBRlC4riuyHnP7qc0qap6QG+GU83zddXns9uJ0OBguTOX32NL5J1didsK4e4ualM3zlF8OywwmmNXJ97nDiq3vUCrDsVmrCnnHq1GXye3TCFMGYIobTp08Tmj2E3Q2a1mwunT6DT3QjFgeY1kd5evcUZ2/6oVmzYXMsEOZ7gpMX7jCqMkpluSDRj9MnzlAwMO8VeO8tYJaVZOYp0AuGveOzqmonq6hdIt7REzAO5qYnmZ1eoDw5lFvBdVLmeIPC/NACKQkYt5pT/+N3Xm7k+NnWMNIv/PJ36dxamPhDn/9B90kCxon7lj88a/QIEtw4DTrcV4Ph396EPw/E1b3oacSFYOmthb8OwqXycodeUTZceh4kxVE0bZRKisOxQkpSPFl1HUwvroBzifhAH/omp0l6cpeUikaKkoJp6h+nKPQJvkkVHtHmhZWpxKf1ScLigulZsGA2mtFNtfLQJ4vp2SEeXHhM97SB+rwcYsoaGZ9dkHaw/SCeeGH63ysdUld2k7gffM7Pv7jHxCq4VKXEpjxi0WRkcaqJv7v0kKrxBcy6Pn4eEkefUot6vJNr166TOezpXbzXOw8KMzc4LFamBwdRL2mJv3KeigEto0VZPL6VxvicWmocW0v9eVHex0RzEpfDc+lqTsE3t46Z/iLOPQ9nfH6MZz4pTM6M8/zqU6qau3jhl8jQ+BRRD56QVzOMIjWIup5RSqP8CE5TUFMUR1FtD605sTwIz2V+qIHnqXlMD9dz/dpteg2ii/PxOoFegb+wjNhMaDQLGNaVBJ1/yPC8lpzUJxT0z1Ce8hA/RQc9tUWEJLQw2l3M3TtJNLdU4xdSydREI7cuh9M/0kV0cBhTM1M8uXydys4OkkMDmZidJeTmVYq6JqnKiiClZ5Ke1Kc8SC6nqSSFiPo+xhXhXA/OZbg3h2eZpcyOVHHu4XNG1gTeh9uplAXMVsGXcgIXJbHRhJZPHXrGfNPCsy1gTv/2P3tDwPzir3zvEAWMHfc1X/Br2RIwwrJiwxUQA//TGfhuBC6d7dVvA3XwlwG45o2ecwdVUb/vewRjXAaeZ6RQNuvZa35lvIafnL7M4+tXuP0wC/VEF+eTS6Ue9vJAEuHRD7mQqJAsM/aZPAKSotnwMgvmNg8lPpnVBD6/xLOoFIrbJhhojCK4bkAqK23Jt8grLuTh5fPceXyNC5cCmV7wTIfffsa35r8kYFYouV5IWV4mj9MUGDUtpGc+R5Im1jku+MUyKmiyPsL51CKWtyzcE2WFBD1vkDpQ7vfl4EFdL6VPGEDUJN5+yrDWjLa/grOnz3Pu0j2mNIuU+vvSqxWsWSLyaiLRT57TMrIqbFEkXMuiIDuU4KpmiTtDBc+JCb6BX3GF9F1ZF05G7DMupSjQCEmiqSAu+iYXYvPoE4vGb3QTm+NDik8hlWXz0j1hsdEUDIjnH26D+ik4LqyfBmUPqSkxJBd2sqIdJ9UnROLS5nA7YVezSC31p3xe4L1CQdA5AuP9yR5ZkfAoj7hERHoyj8oGpe/d5Y/xjQ7iVl6b9H2yMYDwggzSLmaiFppEP8yNyCiiLyQxJow3LiX34tJI9g2grksticTEi9E0DO0xe/kA+CgLGAGyKJDOdUpK00jM7cDk8owzfgoyHtQzvVfAgDssEk7lbIkUB+6YRMmh11XXj/uSP/zHWFyGrSGkghz4UTSudffREDCZaVSpPLtoz7ck8/8F5EiVRH3kfZLiw/kqtdIjYPoSCQ+/xxfxRYg6wj6Vg198lNcLmCDfq/jHZVLWOU1fbQgvavqk9LUm3iYjLYqf342QhgMmCh4RmOlpkA6K817zni0Bk302HZVpg/roMCJjY8kve4HUxBqnOPc8ikHRGK+NcCG1+KWAGavOICmlx6stwKJusRjmyQqIpnZwWuKzRAJA1ZTOpZQCCp760asVQCwRdiWe8Ps+NEsNnoXYa5nkpgcSVNEg3TaY94zIgCs8K1RI3+erw8iI9OGrxCJUorlUlREXfo0vo7LoFPNE1ruIyX5E4p0cygqU0j0hMRHHVsAIFNc1/WRmJxMZHkFrTxepj0MQ8mFjuJXgK5kkFT55KWDy/M7hF/2E7GGPgCkLvURocjzXS/slrLpKHvIs3J/zOS3S98laf8LyU0n8Ig21ENKrg1yLDCPsizhGF4SAmeNOXDLxj32p6ZAkJbEXoqgf8qwfd5jlThYwUmVjozozHP/UclQ6HSv6dRwHoB4/ZcZ7BIyKk7/1629YYH7hv/oLOkSreRi9FfHO3gb4o4e4h9YlUeLq7sPVseW4q9fgLu3D6RA9qQ3cP3uI+36dR7wchtPxfnkgwHSt8SAmhNimcVRqDbr5du4/DGB0aorQe3corG8i+MVj2ofGSIp8TkFDM/FRT6noGqIgKZDwogapMfDGoUuJT+uThMYG0aHcZH1Nj2qomrv3kxgf7+fJw1B6RsaJC/albXSSohe3iCppPxyO7TfPPtV1Up2yTOrPYhkTimVTx4Wf/h4/u/kAyTa3Oc7nD4LpE/X/2jA/DYqiZ1bJZH8Fd/0u0r3kseB9yvrhQ58teOA0L5H41IfsmkEWdcusmazMD3cxrFJRH/+Y5zkNNJW8wK+wg5HGRHySi2ipTuBRajnjPfk8CE9ibLqfR3ejGB0bws8nhNrmNvwEhwZHiAoMorxxjOQ4H0raBihJDyVRUUl+RjCp5R00lyThn69gtqGc+6FZjPU18uheKEPrTuGA6ZU+ZB+Mt9uNxbjJ9OQUmxs6Em+fpaJrlLSYB2R3jVOT9piY2n7aFCn4R9cz0FPC44BcmmsKeOxfxNhoA/efJDPQ38Ij/wDGxsZ47u9DQ1crvgE+DI2NExr4kJrhCYpeBBLfMkh3ahSBefVUJ0YRVNrBaHEKPnFV9LWk8iAhn/GBcu4FBDO5efhDdrKAkUz2DvITXnDu/GXJCS0iqxK7GHs8woXBI2B0nP3X//UbAuazf/q9w3HiFQ2G8INxGz1+MGKK9Ip1yxKz5aQrKkgp2HCHx8K/98c9Z/Kc+1QNzsd4rsQjF6WZ4Zw8e54L1+8xuGRBWZHM6XPnCM8YxuKG1b5CLpw+y7O4NmnGnnWmnjsnT3PbvwK93bsc4HdWuh4nXiNZUcLh9AJX7z9nyeyiPT2CM2cvkNmvkqwGC91FXD5zDt+oWkyWo12Gdqb/vY4lLmzQntSMZs0zNjRbk0h4VAE28ZtlkaTiGpTCMdW5QtCzO5y7eIHrj5/To/FsrPte7/sY/N3nMwQPXGYtsZfOcfHqFS5cuErhyCJjtUmcunCBZ0FxGE0OHDYdQY9OcebOc5QbVpFoEl6c5czl2wxqNyVh21eQyJkzZ4hrmZDKt7K+kFOnzhCg6JSseLb5Fu6dPMWNZyWsikrBMEzAhZOcu5nKnOSTaSMv8R5nTp6hffD4Dh85HUZyoh5x4cI5kvIacDphZa6Jy2fO8jgmR8IKywrh969x6oY/vRtOcFjJDHjImXP3qFMLnzw3ffkhnDlzkZQ6tVRW5+qTOXXmLGF5wwiWmvQD3L98mjtPY9g0g8OhxP/eSS7d8kMr+Rc5SY+8zJnzV+ia8w689xYwS/OkZ5ewIbWIEu/e+mdD20FGfuuRdOIVlcXuj7dWIO8TLxcu5kcq+Lvv/hH/+nd/Vwq/94d/SmrzhNSYHlpPXwgUvRL3f34A3w3G3TCNa92E0+3AaTfimpvBfTcU/uAB7to57xcvOyr/3Tza+X0/UxffJ38P/tqdqZE6u6+dEHza/Tn4OHpLD3wLia1O0DYuEh7bMEm/bf/y6r/XY7Yd/1dRfuNod3OxmxoijTs/rl03vG1a765L3phG7fW47agn3i+uO5ES7g2vfxf1yhvYvH7JG1jtfoZYUmPXY9/4vvue90vDpymX7xQwIsJuq4Hy/DTKWgbQLiyysLiAduFVWFhcRKOapqIoE0XruNTYHFrD+BaCiHzcaxq1N2TEp4nDLhbv+HroDoJCxBgWcftEwx/fgR8GwIkw+Nwf/u878OMoXD0LHvFyhC1hnyZfP01lIMdVxlXmgMyBo8SBdwoYkRChyswr89RUV1JaW09FXT3lO0JFfQOl1VVUtQ2w6RAmY+/yAv92CxhPYRTqXOTjdvAagkpDRW5cKhXu7Arcvnm4Iytxd8/jcmw57cri5ViN6XsN997S2ZHjJjfeMgeOFgdeEzDC4rI77F4xcUcn/q2HggC7n3GY30Uk1Qs6KYjjw4yL/O5d+IvZXpKI2fZ7ef2/MCtL4S28lLHchaWMkVy2ZQ7IHPiWcUASMIvLqzidTuwOx7ELDqcTw/q6FMTxcUyjnKbjx1s5T+U8lTkgc0DmwLs58Nni0jIz8yoMa+us6g3HMqys6hHhuKbvyKdLcM9sZtVmYdVqZnXj+HLxyOfVMa0j5Hw5nnW/nK/HO18lC8zyqh6Xy3Vsg255BRGOcxqPZNrEkJ4U7LimZnC1juDqm8FltG2dF0NIx5eXctrkvJU5IHNA5sCHc0ASMKsGz4p6b3VqOQYnF5aWEUH+eBsCTqhrgJ8HwV8+hD+7B999AP8xEELrwCwWf5A/MgIyAjICMgIyAm8isG8B47BZ2DQa2TSZ3hocuyeRv/muQzvzbRUwbpcDq9WKSTtK1I3rXL/uS9vYqnTO/r7e2R8990zwIg7+4DY8KoH2SVAtwMQEpCnge3fgb2NBWoTpo79cfqCMgIyAjICMwBFHYB8CxoV2rI307FyKKqsoqaykeEcoqayiqLSY9PxylAazV8LxbRUw4yWP+Ve/+Zv85j/9xy9X4/0v//F3+Of//Df5IrL+EPPKBSmp8H8+gGbPXiZvRGZNBV8+hL9PAZMXq+M3Ii6fkBGQEZARkBE4CAT2FDCuzUWyMzMY0YpdtMRiItI62a/+i3MuG2OdCjIrevFsY+e51Fv+flsFzObCEHG+T3n0+Am+/v74+/vh8+Qxj5+E0Dx5iENq6iH4k1tQNOOhyJoe1myeY7cVtJ5lqlmdhf/3FsR5djz2Fj7J8ZARkBGQEZAROHwE9hQwjhUlGbmliO0V3vVZX+gks7Bd2t/lXdcdxm/7ETAmTT9Pbl3nxv1kFu17JPYwEvFB71zl1v/y2/zSL/3Sa+FXf/PHjG3p0Q967De9KS0JfpjgWVlP7MIREgM/SoRlPcQlww+iwODZQ4aYBPjPSXg2/PimL/7U95up6e1mbPWVjLeuTxP45Do3gzLQi12nlW08u3oV39h67MKwtDpE2JUr3AsolPZC+tQx/EbPd5spSfHn2vUbPPRNZwM3quosrl27QlbTvPTokYYsrly7wc3AZDTeaZD9RhDs/2YbpVGhFA7MSbfYV8cZmGhmtrOZR9evceHSZa5ev03v6AQpMQFcv3GD6/d8aZ7YEu/7f9HBX+lyMVmfz/Ub14jJaUC4D1imu/G7eI2bN2/SOrWKy+UkM/IRV+/6MmbwlIfy9CCuXb1Hq8qz39NCi4Kr164QXzoqOe0bh5q4d+UqL1Lapb15MIwRefkKd3xzWRHVgUtDxv3rXLkTy5xUfzlpLg3k6uWLNA4uHjwOB/VGt4vJymyuXb9KdFGHtCCpdXWGZ3evcSUqC7HTEQ4zleHPuHLZj54lB7hddKSGcfXKfeomBN5ulA2irF4ltWpGeoZ+oIK7164Rkd0rrXjusMwR/vwqN5/HYLCKjWgMpIZf5sq9AJRbdVpdXgTXrtykbvoQO8A7cN9bwKyqyMxVoJc2z9px567DVVU7WcUdR1bALKrnmZuaIzLkMvdqRnal7qh+1XD6X37n5fDRZ599Jh3/g1/6C7o9O60fQsJccDcAnjZsvdsNmjk4GQD/j3Dk9YXqGaRaUVzRUwN/EwTaPQh4CCl585UGHiTHUTzt2U3Y5VojNzOZjJoWhmc1uN2rZIU8orG9k9Dbd8mp76E6PYjyulaSnz4iOLNRqljefK6XnNmcJjTiKbXDSlQqHSvzPTx7kEhXdwO3LvoyrFxDkXCWsKIOxmYXPALNS6J+8NEwEv39H/LTE48Qexe6VAoS0h6xoF9hrKuE75+8Rm77CAZtLz/1D6VhYIih1kouXr2FYtaz2eHBx3l/b3RbrUx0tjI4OkT4xXPUji4yWZKDz40UBkfH2bC66K4J53lOHe0lIdyIL2aoO5cnqcV01yVxMSiG+cVZgh7F0tHVwoPLz2nsGSbaN5bm1nYCbj2htG2G+qxAFNXNpPs9JSKvnvaKeHLyqymNDeVxTDm6qRZ8EpPoaszl1vUHjB7XoWa7ifnJCSan+3h+5gETmiUKs5+TXN9FZvQtwur6GW0s40VoKc1Vadx9kk1fVyP+z3PpbCvm+o14JqYHSAzyo7O7gzsX7tE0NEBW2DM6urt5dvkmVQNKGooiiaprozb8Dv5ZdXTVZhCgqKEt9Tn3I4qYHinlcWI2PU1ZnH8WwIxp9w5M++PPx7xKFjDbaNo3aKipJDc3hFbVcZmVpeHsb//GGwLmH/7K9+g5NAHjgCu+4N+6jbznf2Qi/Pcn4PvRsLPnPtwAfxkA81I/4/V7vO7bGr5ZqVTMeRKwPtfEVxev8+T6VXyCFOiVA1xOUkixXumPJzL2CVeTSiXLjGsmm4DEqNeS7nXJM6sIe3GHuPwKB16LgwAAIABJREFUWkbUjLbEEVQ7KEWzJeYqVT3T1Kef5uS5s/jE1LL+yhDldUn59BFapexmAYUpyTzPr8ex1EpGli+S7cGl5lJQApMCH+MYFzMUnvPAaEk2gYHNnz56H+UNa2TcecyA2oi6s5gvvzjDlXt+6PQGKoN96NOJlywRej2ZeL9ntI4bEKbUmBuZFOdHE1TpqQMGc54TH3oP35IqKVbK6nCyYgO5kapAeoS6lPiYW1yLK2BQVAPGLmKyfMjyL6K6wuNDFxoTSfGweP7x/JiWJqisLCCjsI2lhQnS/YMkzlhGWgm+mUNm2QvKJShWyfe9SEhyMFkjwuYLZcFXiM1Jx6fUU1Z7FPcJigvlXl6b9Pt0/XOiinPIupaBVpzRD3ItKoaEq0mMi3bCPc/tuHQyXvhT16uW7om9EkXTqMeSJp04pD+ygNkG3rpCYlQoL0KeUNo07t094e047/nfGwUMEBwBFwq3Yu+E1Az4wyeQ1wJfPYWfpMDG1hBSaQH8MALWDl/t7wk3a/hmp1Gl9FiLVK1J/OBpCjaXk8qQR2SmRHMio9pjvh1KJSLiLl8mliCMse6ZfAKSYvDYbvZ+06FcYdUS+OQMd/xCSa8doq8umPD6Pikq7UnnKWyf8kTLuUnmCz+KOzzDSocS10N/6Sq557PQmFapDH9BWkYaReXBSF0j8zTn/aIZFoaWjVEupBWxsiX25uoLSY7vOvTY7xUBh3mBwuAIilsGPMM90g1uxsrjuZVZTJHPCwYWRJldIfZKPOF3n9M24hEwKddyyUvzI6zKY4UdK3lGVOAFAopLpadoGsPJin7EieRiNOKMppKEyOt8GZ1Fj8Bss5f4vCck3Mmlqkgl3RMVH0PR4BEYfpNi+/5/1mZaCIsMIiImif6hXtIfhUsCxjTSSeSlTFKKHlOjksakKQ45g3/UYwrGPL3UmpiLhKTEcaPcI2D6K57yLNyXC/keATnb+ILwglSSv8xkQXhPrI1wOyqcsC8SmJBG5lQ8TEgh4VEA9Z2SxCHlQgxNQ4ff0ZcFjOCS28KSblFqWDrzIrjvWy2Nyb4/zbztDjVn/od/9oYF5hf/0XfpPswhzI5q+OMnMLtlamlsgeqtxm9xBtJaQPLptcCpJ3Cz0tuA/Zr4rPEoKZrsQR0bm0YMyhZuPY9kyaAn8elNciur8A3xZ0qrozD5GbnVlYRFBdA+q6Uh/wUhuRXezbuNSWJSIpmSVJYTzUApd57lsLysJOCuH20Ti8yMqzBuLBP/wIeiZk9v7WvAOuanV8j4Ip6pdXCtKjnzs/+Ds08ee4bYTZN8+TiUAeHHsTHMl1GpzBo2WJnr5LH/Odq2J0x4KUJui57cyHCKGycx2zzbsyzNT7JoNNKfF8iDjBoa8/2Iqp9CN5TPw9g86hURBBa1szxfx/0X8QyNdfDQJxndkobIp0FU1NTy9FkMSs0i6aGBKKp6iY71pXlSTVtJJPH5+aSmhlHQOc14cxb+WdlMVCh4HlPGknKYR/eD6NMfF9/F1zPebjH//+y9B3RcS3rf+SR7j+WzY8uWvbbCruyRxrJs7a53vd6z3nPWsqwZpZE1epp5M3oaSTOaF/iYAeYEIoPIgcg555xzIAJBIpNEJAESOYdGaKRG3/7tqXu7QRB8JMD3SHQDvPec6r6xbn3/+qrqX1/VrY+ZGUHOdKQ5WlPS1ElypDPVg7O05fsSUtpKfWEcoZmPGBuqxcM9ieqyTLyj6pieeoS7UxStrbU4B0cyMzNNcIAjVXdrcA8MYHJ6loRQR8oedpLv5U9u3ziDhYm4Z1RQFhpObONTpu7m4RhZTEttDN6Zd5gda8bR+zaPl4ydzBeTe6BHKoGR4d6iuyCes1bWnPMRlY5F94PfQEGmOPPvfvElAvPBP/4zHpjT2iotwQVhaUmBtVd9Im2AtFT4jjs8NueM4zeAGz3ZCb58duos1lds6ZrRMpAdwskzp/GJamVlC6bvJ2N14hQOwXdYlmCtr5hrx05w2TWP6fU3eZcZ7pWWSPC/xsmz1ly2d2N2VUddlC+nT58lrnkIHaskX7+MtdVJ/IqaWDma7ck+gV+mPqSKsUUFhN58Pzx8k+XJkmxMEJpZjDzSKM3g4nSZs+esueLgSP3A5D7jN99thvUxgk8dw/ryRc6du0R+zxS95ZGcsLbG2c2fxcUNNtdGcbX9gtPXHBhYWMGgXyHY4zinrS/ROqRYBpqSwjh16gRB1Y/kr1efFqdy/MRJbmXXyRNTN/rLsfn8OBedspgSHZrZFtxPf86pi1E8lqcJrZIYdo1TXxynrsnycfuqOabXLZMWbI+19VmiEovRbRmYfFzJ2ZOnsQ+MRSu+DF6exO/qOY5fvsXd+Q3Y0BLvYsOpM9cpfioq+y2aUzw4dcqKiJKnckepvzSUE6dO45XcxqYBVqabuWZ9guv2gSwuSWxs9ONy4xjnLjkzPC2syhtE3T7L6TNW3H0s28a+qkhv7bm9CczcCKmZxazsYcFfnmyRx+cssQ7ez1dIbw1Ri4pIT8+9ZP7kd/8Pfv3Xf10Ov/Uf/jP+ha3mX1plqh8+toWfxoD4gmDLxOa3YGEaAuPg/7OD/McWhaiaGBUBFQEVARUBy0BgTwJjWJ+nMCuZOx0DaDSLLC5q0Gieh8XFRRbmJqgvyyS/vkfpYViGbNupeH8JjBECg57NzU05mH8F3u1sgYlBuOIPv28PJ8PANh6uhML3HOAHt+HO0x03q7sqAioCKgIqAioCzxHYk8CIW1cmn1BcXERhZRUlVVUU7wglVdUUlJVQdKeZpc09zDTP33uge+89gTlQtN/0ZZvQ/RgisuFGPLjlgPiMfcW4sN2bRqferyKgIqAioCLwXiCwLwJz2JGYmJ5BBHVTEVARUBFQEVARUBE4GgjIBEazdFgmSX410IW37bkj7nH7qyGjPqUioCKgIqAioCJwOBGQCczI+ATLKyssLR/NsLi0jGZx6cjKd1TzTZXraJZHNV/VfFV1QNWBt6EDMoEZHptgRbvK4vLKkQtLK1r5W3fxvbvYP4oyHmqZVlZZ3NhgUdKziMSiQc+iboPF1aOpj4c6r45g/aDmx9Gr89U8fX/yVCYwswvKinpiRY6jFoRhbGJ6Vg5i/6jJt195TAbC/d7/zu8TTs1N+TE+DtmV4JsLEVXwYFT4IpPXKti+x3Sv+v8cNxULFQtVB1QdeI91QCYwM/PKqmZ6ycCXBtGK7GOTXvW8Gc+LZI9PzchB7H+pfGZM37tMz17Z9i7fvWfcIi80Uxjco+AP7OEnfnA6BI77wnft4WeRSB2T8mf5esMr9PKI5tue2Klyv1flWNUHtfyrOvDlOrAngZFEK7i1zvDgAJ2Pn9D9pP+lIM4PTWlkJmxpJOZ9JTCSwcDS1BOqysooSAjge7/zO/zO7/xXHAIyKS0r58HgHOIesxQMmbyMYPjcGb4fiKF2AGlxFb20hX5Ti/TsKQaHYPg9Zww1QwqJURtt8+SViruKu6oDqg5YqA68nsDI9vt12usKScop4W5LK43NTdzdERpbWmhsrCU5LZ2WgWmLIzFvSmDESjZma9jfmpIIqaG74Bb/6zd/g2996zf5jW9+k29+8zf4zd/8Fr/5m/+aL8Jq5HsOnHAaQG/QYrD1hb+MQprbUAiKIDUvhE0MYdHwx74YhlYPDYkRhP9FTJWhMgG2QhZl2OVyYjo2WcrMQibfUOdMaTXJI3dwhAlb5Ot2XIrMz4/NRJS302Oe94u6xLDdSRD1ihIUDVB+xbmdmL6oO+ZJ937ybTvfTXq9QwhT/Wk6ZZLJtEqY6VhvvEH8ye/cfSw9x8aUJlOcpuPtOLdxtlzMTGn+Kv/beG+Xs5ex2cbCqPfbx0ZsXorjDfA25dnuOL+KLG/zmdcSGCGfbn6UlPScPf20zAzUkZJ/X16i/nmhNb8yiWpi30NIxppFkqQdlbH5ZfgqGS5XIro5cn3dsbl5k5u2tkq4eRM750SeLerNQ9REZdVRB99xwdC1JBMTqe0BUvOYQlLmxzAUd6DfEpXaMoZjLhic7ijXDl0lpSjU6pKGOc0KOmPpX1rQsGbynCAWitRoWNlQfOZ8lbw+sGcMoNtYZ2FhgXnNitEL8RbzC4ty/ggWI9Iib9sV7eEsP28DU53B8EKHTkCzubbO/Pwiq1otmoUF2Rni1voa8/MLzC0afbBZup6LvNVtMje/wLoxuyWDHu3Kknxu1ajLW2vLzC8rntnFbYbNVeY1qwom8nMS8wua7XIh9EazoGHd6JlbHGs1iyyvPy8s68tLLGqVRS5lVdtaY16zrMyXMzNhfRs686VxGGBrQ+iNBoGmEXK0SxoWN5Qj8avb0LKgURzkimO9fp35BdlplPKMpOC900WZwFv4QTJt68saNGvP79CtLjJvxFu+TSfwXrEYvPckMJszw6TnlLC4x8KoC+PNZOTfRyt6FBZUAEXG7IfAyIVBP43byU/JaFYsSV+qTIekkCht5RjHf+0bLztz/OC7NBu9UR+ojKLiEwUwJBzOZimkhC0MUXHwB15I1Q8wXPKBH0cjLWzJ16W8LPhpJNKSQbnfUvEXcklLRBcXUD+2ZqxkDAw9qcPG7jLXfZKZQ89YQzzXTp7mzNU4hjUSiz15OB47wbEzAbSNicrHMht8oU+GrXlC3a05dvY8Ni7xzG2s0BDix6kzX+AUU4vJOe1MWzpnTjowvqVUtgeqY5agH7JVZY3wU8e4lalYOtfG7lJam0RvYy22Vsf5k7/4IZ+fvUxzRxs37S5z+vx5zp2/QnB2o+zk02TFsDjshBVpU0dLVhRW562wvRXF9IqOufsVXPmr09y4fpX6vjk0c2O4OFzixOmzFPWMs65dxN/LltNffEH83S70Bj0tMaGcPH2C6wGlLGxtMZCbjPXxU1g7pTCxDsu9RTh//gXHTvnSOqFjfbYR3zPH+ORTRyq6tcLNNzFRVzh17G+Jy2iQHdhbLG5fVS8Fa9jaoDUzitNWp7jhnoJ2Q89wVy1WVqf5O1sXHi+vopseJerKZb747BIprVPolhbIdLTj1IkzhJQ+ZmtLy/0EN06fPoXd7TssbWzSWxTE+TNnuOiUzawWZsYbuHr9JCfPXKFrSMPich9OTp9z4osz1HdMoNtcIczfidNffEZ4dYtF4L03gZkdIT2nmAWFSJuI2kv/86NNZBQ0HVICo4jTV53HDz/+ryS0Kp42La7yeINCIBMYwxhWv/2rLxGYf/CLP6DFuDDxgcooExgdhuve4NNoJDCC1Gwi+UXBv7OG74chTW8+v/boDvzQD2lYa/EEBmkB16Q4ip4pPenN9XFCQsPIKKtncHYJdBPcvh3ErG6L6mgXorJziY+J4snSBg9zb+MWkSF75bWkDoBJP2R90jwhOiOBCWPpn+yuwj60Cr2kJfiqLdU9olFZI9nNih9Yn2BQ6QweemumCYN9/8td1WXSj9lx8ZQDDcNbMFlObKIb8wK79aeccQ+jSwssdnMmLocZwezXpvFytCG8YVRGeN/ve4N64WvHaTCwtbHJ9IRSgeTZXqGkY4zuwjTsbOLoHlU8TddmOpHyYI7N0WoueaVQUxpMVG0f+qWHXHYJor27hVtBhej0G8Q7uZFXVI57cBZLGzqKAjxJzW0gKT6c7vl1eorD8I+OIyMtgYZ+DdOtOTgHRdJZV0lYbiP61RFu2t2kXnZZvXMo0zI7A2+UBwYD0uY6S+tCQSTi7H149GyY1DhnWjV6estCcE6qoa48g+jyUdbn23G/GkBxZQH+6Z1sbQ7jccmTuqY6gqMz2dJvEel0gazqCsLC41mXJLJ8rpBa10ZxZBg10zrm6mK5HJVFeWIsOX2LbHYXcN4vmfu10YRVtCKtDXDFzo22acWq8UbyvGVdVQmMpJh5Z4bqyCupoazAlqIuxTW7OTPm677bcgmMXpn/4llvJCkG9JppDNcC4XdvwvduI7VNKY2ePNxUA3/pjzS6dggIjAavtCRKBxUCM/WwgI9PXiLA3YXrlyPoaq3FOrVUHnqZ70knONwJq8QipkUna6gQv6RolsS4vwVZME16KOvTxiReDsexuuFMSH4LHXeCiax7IDe2TekXKe3op/N+DrV3SonPdGHE6JreFMd78y8TmFnyrxVwv7Ec14h4pgfukp7lrRCY1aec94qgSyyAvtjDhcQ8Jo1YjVRVEeZ2x2JM9F+aZ7J8sDTYTJhzIIOaLTTPWvB0vcXFsxdp7HxCkUcQD4QJjjkSL8cR6uDHvS5B39ZJv5pNTrIP4dX1su70lnsSHniRwKJS2XI5di+E9BgXziUVM6oHw2QNMVE3OROdSbtY8WP5ATF5nsQ65FJRPCLHER0bR/4Dxaz8pWl+yw3nQb5DlL3pngpcbtkRkdeGZrKPROdIWZdWelqJvphGUpE71cOC5MxTGHkW3wg38nsVPKoTLhCYFINjRaeM1YMaH9xDfbief18+fno/lODcZBKtMxkTw3eaxziFhRNyNpE+0RRK47jHpRDrEkBt85hMpDIuxFD/cEF+/iCx2P2u957AKBXzDFcv/RhrjxBunP4jjgfnWrYZdx+F0XIJDBhiY+DTJMQkPr0YQgqKhB+EIQ1OIN2Ogh+GPR9CSkyGn8UirRon+e5D9t1KfiDHoihLC3hlpFErGAkw1pLKJ+Fl8n5rgh0xMSGcji+VjyeawwkLd+VMVC6imtnoS8Y7OtziLJgm7GR9WhkiLNKb4uY+hmZW6KoNx7NMITB14U7ERfrygxMnCfK/xd/+5I+JbxOV3RHrEe9H/+QGfo7McymMruvoykjGxcuNtKJA5CpfOyATmM4l0Vh0cymtFJMzl/uFISQVdMsNuWnipCkPLOVfiDc32k1acCYDSy+a5le7Czkdl02erxstcj9wHM+bsUR6ulDTLQRexf9mEnk54XgW1hnLhhdRAU64ZBXLxwOFwaRFBGIdm43QIP1gPlGhN7EOT6NVtlrdJzTlFumuWRTmDsvP+IT4k9+jrGdmKTi9vXTApnaWvr4O4vxdKWtsItnbF7H4yVJnDZ4OWSTleVM0KKCYIdX5Kv4xPiQ/VKxhuR7XiUxL5Hp+u4zV3ayb+EcFcSFVwb+79BbhBRkknopnVGTuTBsXIsKJPB1J55ToXQ1wNSKBJD8PylqE/VUi4EowdX2K1r49Od/cYqYSGGGi063RWlNIbnYWF4//F06GFaIVC6lZYE94v8qiEJgRTn3zf3ppCOnnf+F7NBkb2f3G99buExXSQBv8gR2G6nHZqiKNjyGNrygWls0VpF7jhF7tBPzIHkNQq2VbX0SjJqoGaRnnQHecEoqoutPA6GgnAbZ25BQX4XjFi5oHPaSE3CQpKx8Pz9tUdz6hON6FqKQs/H38SK5XGq63hvV+Gtt93qMQmEF8fW1JLGvkfnMrY/2tuF31I78gA7vbibR3dlNVmEdmtBt/+bffJvmhqP3eVwIzQ9KxKHpmREWyisvJ/8xfnbVHNrSsPOYLpwAeyNaEXn7qeIusiipKc8OxDXDl6aoyadUS9UC0b/qVMXytrAnPqaChvoH+mWV6GwrIqqoi0fUyCaXtPGhI4HpwIrkJ7oQW3aGnrZCrfiHkp/vjk5zDxMwQPte8yMvPws47mvbH/UQ6epOamYOLdxB3e6YpT75FeHwGQX7+ZDZ2cq8oCP/QeGJCQgitamW+p4Hrnn7kpcbg7ZbEyIbBIq2XXycfRblbX1nkblUJ9xprCLl5jebeYXKS3PFKKiA+6CZ5nc/ovZOLo2MM6ZmRuCfW0ddSg+P1EPLyEnAILWZ0sBM/Nxvy8guw8w6nc6CPSJ8bZOUV4ORxm7bhaapTgnBOzCLTy5PUyke0lCZiE5FAfqAvERnNDPaWcdXHn4LMEDyi45jYFKMXb046vg4eu5/dJ4EpQbPXJN6x5sM7B0buMcl1LdPDjQyJCT+HmLyITJYbHOax/+5vvURg/sl/+JxeY5dvt0K882PjPBgpJFqeuGvonFHIiagYd4aNWQxXvZRPrRf0lk9gBBE2QHttAV5e3njeDuWJRs9STx0enl4UNyrDkmvDbfh5epFW1i8rnDT3hAgPT6IyOuShJcM+CcU7z6fd6ZDl26SuMEGWzy80loVNGLhbiIenH40jSu9XKUXr9DxpZvWQdwK+DsaSYY3Hd3qZ0+pla4rm8X0qKpoRXyZJmxrutHYys2FAklbIS42SMQ2ITd8eSvo6736Xz4pOnbQ5T0loEL6+Pnh53abm6RwjD8rw8PImMa/aOIFdS168J54R6WhkPmagJscXD/9oxpQPYxhuq5LLRuVjZT7NwuNmPDw8yW6VTQkYFp4S7eFJeIoyYZSNKdL9PfELr0LYcsTWUh6Lh4cP/VPKp0vvUnazxC3wltapyYvB08uLyhal3thY6CPE24u44iYjEusUJITgEZzGmPGjrbrcODy8o+gT49LA8H1RVn2pky1hMG+smwrvKbPapPUx4gM8CTMOc4OGnChP/CLTWTbGebcoCA+fEHnYUMRpFkx21E17Ehjd3Agp6XksGAUwovXSn2akkdS8exZnAhcJ3c9XSKaMMAlmOj7M/6JBXV18iof9RT755BM5nLhwg3aTtWOHIhyonELxdRoMjkHw+84YwuuQeseR5jVIE2NIFQ0Y/s4F/jwQ6fGC5ZOXHTia9OfL/gXGO7iyvF6MUrUod1vqkMFz3dgllVj8Zce2fZ/p9CHvBGzLsyN/93/OCIwRAxNM8vMv4GO68vx//+8wU+/XlP7nSX5hT7Zc77xHdFp2Krqx4dv5kJB55yaOdz4il42dN8i47jxh/sb03eXby3LuREvGZucJGd+Xn9l5Zi+85Xl4O+O0ULxfS2DEHAWDXsvd8izSi2t42N1DZ083j7qfh86eHh48aCIjLZXazhFZ6SypIhaZ9iYE5t0poXkqm51Ku3Pf7HkkCpl+HSm7CD52gx+4wA9uwUfO8Odu4FiANGPhE3e/UsNmHj04anqtyqPqkaoDqg68nsAYWbB+XcOjB23cbW3jXlv7S0Gs0Puwf0wxgVtYr+t9JzAWXcgFiRFBt4rU3olU1IxU04U0Y5wPI/ck1EJq0Xmokjizm9FV/VDriPdVB/YkMAKYnaa8nb343fuWOOlVpHFsckYOYv99zWiLlVueE7Nr/ovIJ9nsrFZMFptvKnFR6xJVB1QdMLMOyARmem5Bnr29pZc4akEySCwua+Ug9o+afKo8ap6qOqDqgKoDqg68jzrwwdTMHE+HRljQLMp+LIR/i6MUZnfIs3P/KMl4+GURvoIWn4cFzZHSwcOfP0erTlDzQ81PVQeOhg7IFhjRsAsHhkc1zMzNI8JRle9QyyUviySWRpKQ9MLBpNgTx8Kr89HVSVU2NW9VHVB1QNWBr6cDMoGZ1+xcw2H3zJbDfzwxM4sI6maBCKzMQt4duB4Gf+MDJ8IgrBqMa0NYYIrVJKkIqAioCKgIWAAC7wWBmZyZRYT3eZvo7aW3d2jfE7IPBKv2ZvjYEf7UA1xzILECwrPhE0/4tgNEKr46DiQt6ktUBFQEVARUBA4VAvsiMLrFCe7W11JZ30B1w92XQmVdLQ0dfWzsXPjGgmB4XwnMREcu1p9/zicf/QHf+OADeUXe/+cP/5rPPz9GRFWPeXOoqwn+8Bo4lIBGWUXzeYJ0UFYKv38dAu89P63uqQioCKgIqAioCBgR2JPAGDYXqSxIo7jhASNjYwyPjLwYRscYGXpCSV4aZa0DltXDNwr5vhKY4cZ4fvznH/IXP/ghP/n0Uz799O/4+Iff58MP/xyPPMWxl1lKwvoU/NQRbCte//rGSvhvDtCo+NR5/c3qVRUBFQEVARWB9wmBPQnM1twIqZmFsnfm1wGzNN5Eat59xVnZ6240w7X9EBjDxhLNdVWUlVXyZMrorMMMaX27r1wl8eznfPjhhy+EH/21LxMvOpF9u6/dK7aqfPiuHyyIZewMkFkAEUafHp3N4JyP7JNC0GG723AuT5nVu1e8Zr+uZ1qzwNLmzpWTdHQ0lFPW8JA1kb6tFRrLy2nvV/y/wAbtFeU0PlS86ppdhNcmwMBwXxuV5WVU1z1EqJBu7inl5RWMzMvuLJkb6aSsvJKnI7K0r43taF/UM/a0n0nhFVZMSN9cZkk7x+LoEDXllTTU1VJZXsH4rIZnXa2Ul5VRdqcZ4Wz5MGzLEwOUlZXRM6Z4PJa0s7TcEfVnGcNzSt4PPaynvK59u02Y7m+hvLIRjaIq6JfGKC8vp39CdnEJG3PcKS/nUb9pTqaOBxXlNHQovpEELo/rq6m+qzg9FcdLo22UV1Qxu4evvsOA6evSuDTYS3lZOb1TJmzWaaktp7prdPuxsa77lFe0smYcCZl/9oDy8noWjPDqZoZlvIfmjWCtzFBTXk7vqMkXuo6uxnKq255sx/mso4Lyuw/lRWrFyfnBB5RX1DG722i+/cTB7uxNYOZHSc8uRvg3fN02P9pERmHztrK+7t6DvrYfAjP3IB1rm5vEx8Vxr18plAedzrf/vjFO/M//+CVnjh/83J/QYs4pQd5BYFtqFFcP5WXwxy7gngUfu4BNCWiNtVxtMfxNMMwZj98+SG8xxkU80hIpHTQ13jqa6vPwjAgnJruaZdZoy3DH65YrZ0950jSwwNOaUHxsnbA+4URe0/PK6C0m6u1FtTGOj8sZbnoEEBFXwrxmlFQHT9zc7bjgksLw4gbNZRkEeNrwM3sfBpYsdEz57SHympjWuP0XH3LKPVb2f7U5XEZavh8Dne2Ee97kd7/3I656BNLb08wXNldx8buNn7sL1zxiGFh9TbQWcMmwsUFLTgI+t72xuWBP98QyE1X52H7qRFx0JI9Glhjsq+f6LTdcbM4SWt3GzHg39h5uuNta45pRinZjhVw3X265OWJ1M4aBOQ13gkNxc3Lh7MXbPJhYY6g2HB8bB86fdCK/bZLJniz8b9hw+ZQd0aXP0Gmf4B5NrBO6AAAgAElEQVRsg5udFZ5e8SwcVXXTrdFRkoGnryuXz/sytbhKU00yl53dsLa9QOXQJAs97fhdcsLhhg1eWR3MjfQTdsUFV2cb7MJqWFqaoMj/Bm7ut7C+Gs/g7CwNsY54urtz1iqA3sl1eh9mcNXTBQerU5Te62d48A7XvG1wPneS5IJ2lub6cfF2w8P+PPaJmSzu7KeZSS9VAmMEfrDOHasr10nJ7pCXtzdTfrzl145z7rd/7SUC8wu/+APazcbRdHDZC/x2TdBNSoFf/QI+jnsRg556+MgXhg5D33QRr/QkyoYUArOueYyLhzeR4THUtA/B6hBOoamyfM8q/QhPCsMnNguN6Em2xeAREY2FdGxezAPT0fJTEjLiGDEmcrQjB5fsDvlq/q3rlLSOySsoI00QmhHAowULqOFMaT/w/0VKLkfjZ+tJctsUzNeSlOqJYtud43pIMmMiTWuPuZhZsd3DzQv3xjej68BT+0YvlCS2jFlb7mzLne5pHlekctbKlexaRR9q4m2pE06OpX7snBLJTfakuFtUOhpc7COpbSjGNaNBfu2dYHfSEmK5lVouH3emBZCamMHtxAymBURdaYRGeBCQkEmnMBbM1OEX6U1tegk5FQPyM27erpQOWjjzeyOQd9xs0Bv1Y42c8BT6RwZIjXCVsVnpyOeWXxFF5fFk9QiPyxNE3nAkMS+Z6EaB3hbxtg7kVRRzO/OuHGlZ1CVic9LwTVLwbk27SVx5Jfmesci+roersQ5PJMc3Vunoah9yPiiJsix/cluHgE3cbHy5N2zqqO1I6wHvqgTGCLh+dYqGqkoC3L0ILW0+IiTGEgmMAVwDwLnKiLwEHa3wIzc4GQYfukJ4E2wYa8j75fDjQJi26KbdKMsi3hnJlBsJzERzKt8/50hlWTF+132oKc3lTEa5PE9s8XE2IWGOnEosRB5MGinBLyVWGTk74Epg36/TTeNp83f87NQ53FMa6LjjT1y90mC15Z6n/NEgQ63FnDv1CfHF+cwdcbP+63GbI+9yLv0jnYTdvs2jpmpyC/yQBwDWnnLBJ5JuwWaWe7mYnM+M0cw/VVdLnHf9C17LX/8ec13V012WRnhYBgs6MTI6TX11BeEuNiRVNVLkGsGjCdGgLpBxMZZgmwCaugVV3yDvSh45iR7EVNfJie+v9SA88CxhRcXy8WRrCBlxDpxNLmJcWFWm64iLsuVkdDodgsBoO4kr8CbaNofKIpkGkhCfQNFDc5qV320+TD3I5fxlK4LS65ge7SXJIUbWpbXeDhLPpZFc6ET9qKgzFyiJP41fuDOljxU86tLPEZAYhV1Vp5zIrtoA3II9uVKodCKHmyMJyU0i/nQ2E8LQvTyAW1gYQScTeSI4EBP4xKUQ4xBMffOkPOyfdy6WxocL71bofcSuEhgZJMN2z9fQX4O3bQJHg8uPc+7ffokF5h+b0wID5KfD90NRxhsliE4GW1F5SVBdDqcT2Z505RMKJ9JER+IQbBo8szNoFPW06Gv2FXImShkqa4y/RnxKHJcjM+RrT2r8iE0O5Xp4kkxgFjqi8YqN29ZDJQYL+10eICErAVGFie3Z/USc0prl/SwXW8pbTPN4tgi9bk9pm/krOCWl5vidJ8s6iZF1mGuu49ylTwlO9VcsMGtPOecdQZcgMEvdXNq2wOhIj7Uhr9WyhxINko7u1jqKCx5uA2uytW305HE6Lo+SSGdqBLfQ9WLvlkB6lCt5coM3i4tzNNU12bgkKp2YyiAvUuMicYzNleNrTwkkMyET2+g42Uq10pNKZLQXjpHxNMsWmDvcTvSlJjyblGxhMzDg6uVFhQVYBLYBeYs7kt6ELmR7XiKntpnkIDfEpw2a1izcgkvJyQ0iu0t08kYJt3EjLi2MqHphAtsgxu4WOcU53EyrlVNVHHeF+MxErsUVysf3Mm1Jqi4j9WIYj8Wrnt7hQkwiqdfDuCeiWHrExdBUCpO8yLg3AqziautL86iRdb9FWd80KpXAyIjpacqMwe7mLS44uZLb8nzS2JsCaln3j3Hif/mSOTB/709oNdsQkih1g/B9WwhpM8K1i51sGee79LfBH9pC4WHJj3V8/e349IoTbt6BPJ4Yo9DtGjaODly5kUzf5AL3U524ft2Wi85x9M1q6Su9zY2L1zlvE8Ldp/OWpT67U7Mxia/TKS45uuMTHMXk9CjRN+yxs7PBIaWGmcUpsny8cXdz4GZAGk9MZoXd8bwXx/Nkn0/myayiy+lOf8FPz7oqPHynBWbjGZ9dssLOzQ139xsE5OQZh5ksFyRJO4jLjz/mhqcPXh7e1Dyd5VFRGNfd3HC5dJ6WhyOMP63F+vpFbG0vUvKoj7mJLq7YnsXu5jlS7zSzodOSbO/MTdvrXI/KZ3x5hXJfH65es+FSYAL9Gj0DlYHYnL/KhevB3BteYqo9Bftz1ly85EtBzwySph/7WxexvXyO+Nj6I9LpfDnfdWsasiI9cHd3we+WL2MzS9wrD+fUZTuc3Ozpmltkvvc+NqeucNXBgeimQZZHHuN69hq2drb4lnayvjxFqtd5bO0csA0rZ3ZpgfLwa9ywteOqVzpjyzp676dw5vo1XC450N49w8iTcqxsLuB44TpVjcMsLzzGxsEaextr4kurlY8SXk7ugZ7Zm8DMjZCWXcLSrjZmdyoXJ1pIL2g6tJN4VycGqa+vo7X/KH2yu0qi3cd84+8ra8B8IK8F83P83jEfJsxt3q8pg9+9AXGtu1VJOe5ugw9t4EaJ/KHSl99keWcXxp9yr6GOuob7zImJ7+uz1NfVMTpvLEAbS9yvr+fJiHFOj7ROe0M9jx6bk1HuF0cDE8+6uVtfR8P9Vrmsr86LcnOPeeMk/5GOZurq6hlfOQyTrvcr91e5T8/y9BKbwq262DZWmJmaV4aGDDqm5zXGUVI9w30PZB259/D51x9f5Y0H9oxhg6GHbbIe1NU18GxhjdXZIVmGriFT/WlguKuB+o4n28Nh0/33qL//CFPVs740Rn19A5NGXZHW52ior+fZrLFnb9jkQUMDD3pNX+wZ6Gu+S1O7sAIo2+LII+obGo8seVGklBh+3EFdXR1jS0b0pCU6Gut5OPS80/Ost5X65t7tpUwmhzqpb+jYbpPXZ0eor7/LjPGjI2l5hvr6ekZmTDmySW9TPa2PTZZUA4MPGmh82GeCm/nBFuob2yyCvIhE7UlgpKUJ0lIzGBQDna/ZhjsrSS1u2VbO19x64Jf28xXSgSfqAF/YereCnJwcORRW1FrIaIwEhcXwhzbwswhIboCGh1BWD/ZR8G0bsCmE1fe9ITxARVFfpSKgIqAicIgQ2JPAiMkH/W1VxKdlU1pTS0XtHSru7Ai1dZRWFJOQlkPfpOkbdctC4H0nMJaVG7tS8+wxeKUq7gP+zAn+0gOuJEPFc9a/6wn1UEVARUBFQEVARWBvC4yCkYElzRzjU9NMTL8cxqdnWFp7vYXGnFhPTM8ggrpZMAJrWpjVwOJh+FzagnFUk6YioCKgIvCeICBbYBYWl460uLPzC4igbioCKgIqAioCKgIqAkcDgQ+mZmYZHZ9iZXWNZe3q0QsrqywurchheeUIyncU80yV6eiVQzVP1TxVdUDVgbesAzKBGR6bkIFdXF7hqIWl5RWmZufkIPaPmnxHQh5BMjc2WdzSsajbZHF1Vc0nVVdVHVB1QNUBVQdeqwPyENLsgjL5VjLAUQvCUDYxPSsHsX/U5DvU8ihL18mf/RmmpjD0jGB4OoVhyyCfE2sqHWr5jmB5UvND1UlVB1QdsBQdkAnMzLyydKheMvCqsJ8Ev+pZc54XpGV8akYOYt+caTnwdxu+fAkVsTKFwWBmLMT7BUFpbcFwMUxx4vhdB/jQBT4NwZDYhF5nkO85cNxeUw7UtLy6jlCxUbFRdUDVgYPUgX0QGNHsg16/xdrG5iuCTnHiZoEEQaT9fSYwct4tjpLu64uPbwxdxuWfzUpgZPKygRSTAr9nA1fSMVR0IvUOIrU9xBCaCX96E75IRppdV0mMSqjer46Hmt9qfqs6sC8d2JPACP80UwPtZGTnkFdWQUF5+a5QQV5xAemF1YwvK8txHiQD2+td7yeBEVJDb4kn/+e3vsVv/to/2/ZI/Y1//q/4N//m33AmSnGkJh14QRGWFwNSdhb8rj2GkicKQRHkd2eY7IefOsCJDKQN47UDT6vam9qrfKnXVR1RdUDVAXPpwGsJjJiDoF+ZJjs9jQdDc+i3ttjSbb4YtrbQb2p51FhAZuUDeSVeg8FyMnT/BEZp9E2/5sqQt/VeyWBgfrAJfydHbO0dcfXwxMPDHSdHe+zsPSh9OIa45229b9/xCJ2a7JMtLIaUPoW0rK6g124p+wYd0vyysj8h7rPFkNyjHFs8gTFpz/Phuedu2MAgKXN7THcJ/HdeF2uu7xtHs2BhSrnyb3gh8Urad95x8OTYDPr8ynx4joTI011QPb/4JXuWrQMKxjuTLfJ5t3xiysHObYc/Qvm0kHHnJuLYeealOEVdtfMGUY/seulhwO2rpnEnViKOnaLL7e1ubHYf73xADN1/Cf4v3GKcv/fie3ceWUZd9VoCIzDYnBmWfSHt5dpkebKF9Lx7rIh5F+ZoGF9RkQjI9zOEJGaLPGwsxMnZhcK6IblxF5n8VRXO3M8pyriA0+/9R375V37lhfCv/u0J+oz+MA48naLwpCXBX0Wh1wnLyhaG4GjZ47R+WYuUlgk/iURaUAiNISQaPk9CL1thLDg/BBmR1rnb1Un/gk7WH1F+trSjhPs54xySjfBasjXxkABHJ0LTmhSXDksDRDs44h1ZwZJkWWXnBd0Q8hnWqcgKx8nZGa/AbMTU//HGIhwdHSlqmUQ0QZ11WTg5OZFR+ViuZA9zGXpB/jesCyTDJtWpiVT0Kb67Nxae0vOsjcG2+3g7O+Po5ISTsxsP+p6Sk6Rg6uQZQtuIcFFtGY3Dl8ovGjZJ4mljCU7OTiSVtMgT7VeHHhHi4IyzswtNAwuy/hck+OLgGcbTZaU2qs2NxNHJh7bJVVnGmfZqHBwdSa95KpOX1f5WPBwcicp5oDTQy4PEOzjiGVqCRhQmwyw53i44eqYyLkdhoK06AkcHB5r6lXW+vjTNb5h3lhWH6PhIDNQUyDqTVPVQxmprcZQgDyccE4sVv0TSJrXxQTg4hNG9oEx+7MiNw9HRm/uDyuKg402irDqRe1e4CYfFvno8HJ1IKO6R45Q2J4gPdORWSBpLOtEiLpMb64iDdwTjonIC7hfH4+jgTuOI8uGPubHam8DMjpCeU8yC0VmbLMWX/MyPNpFR0IT2EBIYIc5MVyt+8Vk0trQyPKWVGaq5M+frvF9WN8MoZ771L7aHjxRnjh/w9/7HD2k2Lkz8dd7xxs/Kc18kDI63wbVGsaogoR/ow/CpF/zQC/7MA0NOD3qdpFxvqYS/CkAa37BsK4xQImkBp/ho8geUCkOSlsjLSiK+7A5tvYPopAVygp0oLK/E44oDOY1d1KX7kZlbQpC9E8HZTUpFYoEVrqxPy8/w83ckq/4hXd3PmBl9iI99BJVV+Vy9dJu24Wla6xu4d7eMaxfcqO5VFsh8Yz2xQPnfSAa596sl+MOP+eSsOzNroBsuIib5FiNTE7RUpfJnn1oTW36fmeFWPnXzpqC+kYayLM5dc6RyVGng3+idB4WZKMNr63TWVVN/vwHfc+ep7ZvmSWEWty7H0NrezuzKFu21MTjHF1CW4oFtYim9D4twjEylKieYi0GxjM6MEuQYRnllCTcu+dDY9YRYz3CKSspxueZKWdsojZl+pGcWEeZ8i4iCJtqrYklIyCLZzwe32DvMDjfjHBVKZX4MN2+40r8qs5xD2+n80vwW7emGlicP27nfUoPzGWeeTMxSmOVLcF4V4f5XiWjs5sndCnw90ynKjMTOK5+ujnt4OydQUZrMVbtEng51k+DrSkVVBdesb3G/t5fsoFuUV1XhcN6Omu4JGkoj8S0oI9v7GoHZDbTfzcQtI5uSMEdcI0oYfFKFY0QCVYVRnPcOZHBVITVfmu4D0keVwMiVjY78sCBsbM9y/ZodDQ81ckNizoz5uu9WCMwYVr/9qy8RmH/wiz+gxWwERofhihf43jcSGGV+ixSTAL9+An4UjSRbZozzXrpq4SM/pKGVQ0BgNHilJVE6qDRAmuH7WF25idtNG25HVbM43sWVmEKZ/k+1RhIa5c6NuCLZMrP5JA2fmHCL6wCY9FDWJ+0wIaGuZNa00j0yR29jHN6Vj2R57gRfIe/eU3kfNHjeCqPOSORMcbw3/3KdMk+xTTZpEVF4FzaxNXOX5FQv5O89DeNc8Y+jXzgoX+nlYmqxbM0S4LXnJOMTeM9iiawpD5WM3iTTzpmWZ4sM3svli2PW2HmFs6DVUhZ0i1bZMfUkvjcSiPN3p65XWEnWCLZJprAgFp/SRjmajhQvYkNcccuvlI+flYaQGhXIzcRChP1KGi4kKsIWm+hcHgoD1VIzYSmuZPkXUFqmeE6+HR5EXvfeX9Oa0n+Y/sVoj1YzSmvzHdKz6pgYe0yyny8CTW1XPb72WaSVBlM4KBRvjgzXKwQlBZP8SPFUXeBzjZisNNwLH8j43s+1wz82FKfMu/Jxb6U74QXZpNukMCqimO3gUngU8TZxdIt2Qv+M65HJpAf7UNk+KkxhhF4Jpc4COigqgZGzcBkH28uE1w0y112B9y0PJowWp8Ok6DvTarkEBgx+IXClwEhgtpAys+HbtzDEVmL4xA1OpSMtK0NIUnkB/G0Y0rz+0BCYsqE1WauGGhL4kVMU80sa8rxdSU+O5lRahTx0NNeZSnCIA8fjCxD1/NazfHwToliyMAumSadkfVqfwMvpJBcd3Iksbqe9OoCwOx2yrE3J58lvHYT1UWKio8gu75blfC+HkGQCM0fW+XSGl6bIC/AlOzuLvBJ/mayiHeC8VwSdwkC12MOFpHym1mUYGaotJj7svjyEIuZMmfC3pH+hC4aNWYpCQkkvv48x6WysrtCcFYJzRjF5twJ5MCYY2ixxl2MItvWmsVM0ueukXM0mK9GT0MpaWWjxsUHo7fPcLiiWj0cbQkiLcuZkQiEj4mXjVcSE3+B4ZDotArOlDmJy3Im+mUVZ/ojcoEbERJP/YFZ+3pKwehtpEeo087gaD69bBEWn0d3zgCSnCFmXlrtbiLiQRkKBC1XD4jOIOQpCz+Id5kJer4JHVewF/BOisClTOhsdFV64BXtxIVchkE8bggjOSSTuRDpjwqWhphf7sBACj8fROyEY5AiusYlEO97mTtO4OEHK+SjqHpl/2E4lMHJls0ZufBC5LWOsPruD4y17xoyl8m0ooDniUAjMKGd/60ssMP/o+zRPKxXmgadNqH99KfyhJ9KoMiwklVVjyOlSCMpgL4bQKqQ1YYHZxHDJC64UyxP49BY0t+ol3ASc0gK3EmMp6F+W5wnMP6vlqm8cazodaT7XSS0qwiUwkLElLWWpHqQU5eMT6s+D6SVaigPxSy1QGn0LlFPWJ80TotJilUYFGGnPx/Z2IaurCwQ6eHLv0TMKM+Mo6VbmfbyX5EWQDrlOmSX1ZCz9i7A5PsCZY9/mirc78uDiyhNO3QrmoZhGoOnidEwmExsSqzM9ePpac2fQ/A3DS/ptJFPCGiBtLFGUGEdRnTJ3xSDpmZ0YlWV7XBLKjeRyKtM8iGuaZOVpKQ4h6ZTnBhBc1snqTDP2PlG0PWzA0TsNrXaJGA8/CotKcPGOY3ZxhdzQ2+QV3SMg0o+W8UUeVEYSmZZCZHwoxV3TjLTl4JWSyKO8fPxia9EuDOHk5MP9WcWh8KvSfhjPi4n+G2vrLCwpDVKa01lyGzpICHPm3vQaXSWB+GU3UpkXRUThAJqpZjydoikqTME3sQXtygCedsE0NFZiH5aIdlVLRMBNCqtLcQwMY0m7RlqEHfktrWS6+FM6vMREVToOKYUU+IWS2jbFckcZNqH5NJSG4Z93n1VNN/auPjyaNz/eKoExzujWzrbhefJTjn/hRP2DOYs34e5VGBUCM8GJb33jpSGkD/7hd2mdMx+B0esWMJy6BadzkLaMQ0XCUrkrSAU58Pu3MDxcsGzri6jcRT/QsEVSpBs/OX4Gq8s3eTi1yMNEH744dQrngHrm1yWGayI5eewE13xKEeV/oSOTi58ew8ounaFlvbzC4F55a47rQp8MWxoivM7z+SkrLtm5Mbm0Rqm/GydOnCTk7gBr2qdYHfuC8xcvYm1lTW3vtPkXTDSHFUOeQ6mh0quYQWMl35rsgI1zlPKV5too3vHZ9K+AQTfBjRvWnLK24uLNGxQ/fGrRk58FN5O0w/h88lPOXLrEOetL5HZN8rAohGNWVtgJvZjRol0awPbKZxy/eJ3OyQV0G/N4On3GiTNW1PWJXjzcCb/N8RNf4FnUjBh07cqI5bNjx7FNLpcn7S515nH5k885a5OEmIe6NVaH4xc/45hVCB3zoqwsEuZ/geOffkZZzaBF4/ZVy6wod7qNJZL8bbCyOk1QeCar63qePSzgi2MnsfEOYV63xdbcEK7WZ/jsvAPl4ytizImwG5c5fvIyGd3TIK1zJ9qe4yfO4Jfdw6ak51GuD8eOn8Qp6i5aPcyO1HLu9DGuXPViclbHynInNy5/wlkrW/qGtEj6ZfzdT8rlvdJC9HRvAjMzTGp2MStyi6g0el/2uzzZesi/QgJpcxPthmiKLPgrgP1WyAbxTYiO1pIg/t///Tf4J//0n8rhl7/577BLuMOSXiyHbSYTtcB3sAvDhzfgVCrSoGYHeTGgX19EikuD/2KDIfmRcs1cad0v3vJ9onaXWF9dZUW7xqaxzGi1qzIhNpWb1dU1tnaUp/W1NTaFtd3S9U70vvV6VoV8QgbZ0iChXVV6h+JQt6VjRSvkX2VDTMR+I/zMpI/vKI1yY2+M25T3Ch7KkWyhEmRnS4fQEe2GohQWb7kyGNja2pLTLPJ5Xc5nST7ekHXCKJ9ufVsm+bR+A+26ouimr3i1q2tK2TA+J8qGbMESK22CbH0wlQ1xRrexwZqxYMk1tbSFdk0Z77d43L6ingmsNjc35TKltE4KvptraxibKxnDLf0mqyZ8RVVk2EK7uinfvBNvccIILwJ/WeuMJ7bW11jb8b26tLnOqk55q3yftIl2TbG8WALeryUwIsHS6ix5GSnc6x1DKNfa2iprqzvC2hqry/M01+SSXfMIIdph/IxaVCxCXlFIjk6lqyj6mnaJmdk5OcwtKp9pCg02n5yKtUV62ovhpCd8xwkuxmHwzMDgFAMfOcOfemDIM67/Yta0vhlOoqIQOiTCdgMlVybGeEzXt9d8eX6/+fJj/zLulE8uM0Z5TJWZSXZZ/kOUb+8Ce4HVdrzGdTVMxzuvmeodgZnpuqX/70yz3BF6Sa9frk9NumOSzXS83ZEy6dI2bi+XDZN+vRTHVyQHpngs/f85ViYdMWKzjdWr8TaVzedxvFgXbeNvXItnpx6a8tmEz3YcFoL3awmMSLSAaW64k5zcPHkl3sKKCl4MleQVF5JdWs/0qvzxuEUVQtGE72cdGFMGHb1/hcTs/N2psOaT1zhktKVFuteBwSsJw5kwDNeTMGS3Ik1rn1tlLKSwmA+r/RMMNY0qVqoOqDrwvujAngRm52qHW5KBLw/Pm0dLA06kbGxymrFJ5bthS0vfe58e0et8VVCJi0V1Bt57XVX1UdVHVQcsSgdkAjM9p6ycuKWXeFXYs/LSG1757KviPIjzwtqgWVphYVF8GWKZaTwIHCz+HTvJ8Wv00OLlUNNukfWAqjevrttVbFRsDqsOfDA1M8fToREWNIvMzi8cuTA3r5FlmpmbZ9a4fxTlPNQyLSwyu7zMrHaF2ZVlZo+oLh7qPDqCdYOaH0evvlfz9P3KU9kCIzJdMogvBo5eEH47pufm5SD2j6KMh1YmMcnTNHy0pEE/NoN+ZtcXSWqeqTqr6oCqA6oOqDrwJTogE5h5jeKY6flMlqO1NzEziwjqZoEI9PeCWzL8nQf8d0f4kTtcTISSHgtMrJokFQEVARUBFQFLQeC9IDCTM7OI8N5uhmXq0tNJTy9lwuiF2vxY6CG3AL5zAz6Phox70NQF1Y3gHAPfsYGreaA1LpBi/gSrKVARUBFQEVARsCAE9kVgFsd6yC8oIL989yfU4riS/NJi8iobWdiwzMbmfSUwT6uD+G//13/iP/72r2+vxvvP/9X/xn/6T/8315Pvm1cNK4vhd20gWfGl81JinjyEj27C5SLhekPdVARUBFQEVARUBF5AYE8CY1ibIz8rlXu9o2hXV9GurLCyI2i1WlaX5mmqziG3tkv25fLCGyzg4H0lMLN9VThdvsTFy1exc3LCycmBa1cucfHiNTLuPzNfziw8gw9tIcJIXoT76W2SYoANZaVHnj2AP7oJeSYvx+ZLsvpmFQEVARUBFQHLQmBPArM1N0xq1n5cCbSQlv/cM6klibk3gTHQXldAQEAAwcFhpJbelX2WWJIMXy0ty/j9+bf59//+378Q/uN/vsyg4jD5q0X7dZ/KTYOPwkBeAVwPkYlwrQD0OigtguPxyL4OxHv8wuF4KhbJjF/CYZPOZwOMreywRG7NkRkbQGBSKcKRLovPSAgIIL28W3l6fZLsgABis+/Lq1i/FKVFndDRXJFBUGAAEfGlsv8aTXcdAQGBNPZp5JRK+k3aK8poGniPh2xlJLZorSihdUyZX7i1PM7wZB8TXR1EBgYRGhJCUGAwfYNj3ClKJzAwgICIVJ5ptpm8ReX87sQIB47dd4tpfCTcFavbu0bAIG3xsKGa+71GL7zv+oWHJP69Ccz8KOnZxSwo7iZeKdb8aBMZhc3brtVfeaMZLuyHwAx0NVNQWELw9WOcv5l5ONrLPbEc48xv/PPt4aMPPvhA3v+5X/gebWZrXwxwKwBcqo2pl+BRO3zsDp8Hw1PsDE0AACAASURBVJ+7QnQrGP3C0FQBPw6EKaNVZk+ZzXmDBuekGIqeCdd0wqXGKuVFaUTlFVHd3MWGYYmKKCdSUtKwP+dEWfsz2vJuEx+TiNtlR2JKOs2Z+L3fvTqMn/c1onLKqal7wPxUHyF2gaRnxHLpajCDi1t0V5Xws5/8lCslD/aO70jfsUrg977Pp5d9WdHB1nAx8eluDA8/pSwzlD/862P4pxcx+qyVT51cSMwvID81mvM3Pbg/q/ivsWR4nt3N4cZHP8HF08xD0ZYM0ltM20BdNtc+/An+QXffYqyHPyqVwLyQh1ry00VFvNNl1gs3HLKDcc799q+9RGB+4Rd/QLvRG/XBC6SDK17gt6viS0yGX/0CPo59MUk9dfCRLwxpXzxvkUeLeGckUz6kmLe0k+1csXXCx+UWsdnNbM49xiY6T075VHMY4bE+OMYVIvrour4UfKIjFKOURcoGaIeIir1NXc8IU0trDDQn41mmkK7q21cpah5C0kvUlYdhV/a+ExgNZTYZxN8OIbiqC+bvkpLmhTKHfpprwYkMi3xe7eNSRtl2x+9+ejQ+kS2WqgHb6RIWmK6MHEJ9GrfPqTvvDgEZ77h4koLq391LDmHMKoHZkWljdbkER+bLa5PsOH2Idy2RwAA+wXCz1IirHkpL4I9cwDcPfnwLrhUi+3cXd9wphr8JgfnDQCpfJDCj9xL56GYgz4aekeLqQX5mIqczKuTpPou9mYSGOnAyoRDh5MIwVIRfUgxa4X7MUrfNKbztPuPkJRv8s+/Tccef6DplHlNr5nnymvvklNeXBmNb+r4TmHlyLmYxohkh3d+XyrJCCkr8ZbLK2lMu+ETSLfyqLvdyMTmfGaOFe7y+ksSge7IzUEtVA1O6ujMzCfZRLQImPN71f1d8LPEqgXkBZpXAmOAwbJKVGkR+hzxTwXT2kP+PYf1bX2KB+UffN+MQElBdAN/1NZISA+QUQYyx19nbDu6FsCr7RIWbfnA+X3G9avG5ocE9PYmqCWUew+KzKi4FZ8ipLgq+RkpeNvYhkawY4F6+F8m5abiGhfN0w8CT2lB8kzItmzwv9ROflYTJeDfSloV9eJWwHxFl70Rd97ws651Cf64VtVt8br3bBM6RcSaBQS2sP+vmzMn/jlOoF7Jtbm2Asx6hdAoCs9SNdXKhYplZGyco8ByVT8w2vvtGkDxKTcPfQ7UIvBFoX+Pmh9FRxNyu/RoxHL1HVQJjzFPD6jjZvrcZ2mOuz+FSgQlO/OtvvDSE9MH/8Me0KW2NecTZmIGfOcKNste/v64c/psj3Fcccb7+Zku4qiMq1Im/OWHNhesOdE3N0xzmzEmrs9i6lzO5oqO/1J8zJ05zyT2PyTWYaYrnwmcnOGOTwOM5C1e+rTmCXc/whdUFrjl5Mr24RJ6HE2fOnMa7pJVV4/zTppp4vO8YJylbQraYJQ0aSpxyGZxXJnTXR1hx7kaQQlDXh3GKSOWJGBXdGuP8lTOcvXiBq7ZXybjXYdkkdgeWj4uKiY9o3XFG3X2XCPRlZpAV1/wuX3Ho4t6bwMyNkJZVwsoeFvzlyRbSD+1XSMKGr2dr3ZLt919FtzapSXbgt3/9l/j5n/95OfzDX/oVTvnlsLBHfn6Vt73RMz0t8MfX4GYhzO9uuDegsBh+7zqENr1RtOa+WdpYZXZqkonJadblBl1ianKSzR2qNTM1hXaHri1MT7G488slcwvxmvdvri4zPTnB5PSM0tBKa0xOzjz/Ch6QJL3ssfY10bwXl6QtCcOOfDfo9cahIcWprOnSxoqGyYkJphcOwzyv51lnEEu7601SPD+v7r0bBATeYo6Zuj1HYE8CI2mnyUpLoWNwDr1ej6TfQr/1PEh6PfpNLY8aC8isfGCRX+/s/RXSc0CO4t781Cj9/f1yeDZiQZ89PmyDv3aCP3EDp0yIKQUx5PJTD/iOE8Ra/mTGo6gvqkwqAioCKgKHAYE9CYyYfDDd30paZhZ5ZRUUVby4Gm9RRSV5xfmk5Vcysby7J20ZELzvBMYycuEVqdDOQ1E93IyAn/rC6QiIugMDppkWr3hOPa0ioCKgIqAi8F4jsA8Co+AjFtJZ39hgfWOTjR1BPreps+hZ8xPTM4igbioCKgIqAioCKgIqAkcDAZnALCwepS9vXs6Y2fkFRFA3FQEVARUBFQEVARWBo4GATGDGJiZZW1tHq109cmFFu8ryslYOYv8oyqjKpOarqgOqDqg6oOrA+6YDMoEZHBljaXkZYYk5amFxaZnJ6Vk5iP2jJt/hl2eZhZVVFnQ6FqQtFvQ6FlZXWVDzStXVI1gfHf7yevTaCDVPDm+eygRmTqMMIYkP4o5aEIayyZk5OYj9oybfUZAH3Sq0PoL8JqjqhGmxwpeaV0chb1UZVD1WdUDVgXelAzKBmZlXPMnqJYO8fsNL/+Lt+9heeu5V8R3geZHs8akZOYh9S0zju0rTXisGvKv37itekRdbq0jp+fBDV/jolvL/Ixf43i2wzUOa1MprjewrvgPUKTU9r6gn1Dx4r+oXtRyo5cDcOrAPAiOafQOLmnnGppSveUxf9Zj+xXnNquJB1dwC7X7/+0xg1rUaRodHGGir4trHH/OXf3mKjKpuhodHmFlaM19lK8jL5gIGW3/4tguGmEak/kmkxSWk6Qmk2vsYPnOF/+6P1DOnkhiVGJhPV1XsVexVHbBYHdiTwAg/J0/aq0nMyKX0Ti3lNTUvhju1lFWWkJiRR++kMhS1m0SY8/j9JDBCaujKd+Rb//KX+ZV/8Uv8/Q8+4IMPfo5f/KV/ya/8yr/kk2Dhw0asmnrAvQgD6NEhBUbCH/lg6DUSFEFqdoateQw3feCjCKT5LZXEHHQ+qe+z2ErbnPWp+u4Dri/VcvjacvhaAiNGjrYWx0lLy2RIo5MbvFf9DHdWklrUIruFNxgsJ5NFevczhLR7lOywF1TJYGBNM0iavw+3XN1w9/TC09MTNzdX3DxjeDi2jLjnwOUUJKW/Fb5jj6F2UiYm0vAw0vCSQlLWF5E6h5X91Sn42B6Df7NybI70vlEF8rx0mHB9fkYhizuPxf7h0rtdqTfwggsBcXX3SucmHN7HfxNasuzGg935vftY3GZJ9eer8s0km/y/Sw+E+4Tdcu0ezpZ2ndjpcsEU5+44dh/v9mJw4J2xN6obvk5d+wLacr394pmXy+EueJF2gfcS3i/l2Jfk4a44LAHvPQnM5swwaTklLCk+yXbjtn28OKH4QhKedi2pAIoE7kVgROauz3fid/kMpy760j67IfsweVXhPQznFQWe4ty//eWXnDn+/W98RIdxWZwDlUW2voAhJgY+S0ZUQHq2MARFwl+EID0ZRfIKhx+GbVtdpOQU+FkMktZooTmwSuMNKxyh95KWnPpa2qYU/RHlfWHyIc52F7nsmYjwMbzYXYLdWStsvArQbMDm6F08Tp3hgl0Cg0uSKDwHTyr3gakoIwb9Mskhdpw9dwGboATm9RL6hRGiblzi+CkvWmbEMPImrQ0ZnLt0lZCidrkusISK7qD13GBYJ9XFnui6R3IduT7Vwd32Eh7fq8X23Fl++unnnD53heZHnfj7OGJ94QLnr9iTe++pQtb3kScHKpMpPYKsbOl5VJzEuQvn8IrIR7spsdTZgP3nVly+fJm6vjnW11YI9brBmYs3aRpflt3PJIe7YnXmAsU94zImTwpTOWN1Bu/kJrnjO9NQzOUzZ7EPKmNZAt14E96nTnPuRgzPVkBa7SP80llOWvvRMSHstWsUpDtx9tQXFNQ9lptgs2Biwuad/Ityp+NRfgJW56zwjC1nUw+akUfcuGTFCa8wpnRbGFYWyHS15dRJeyqfaWFjncpAD86euUxWyyQGg46egnCsrKwISH3EpmRg7G4al62suRVWy6oOtJpuXO3Pcu6GJ6MLG2zoxgn0OsWZ87Z0DS0jfDFlx/7/7Z13bF1Lft8fAjgOYmwMpPxhGzAce+N1ECBw3LCJ43VZx4693vXaW7zrbHad994+taenQlKiSIoSi9ib2Hu7bJe9UyyixCo2kWLvvfdOiuXeTzDnXEqUKD1R6yfykBoCw9PmnjPzne/MfOc3zZNLn14ivWlAabwcN95vFjCzIyRn5LPwhl0C5kdrScmpZe3ECRiRl4xUBLiQWdRCW2kujj5lSiFykgteRcAYx7j0lV86IGD+5b/5DvWmhYmPlIB7guWmN3hUqAU1RnaXZzHaBMD/sIZv+WJonmFXVOSiRf/kAfyDL4bRdW0X7IJGhgUcdVHk9Kub8u1szxIbE0XqwzoGpxdgd4bIu260D42Q4G6H7l4ZWbEBPOoYoCDUDY+Ye5rlncKnpV5CYgLpX9klV2eFrrGXstQEdLkdtD1IwsE1g5GxNu5GxlHd1M7c5g7Gd1Koa1PkPctLSkt1lZh/vMC5c3Z0zoFhrIDIOCemNjeYH6rhJzdceNg/x9OZZs4GxdA+Mct0fxPWVlYktarbaDx7n5YwNMLO5lMGOjqYXpxFZ2lGYcs4HTkpONkm0j2iWlWr8zwJLGljsDaBa4Fp1FXq8M6qZLSjgKvuQXQNduLmlsjQ6ADeVq4UVdRx10tH98AwUU4upN9vJTfej4qWPkqifPBLyKE4K4r8ylYasqNxCEplsLkMz8RsRnqqsbGy5bGyQ63GufG2aWk0YthaVzZMXduYxN/cibbhcVLinclrH+V+kjMeubU8Ls0mML6evpZ72NlGU1FZgldQKcODNdy6FkhTWz1hAaEMjw7jbmlFYV0NsYF+DIyOEnzrBtl13RTrg9G3DtGS7Im9roCKnDjCq9oZKA7nhl8qrY9T8EgtYqy3jKuO7rQvqlaN4+SpFDCi0QsMVWUR6e+GW0AUqeWDSgvhVAiY3/rlAwLm53/xOAXMNkYrL/CqNgkY0e2wicErHP7LVfj7YAwTm8+ftTyE7/tgGNb4jCRFwCzioY/n3uC6wp/ZrhI+/OwazlbXuWmfxEhXPVfjC5S4zbbGERzmiJmuAKEltwcy8NGFs6KxBsBe4aQImI0x7rpdwyMkGkefMPpnxolP9KBWTGJc6yQj2Iq7MTouWtzA5vI5IhKeIGwyJzkf7cX/rY6KgJkj1zqbouxUnBJyWB2rJinZA8XwuTmIuVcEHULnLndgFp/DjKmHvq8wFz/3cqV1q1nxp8QPWB8i+pYHHZObTLaUYHbZjMvmt+gZnaTAy8tkJZkh3DKWMGdPqjvmgU1irVLJSgkgoKRKySftOR6E+1vjnVekXI+UBaOPdMMiPp9xkR/Gi4gKv4lZZAZNYpjlSiOR6a7EOWdTfG9Y+U1wVARZLeL9p2+mqbB+LgzXExsTQmx2A3OT3cS7BiJiu9peS7BlCgkFXhQNi1w6R5bfFe5GeZHWoQrhorBrBCfquHOvVcGnscgFjzBfbDNqlOu+yrsEZ+lJtEhmTGiShQ5uhoYRZqaja1pk4FHsoxPRedzlYcOY0uDXWURQ3vqG2ctvK9Z+Bv9SwIgMYlgnT59AdHwKyQlxxCfmsbqrra6wtypADUZ1bIKwwGhOwIAxOAwupppEyg7GsGj4C08MVW0Yb9yFH0RgWNxWnhsyUuEn4RiWTRaZn4Hkb4vdz+RfFAWGRTySEylRSgEYro7jR74ZSiFREW6PLjqYC/HFStrMNMUQHGzP+agcRBmx3ZuKV3QoWuuC3cNCETDro/h5WxOWmklMcjq5eVVEpbhRtyQETAdp3texueuDX40oWucJsb5Eu1rGabJbbC9uX/jRJGBSryQxur5KZUQIQeFhZNzzVyod1vq46hFGq6iMlzowT8hlTpgbgY6SRHSJTUqjSqvCT3BhfWGQZO8IKjqHXxg9MfEoGfO4TLLcvGhUNr6fJuBGNMGOLlQqZNgk3CqZdL0vdwvLlTi3pLkT6nMD96x85XqoJAh9qBufxmYzKqrLkQKigq04H5ZCvVgiaqme8BQndHZp3MsaUX7jHx5MVuspFTBCs022k5WdTGhQIFUNDSS6BCCy1krbI3xvJKPLdqVwWBBvjgzPq3iFu5LSrgqYAv9rBMZHY53frGDVkOuIR7A3ZmmqgOwp9SQoM4HYcwmMCR7Ot3AjNIjgc1F0TgpFOMStSB0xLp6U1onuPyMR5qGUtYmMf7yCUQoYkeY78/g7uJFUNcZYrQ47y5tMKC2ik2uOVCoc4ygXf+PgGJif+9d/R62oNY+DfOKbzRXwdUeMzUuqSGluxdA0oQqapUmMJa3s7sDu7hJ87Ijxjtqlp3QraVrALOEY7kfYw3YGhoaZHqnnjoMnLZ2d+N22I6fiEYF+d6hsaiUq2IPsqhp0YS7kP2oiLdqH0LwqRdxoseJS+LTcR0C4N42TC1SnJBIQW8G91EhCE2uoKkngblQpNQ+T8AzKoO1xGVZWLgxtiPLu5Oajn0ncKAJmloRPIukSderaLNd++lU+tnJAsc2tdnPGwY8novxfbudjnxDqegfofJzHbc/rPJkToB1vxfC6eAse7K5PE+XkRPL9ZsbGJ5lf3WSotZYng4PcD3fEO72C6oIA3NOraHkQiXtCLjUPdDjo8mirS+VOaBw9g6043wqhpbUJD9dAymrq8XYMoK6xmWAfX4qqe0mMciGr4jFZcYHE3ntATrIfurwqHmbF4pNVyHBVEXb+ibTWP8DZPpgOMXDmlHFNGZ+5tkp3ZycL82NE216hpLGLxEhHkh61UxR3h+jyVuoKEvAMuc/juiycfbOoeZiDk0cmrS2l2Lsl0N5ag7OXJ61tbbh6uVPVWIu3tzNNre34+TjzsKOPvEBfwsubqI0NwT+rkgfx4XjnVNGSGYt7dCkttXrsI9Nof5yLg28g/WtC7Rxv3pYCxmBUWhBbo904WF/DwuoWzf0rSkXyukx8Eu6rAmaaq7/3Hw50IX3wS9+l+bhaxso4mHWMdnfVKdLT+7qLROH4zG1i9A+Dv/LBOLKh3teqeBHhUrp+DBSlh3PF4jrXbe/QNrvJWGkSZhbXCE/r5KkwBbfkc8PMAm9dPWJY2dZQFY5XzHDwu8/SjnatfsogXsMa6VGuWFy3xNYpmWExlWRxFE8bCy55RDMoEu/pAlletzG/6kFl94aSt05CfvlCw6hwYZX6xEdMmGY/DJcnERGdx5Z4tjlN4r0yRjfEAM15An0cuWZpia27Dy2T6irUX2h4vsB8I3hg2Jwk1vo6N25aY2l5k9zOabrLEjCztMQrKI71zV12tmcIcjPD3NGHsVV1cHd8kAXm1g60T6pdrC15CZibm6Or6VPy92hlHlfNzAkobFS6HrdHa3G6Yoad9z0WRYG21IX/jStct9Mzoiw7tk1OvDPmV8xp6Dj+7ox3kWYC792dNTIi3bhueY3EnCplpt/8yCNsLCxwj85UsBL5LtzZlqu3/WhZNYiFtkgPcMX8mhMVEwJvI605oZib30BfMaHky5FKPWbmFoRldyn4b4pBvNZmOHrFsPZUNCDH8He6gpW9L1NLasmcGmmD+fWbNI1oA+83C5iZYRJTc5VR4Uqz4DX/Vibq0Gc+OoGDeFUFqTSa9sXtXZDxqN9pwMBYdykf/eAbfPWrX1Xcn/z135NSO6BUpsfW0hciZWkM41kn+FtfjCXdGBZW2d3dZndzBUNvD0YbP/hTJ4wVI9oXL/sqiH0UOnD68tRFMVvvZPHuQJTUrsp9t0Uxt//vqDmvne+ZUDBZBPYwUcK3l+jKs70nz4/aicNrWtd74X8e5ANnSgNq311REe//E3Hc/3dwWvVLeeOlqdrity9Po9Y8bvvKibcL636kODCNWpQrL+N9EJuX3/Hy9Ut4ix7xF71oEu/PFTBKq3JrkaKsJPIrnzA6PsHY+NiLbmKCkaEe7mXpKajtUSqbY6sYX0EQkQZvmkb9dmR6TaZ+xbeP/70vMXDf5bEPEBQF0PIMRs8o+Mvb8CMvOOsPP/WEv7KDjyMxtEyr4uWUmYWPnxcnicMyrJIvkgOSA6/mwOcLGFP3yubCKA8f3Ofew3KKyg66gtL7lNa1IbrEhBrUEtjvt4BRE100dkR7R3FaSh9Td5FhcgJj5n2MvtkYI0sxtowhWmSK0VKTwvDVmUlLvJdhkWkkOSA5cNo58EYBI1bWfNHYt68Z/4pTrQEmgjg2Oa04ca618L334TGJGLWHdf8YGJlW7z03pHiV5ZXkgOTA53BAETDTcwvKipk7uwZOmxPL5S8srShOnJ+2+Mn4nD7OyjSVaSo5IDkgOfBmDnwwNTPLwPAoi0vLzC8sSicxkByQHJAckByQHJAc0DwH1C6kuXl2dnbZ2dk5lW56dg7hTmv8TnS8xNLkYimeV7lTyscTnV4yTWQ5IjkgOaARDigCZmFJLAl5ev8mZ2YRTv5pEYEtaOmE4FS4Hg130qC4HZbfsPmWFqMiwyQRkAhIBCQCR4aAImDmF9UlgY/sq0f8ISlgwLCxzrrYclRLf6P9YOYNf2YHF8PAPh6sQ+Fv7eHb3lDSq6XQyrBIBCQCEgGJgIYQOJyA2Vqhs72ZuifNNDQfdHVNT+gYEpsmaPPvfRUwC4N1RAUF4e9gxm9/6Ut86Uv/kQ/N3QkKCqakRWzKdYx/E93w/ZvwUSx0zogpR6bA7MLyLATr4I9sIb3zGAMpPy0RkAhIBCQCWkXgzQJmd51Hxemk5D/kSVs7za2tPNnnmtvaaH5SR2pyEpUdY2815fqoQHlfBUxvkTd/+N9+h9/7/T/gD7/2Nb72tf/JV//g9/nd3/1tzGIqjwr+g98RexxddoVP9Cjr6R/0od5JTYavu0Dn6e7ifF305X2JgERAIiAReD0CbxQwu/MjJCZnsyBGWX7O38JwFUnZNZ9bH33Oz9/po8MKmLmxQQaGZ95pWI725StkOtny2WefveDMrkcxoe4Xd7TB2ftaTTH8L1cY3lTvPKiEez3q+XgPxFaYhM1TVehYF+39UuNHI0+3tth+aZn06ZFeeoYmUDvwjIz09jKzb4zPZF8fY3PqHjgaj6ASvJ3VcXp6ephaUIWlcW2K3r4BdU8WUwQ2N1ZY396zqp2EWH3RYTSytraqbNkh3mw07LCzu8Xm0iL9vf2Mj47Q39vL8vpTVucm6evpoWdQ2b75iw7IO3nfzvoiPT29zG+auqV3N5kYGVB4sWjqql6bGaZvX3m6tThBb/+YMmBfCZRxnd7ePlaelUVbDPb1Mbf8fEOK6f4+RmdWnsVhYWSQwTF1l2Vx06Bwb/AF7j3zfIpOtpbmFKwWtp5jMznUy6Bp408R1bX5Mfr6n/eEbK1O09unbsWiQPF0jb7eXmXBWeXasM1Aby+LG8/fOT/ax8D08wbj6lQ/fWPPx4/urIi8PqIZvN8oYHbmR0lOz2dR2Tzr9YxYGKsjJbcOU5X0eo/H8OQwAmaiOpVbH53lzKd2ZLQ+zyDHENwv8JNjnP2lXzi4meMHf0n9c05+gd875Kv8guFatsnzDiTpVUtLcjmcdYWfJoJpEzwKs+DHIbB0EirDZQKyUnkwspcLDHQ1F3HbxR6nkHQW2aa/KBDbK2acvxxE99RTZh7H4/jpJc6cdaOi27TD5iFhPA5vg/Ul2Fifw9raGq+wDBamewkJs8Ts038iKKJAEWk9lalc/cEF0sqPuZvyOAB69s1NAn78Q6wiVZ5vjT4kuzicnvpK7ly/yJ/+zd9z7potTS31XLUxw8zaGqvrN3CNLGD2DY3FZ584phPj1hZ1qeFYWl/H2saHkYVNZisLuPGPV3G540BN3zzTY13cum3JlUvnSW7sY3VxAlfXW5h/eoag4lq2DVuU+fty1fwSZi5pTG5s0hIXxbVLV/jUOoKBZQNzTXqczl/kzBkXKvrWWBktxvvSBT750JbMujnYmcA/+JrCveDIfJ7poGPC5Z19dmeTxoxoLCyvcM02nKWNbboe5/OZmTkfWVvTNLfExkgPQWaWfHbOnLCyQTbmJomztsXs8iU8Upt4+nSRstDbmJtf5ZpTLrNrazSnunPD3JxLN3SMLe0yOlCExc0rXD5/ifrOSWZnG7FxPM/lM2cprOzj6foMPl72WFz8Kd45DzRR1x9awCy8YVLI/GjtyRUwhkXcQnypEbplvpmQaB2rb7P88Dtj7j/3xeNc+a1fOSBg/tUvfofGY9NoO2DpCd6PXoxcuA5+7QJ8L+LFbqX2cviuDwyvvehfk1dLuOnjuDeoFqVb68Pc9QsgKaOAjrF52B7Dwz9CqeSbUl0JT04gNDoO0WYaLQ3GNTTueetUg/HbmW7F1/YKD/pNOyZvbtGSkUB0XjOwiv0dOx6MbTHZ3Uz8FWdy8/s0GIujCtIK2Z95cvuKI4U96zBTii7RFdWWMIWFbyyDIijrnVxJKjBVvpuEe9gRUNx/VIH8mb5j3Nlh1WQ2KXSworhlgs6CJKxuhFDbM668s0x/i7z+p7DyGEuXeIqyfNA3jALD2DgEUdtUgVNUieI3y92F9LRMnCNzlevKCG/0KUVE6GIZ2YWpqhgCwgOJTUzk8ZSBrb5CXIMCeFxYRFxBC7CicK90/A2V1M8UWw38aHf7mSUv2T2IzqFB9NF36DPAZJUOx/BiSouSSKhdgt1e7lq6k3EvneB7gmGLBFx3pqSqlID4e0pkkr3MSLqXS2B0mnJ9P9SShAfV5AWE07gBuy3pmIXrKQiP4v6oEcbLuOIbT0VhCHGVYkziLLa2bjRMHj/eUsCIJDSuExcYQEDaIxqKQ3F1sWZeCph3lHMNYHcXXMtM7zfC6ACc94ZvOcM3PaCwD3ZMCdB4H37oCxPHn1neDMgSnikJFA2pAma6KZ3vfWpJbGgQdhYBNFQVcym5UNnldak7naBQBz6Lz0Mxho3kczcxWtnN/c3fOR4f0zWlRFmqheBeCMo8EsnPHlEuY2N1ZDepyrjSzZ/M3Pd5FtkcOTdyaGmrwiswlJGOStIzvVHme270Y+YVTrvQgSudmCdkM2Oi92RZGRGuZZocS7iXf8eACQAAFThJREFU5nvHiSfFBLtHMLluZH2yk5jwUOwszCiqaybfNYSWCWFKmifZIoZgWz/q2hcQrZNMyywy4z2IfFChvKrngRth/pcJzle5NVEfTGqMA5cT8xkXhtfpMmIibbkYmcIToQDXW4nN8STqdib3C4QoAsG9vObjNCvvofJujjMtOVhamxOSWc/iZDfx9pEKlzY6G9FdTSYhz4nyUQHWAgUxF7kb5kRBt5oXy5KuEhAfiV1JmxK4tjJfXIM9sMqtUa6H68IIykog7lI6k6I3abkP55BQAi/G0zMtvEzgGZtEtEMAFfWim9NI5tVoqluO32IsBcwe3xbHCA+4y22bG/h5x54Sc6QWLTBAUhz8KNq0X/suBEbCR/GwuAzxSfB/wmDJ1C8bFg0f6160yuylmeaOi3ikp1AtymlgpjmNs5FqK7MxwYaY2FAuR6utzLFHAUREeXI1PA3hfbNDh2dUuCbHkO3BvN5bjY+NK/tHiT26G0FqmmJLwN3fm5xu1VL2wMmXrLz3WcDMk34lkfEtI8OF2djY3yAu21+1wOwXMMsdXEsrfjamoDTNneQHGrdcGY2M9jWRGVvCy1XYbk8+52MyyAu4Q61S+Y3gZBdLrN8dSjqE+ljF83YsBfmxuGaUK9SqifQgNtgTR32ect2dEUhKRAQW0cmKdXJ3IJ3IUHuuhyUpFgKWqwlKcCXHO52srGHlN4J7+b0nZxzZXp46zFFskIxhi9XVKfQ+t8itqCXR10MRMGsthbi5ZZOc5UPugHjbNHG3bQnW+aFTzOxGUu7cIj5Dj01mvfK5cv0NQnRhXEssVa5bc+2JupdJ4qUolKbIZC1mEZHEXgmjWWT27R6uhcaTGuJGfoOwFxvwsvajeuD4reJSwJgYtDLVSUFeHrHRXlQ+njLdPemHMS786r870IX0wc/9DQ3H2ViZaIf/bQsZpoJ6ZRFW99ao2YYZ07pEs/3wLVuIVVsO2k+NNVz8HDD3jiRen8bQRC8xt60IjozA+nogdT3D5EfexDcwlFvOQdQNTFKV4oKndwD2d3zJbRrSdhSNT7mnu8UNC1fi4+NJy25gqLEUWzcHQu+6EuCT+Wz8RrGtO6mZ3dqOzzsN3Rz6c9F0zYpW8Tb+Zn/MDz+1U7sI13s57xxIi6jPN3r4ibUVIXHx6CLcuBMZxJTGBz8b1oZx/egjPKOTSE5KpnF8kY77CQTGxxNgc4W88g56mjIwd/UixNeW+PI6hrrKsXB2ICzAjpCsIhZXpgm2ciYkNABrvwS6xifQO7njGxCEjXcoTSOr1GW44eHhx507vtxrHabjYRiud9xwd/JFV9PDxnAj1i72CvcC72Yz93ws6jtN2aN++db6EsXpsSQnxxFw256OoSkK072x8QnD39uGssEJRmqLsLVwxz/Yi7u5TYx31OFw1YXQ0Lvcia9gfqqPUFcLQsPCsfFNZGBiBL2vJYGhYdi4hdM1vUxdXhiWPgGE3b5D4aN+2mvSsPDwINzRkZT8NqZHHmHpbEd4oCP++jQWNTAs8c0CZm4EfXoBS28axDteR0pOrSYG9rxMsMMM4l0aaUIXE0Npi6roX37Hybxexvsn//2AgPn1Pzdn4FhHvBlAr4c/cYCHauv9AL5zQ/CJI3yciCZJdSDA6o3+5kriYmOIjk9mZFWMM2wjJiaGum51ZL9hboBEwbN602yB9SkyY2LI0Xqr+1l8d2nITCI6OpqKJtV8P/g4j5gYHVP7GmSz3f1M7r/x7Pfvy8kWE62jrD1VS/mt6X5anvQo3YfsrtHaN8SKMlj3KY9KsomNiSYpt/RkWH4Nq9RlphKniyU6Oo6GsWXm+uqIiY7mXrUYDyX+tnlUEENsZukzq2JreTwxSTksmgYpzw00KnnjyYRqOdmY6lauK3pMNr7NWXJiYsgqNglh4yql+lgSMx6zp1X66wX34phaN332VB62eVyeTXR0DI39Jmw2xsiIiyGvZq+RYKC6MJWYlBLTOCtorconRpfFlKnunu+qVbBqH1VvbIyqZVNtp8mOZlikMCmG9Pt1JhQ3qcqOISH7/rOxeV2PUoiJS2NWIz36bxQwu4tjJOozmN6bWPEagsz2l5OYU/uMrK/xdiy3DyNgjiVgR/LRJZIifbG3t1ecq28I48cqXvYivQHBsfDHtmCXDZVdMDQGHZ0QmwPftoV/ioHJU10y7YEhjxIBiYBEQCLwlgi8UcBg2KSpLJu4tHyq6huoaajnUf1zV9PwmKrqh8Qn6qnvm9bk4LP3W8C8JSOO1LsBKivhvB98zxG+YQffdoQf+UKoWAtGAzbKI8VDfkwiIBGQCEgEDovAmwWMeJNhk5HBXlq7umnv7jngxP2hqZeHcx02CO/e38TMLMLJP60iYICRUWjqg85ReLpnINZqeGW4JAISAYmAROC4EVAEzOLy85X3jjtA7+L7s/MLCCf/JAISAYmAREAiIBE4HQgoAmZsYoq19Q1W19ZPpVtaXkG40xq/Ex8vwb2tLVZ3tlnd3mJ14/Ry8cSn1SktI2S6nM6yX6br6U7XD6ZmZhkaHWd5dY2FpZVT55aWV9kbAyPOT2McT2ycVlZZ2NpicXudxbExFrsGWewfY1Fw0bDFwtrp5OSJTa9TWD7ItDh9Zb5M0/cnTRULzOyCuu6G2IPutDlhKBufmlGcOD9t8TtsfPYMhsqaSFpIZ2U5JDA+bgDLSDjjB/90Fz72gwsREF+HYUdd6+6wcZT+3l9+y7SXaS858P5xQBEwM/PqANxdg5FXucPOBTG85veveudR3XtZwBzVd7XwnT3R8rrjsYXRCLs8xRCVBH9iA9eSMRY+wdDah6GuCWNgCnzjJpxJwDC7qaz5cGxh1SCnJRavLqckLhIXyYH3iwNvFDBC1bKzwWB/D82dXcpMJDHraL8T9wcmF5Qp1FoTMe+rgDEYjSxNdHIvO4e0CE/+8stf5je+/FWsPRPIzs6loX8G4efoM7wQL0YM6WnwtdsYC3pUgYK4v89N9sJP7OBcCoanpvtSTBxDeh0HR+Q3jz5fSswl5iePA58vYJT+hk0aHuaQkFnIo4bHL6wBo6wHI+7VlJOYpKe2d0pzIubQAkbE1fSnirC9K/V4ssithrkj15n/+htf5jd/8yt85SuqE+e/+Z9+nbOhD44nrYRImexSLCzGxC5VtKyvsru2o54btzHMr6jnE8KfLcaEDvVa8wLmOWf2+LLfemk0GNWVWE3ehIDc/1wkyN7vtHl8Hr+9M5FXlEbO3g2RvvsiJeKszbi863A9B0TEfx8kzx+85uwk4LU/zU9CeE96GCXer86vnytgRJ2+NT9KYnLms91SX5PnmO2vIDG7hnUjGI+lZf/qCIrw7h8D82oiw+72U/qri4nJKGdT2T0LnpRHYW93m+pOdQ2ZV//21d89br+KdWVngUwvZ6ysrLGytsHa2kY5v2mnY3DZcDzpJMa+6OPhhxHsbgvLyg5GsZnjOT27K2sY9Knw43AMC6qgMQZFwk/j2VWsMNrEWklrIUYMm1S1tdK7sK1YtxTj5doooT6OOAalMy+MmRPN+Nk7EKyvVZfnXu4j0s4ez/Bilg3ayjsvcFjEz7hJcVooDo6OOLh4UNyl7nZr2F5FH+qCnW8sE5tg3NlmvK2aOP19lnbF7zScbu9IYBmMW5QmxVHcpW4Z8XShn46Bxww+rsHT0RF7BwccHF140tVPRrwJU/cgHov9JxQRqGHMjPB0Y5XK7DgKqoaU9NWa5f0F7r6jND6ybxiNPF1f4WFmKkUNo+9lfnod1m8WMDPDJGcUsPimvZDG6kjJrmHtBAoYoVdWRtoJvGHOXzsHKrt8LveU4xAWSHGejptWjrSviDaUhguVlzKp2uIb48yv/MKBvZA++OCvqDNtqfE6YryT+8rYFwNG+7vg/EC1qmBgt68L40ce8D0P+KYbxowOdrcN6vP6EvihH4bxp9q2wohax7CAQ2wk2X3qpkAGwzJZafHEFj7kcecg24YFMgIdyC0qwe26HRnVbZQn+5CaWUDAbQcC02uPxyr2EndelfYKn1YH8fK+SXxJNdXl6VibnedB9xwND8NxSSgkJ9oeu+T7bC4Mone+zsXvuDCk7NF5cvLNq+L+1vcUa+4agd/+AR9+5srMBmwP5xGV4MTI1AT195P45keXiS6qYWa4gY9cPMmpqKayMI0rN+wpGVW3z3jr7x4iHb+Id4rysr86E9t/+Bgnt0eK4Hp/LW3vntsC797yDGy++yF+vpWaLSO+CG697TveLGBmR0jOyGfhDZs3zY/WKps5nkQBI0ATZY5x8hEXwmIQbaDHUUlkZqm7JQeEB5DyRG1tvi3Ax+VfqXCMY1z6rV8+IGB+/he/Q/2xCZhtjNc9wLvGJGDU8S2GKB386jn4fiQGxTJjGvfSVgbf9cEwtHoCBMwiHvp47g2qFdDicA2Xrt/E5aYNdyNKWRpv43pUrlLgTzWEExzhinVMnmKZ2erR4xUVqrkGwB5/FT4t9RGTEsuQqSwYa0zmdkQymYGedArNttaDw5VYpkUMV/sIP+PLgOL33Rfye+HUxFERMPPk26SjD4vAM7eWnZkqEpI8UKZLGMe57htDr9jUcLUT86R8pdEkYGvMSMDL/5HmKykR1o70TAI8KxU+SwHzLjmuQEx7nI5Y/3LNc+Mo86AUMKZWiyhztobLORcSjah+KrziyNT3K8yJiokktW5KOT/KxPnnfEu7AgaMPkFwPcckYHYwpKbD150wRpdg/NAFLiRjWFG7kAxFOfB/QzDM754YAVM4pO6WOVSp4/sOEcwvL5Ll6UxyQiQX9MVK19FcaxKBQXacjc1BMGtnIBtvXQTLGrNg7nFQ4dNyP1FJUXSpqy4w31uNY0wqqXcCUDbbXh/E/5yOcdEYWOgk+JO777GAmSPtajLDy1Nk+XmTnp5GVoGvIlZZ6+OqRxitYgH0pQ7M4rOZMm2WO1SWT2xIjTJmRsuiQBSGzfoU/KWAOYIxXqqAeRIdRbQUMC/gLQXMfgEz9IAP/cOU1tBgThLuofdZWxzHycGD8im12blXoGv9qEkBI7AWPS0V9+Av3DGMqt1ChsJSjBltqkAZ7MQYfB/DhrDAbGG08IDr+eyK7ictj6UQZYxhAae4aHJ6VzAYDMwPlGHpHcPG9jZ6LyuS8vK44+/P2PIahUluJOZl4xXsy5PpZerz/fFJylHEjRbHjKgWmF5CdcG0LxrYXR4m0Psqhe295Mc4ktK6zGJzMlZ+KQj5tjPXjt+P3el7by0wsySdj6Z3CbbG+7j4yde57umK0rm42sMFp0CahRBcbOPTqFQmnhpYn+nA3fsyDwfVbU+0XMYIujfFJ+LtXKbUrloWW1rG8XBhUwVMY1goYd7HNPniiLonD4fHc2uXFDD7BMz2RCNOaVksiFp2Z4mIgOuc/en/I6+4T2kRnaSBaqqAGeH8r/37A11I/+Lnv0WtYuc/hlkvYoDi9gLGC07waYayWN0L06fFc5Mz5GTAnzlhbF7QtvXFJMyMxh3iw1348dmLXLp2k+apJZrjvDhz4QKOfhXMbxoYfhDO+U/OccPrHvPbsNCUivlHn3DpVjJDK7tiFO8LLYy3zdDvyr/gk3FnkTCPq5z57BLmFpdJedSppMvS2GOuXfmEizYOdM+qa0ptLw6S6pjA2JYYOabNOL0rrITYNrJIiUc+gyKRgYYEO2wcIxBDCY0bo3jGptO7CsbtCaytL3Ph8iXMb1qT39x/IsoaYbHuLiwmSdekdr9rtIJ7Z2l8pPEVfILu7Gyy9Y2yC2kf9ocUMIccxJtTq7k+fFF4vHkWkqmAVfquTZW6+KFhh7UN1bZ7ksSLyLSKgGEBh2/+5wMC5t/+zhm6VpRy9XgqSyFQBtswftsaLiRhGFx8JlrEGjG7m0sYYvTwRzYYE1rUZxqt2F8sIAVnDGyui/1HNthSE4G1tXWl0FERh/X1DXZMz8S9zY0NtsR4CIHLvsypuXOxgvPuLutiP6QNtWIWLW8l3FsbrJsG+qvhVgvdk5ZvvkjMBTJ78VdAepa+6pXyTIidnW2FI2tPVVLs/eaLDMu7eJcIrYjju3i3fOdB0S/xPojJGwXM9twIiclZSmtxLxO+6rg4XE1S1qMTOo36OTCiPN7LPOJ8fyG0d/+kHEX4N1aH8b5zgzNnzyrukuVtWqbWFYFzfPEwDdzt78R43h3+3AHMYzC6p2B0iILvOsI33DBmmdZ/ORHiReXQHmee8WaPQ3txMF2LmQUq/irHTkpFsD9++/kjwv9yHITf/X7et/MX4m/avmMPg/3P9iqml/Hb86vZoxKn52WnZsOp5UbB24RN4n2gPPlcAaOYQnfXqC5OQ597n6bWNprbWnnS+tw1t7XR2PiIZH0S5e2jmqvwhdg6tAXmbch0Qvy+SmyKe8ffyjN1Fe2sYXjUhNEjHuPFEIxW8RjTGzBMrz23ypwQrGUBLiszyQHJAcmBo+PA5wsYU1eE4ekyHa1PqGlsou7JkwOuprGR1v4JpcJ53rI8ukh8HmFEZT02NaM4cf55fuWzY0gzkSavc1K4SL5KDkgOSA5IDryGA4qAmZ5bUFZl3dk18ConLDGH+ds1vPr3r3rnUd0TqwJPzswpTpwf1Xfld96SCwYjO3vuNTyUmL4lphJHmd8lByQHTjEHPpiamWVodJyV1TWWlldOpVtYXEK40xo/Ga/TyVuZrjJdJQckByQHXs+BDyanZ3hQVUttYzM1j5+cSifidprjd1rTTcbrdOZHma4yXSUHJAe+CA58sLa+QXffIL0DQ9JJDCQHJAckByQHJAckB04EBz44zNgW6UciIBGQCEgEJAISAYmAlhCQAkZLqSHDIhGQCEgEJAISAYnAoRCQAuZQMElPEgGJgERAIiARkAhoCQEpYLSUGjIsEgGJgERAIiARkAgcCgEpYA4Fk/QkEZAISAQkAhIBiYCWEJACRkupIcMiEZAISAQkAhIBicChEJAC5lAwSU8SAYmAREAiIBGQCGgJASlgtJQaMiwSAYmAREAiIBGQCBwKASlgDgWT9CQRkAhIBCQCEgGJgJYQkAJGS6khwyIRkAhIBCQCEgGJwKEQkALmUDBJTxIBiYBEQCIgEZAIaAkBKWC0lBoyLBIBiYBEQCIgEZAIHAoBKWAOBZP0JBGQCEgEJAISAYmAlhCQAkZLqSHDIhGQCEgEJAISAYnAoRCQAuZQMElPEgGJgERAIiARkAhoCQEpYLSUGjIsEgGJgERAIiARkAgcCoH/D1KF5TrWC216AAAAAElFTkSuQmCC;" vertex="1" parent="1">
          <mxGeometry x="30" y="360" width="560" height="230" as="geometry" />
        </mxCell>
        <mxCell id="Y9sVNeH2r-ziv9Ro1sDB-101" value="&lt;b&gt;申請變更&lt;/b&gt;" style="rounded=0;whiteSpace=wrap;html=1;fillColor=#0050ef;strokeColor=#001DBC;fontColor=#ffffff;" vertex="1" parent="1">
          <mxGeometry x="470" y="340" width="120" height="30" as="geometry" />
        </mxCell>
        <mxCell id="Y9sVNeH2r-ziv9Ro1sDB-104" value="" style="curved=1;endArrow=classic;html=1;rounded=0;edgeStyle=orthogonalEdgeStyle;" edge="1" parent="1" target="Y9sVNeH2r-ziv9Ro1sDB-105">
          <mxGeometry width="50" height="50" relative="1" as="geometry">
            <mxPoint x="590" y="360" as="sourcePoint" />
            <mxPoint x="690" y="650" as="targetPoint" />
            <Array as="points">
              <mxPoint x="590" y="310" />
              <mxPoint x="690" y="310" />
            </Array>
          </mxGeometry>
        </mxCell>
        <mxCell id="Y9sVNeH2r-ziv9Ro1sDB-136" value="勾選需要變更的資料" style="edgeLabel;html=1;align=center;verticalAlign=middle;resizable=0;points=[];" vertex="1" connectable="0" parent="Y9sVNeH2r-ziv9Ro1sDB-104">
          <mxGeometry x="-0.0793" relative="1" as="geometry">
            <mxPoint as="offset" />
          </mxGeometry>
        </mxCell>
        <mxCell id="Y9sVNeH2r-ziv9Ro1sDB-105" value="Select Row Table" style="shape=table;html=1;whiteSpace=wrap;startSize=30;container=1;collapsible=0;childLayout=tableLayout;fontStyle=1;align=center;" vertex="1" parent="1">
          <mxGeometry x="120" y="650" width="260" height="90" as="geometry" />
        </mxCell>
        <mxCell id="Y9sVNeH2r-ziv9Ro1sDB-106" value="" style="shape=partialRectangle;html=1;whiteSpace=wrap;collapsible=0;dropTarget=0;pointerEvents=0;fillColor=none;top=0;left=0;bottom=0;right=0;points=[[0,0.5],[1,0.5]];portConstraint=eastwest;" vertex="1" parent="Y9sVNeH2r-ziv9Ro1sDB-105">
          <mxGeometry y="30" width="260" height="20" as="geometry" />
        </mxCell>
        <mxCell id="Y9sVNeH2r-ziv9Ro1sDB-107" value="1" style="shape=partialRectangle;html=1;whiteSpace=wrap;connectable=0;fillColor=none;top=0;left=0;bottom=0;right=0;overflow=hidden;" vertex="1" parent="Y9sVNeH2r-ziv9Ro1sDB-106">
          <mxGeometry width="87" height="20" as="geometry" />
        </mxCell>
        <mxCell id="Y9sVNeH2r-ziv9Ro1sDB-108" value="xxx" style="shape=partialRectangle;html=1;whiteSpace=wrap;connectable=0;fillColor=none;top=0;left=0;bottom=0;right=0;overflow=hidden;" vertex="1" parent="Y9sVNeH2r-ziv9Ro1sDB-106">
          <mxGeometry x="87" width="86" height="20" as="geometry" />
        </mxCell>
        <mxCell id="Y9sVNeH2r-ziv9Ro1sDB-109" value="xxx" style="shape=partialRectangle;html=1;whiteSpace=wrap;connectable=0;fillColor=none;top=0;left=0;bottom=0;right=0;overflow=hidden;" vertex="1" parent="Y9sVNeH2r-ziv9Ro1sDB-106">
          <mxGeometry x="173" width="87" height="20" as="geometry" />
        </mxCell>
        <mxCell id="Y9sVNeH2r-ziv9Ro1sDB-110" value="" style="shape=partialRectangle;html=1;whiteSpace=wrap;collapsible=0;dropTarget=0;pointerEvents=0;fillColor=none;top=0;left=0;bottom=0;right=0;points=[[0,0.5],[1,0.5]];portConstraint=eastwest;" vertex="1" parent="Y9sVNeH2r-ziv9Ro1sDB-105">
          <mxGeometry y="50" width="260" height="20" as="geometry" />
        </mxCell>
        <mxCell id="Y9sVNeH2r-ziv9Ro1sDB-111" value="2" style="shape=partialRectangle;html=1;whiteSpace=wrap;connectable=0;fillColor=none;top=0;left=0;bottom=0;right=0;overflow=hidden;" vertex="1" parent="Y9sVNeH2r-ziv9Ro1sDB-110">
          <mxGeometry width="87" height="20" as="geometry" />
        </mxCell>
        <mxCell id="Y9sVNeH2r-ziv9Ro1sDB-112" value="xxx" style="shape=partialRectangle;html=1;whiteSpace=wrap;connectable=0;fillColor=none;top=0;left=0;bottom=0;right=0;overflow=hidden;" vertex="1" parent="Y9sVNeH2r-ziv9Ro1sDB-110">
          <mxGeometry x="87" width="86" height="20" as="geometry" />
        </mxCell>
        <mxCell id="Y9sVNeH2r-ziv9Ro1sDB-113" value="xxx" style="shape=partialRectangle;html=1;whiteSpace=wrap;connectable=0;fillColor=none;top=0;left=0;bottom=0;right=0;overflow=hidden;" vertex="1" parent="Y9sVNeH2r-ziv9Ro1sDB-110">
          <mxGeometry x="173" width="87" height="20" as="geometry" />
        </mxCell>
        <mxCell id="Y9sVNeH2r-ziv9Ro1sDB-114" value="" style="shape=partialRectangle;html=1;whiteSpace=wrap;collapsible=0;dropTarget=0;pointerEvents=0;fillColor=none;top=0;left=0;bottom=0;right=0;points=[[0,0.5],[1,0.5]];portConstraint=eastwest;" vertex="1" parent="Y9sVNeH2r-ziv9Ro1sDB-105">
          <mxGeometry y="70" width="260" height="20" as="geometry" />
        </mxCell>
        <mxCell id="Y9sVNeH2r-ziv9Ro1sDB-115" value="3" style="shape=partialRectangle;html=1;whiteSpace=wrap;connectable=0;fillColor=none;top=0;left=0;bottom=0;right=0;overflow=hidden;" vertex="1" parent="Y9sVNeH2r-ziv9Ro1sDB-114">
          <mxGeometry width="87" height="20" as="geometry" />
        </mxCell>
        <mxCell id="Y9sVNeH2r-ziv9Ro1sDB-116" value="" style="shape=partialRectangle;html=1;whiteSpace=wrap;connectable=0;fillColor=none;top=0;left=0;bottom=0;right=0;overflow=hidden;" vertex="1" parent="Y9sVNeH2r-ziv9Ro1sDB-114">
          <mxGeometry x="87" width="86" height="20" as="geometry" />
        </mxCell>
        <mxCell id="Y9sVNeH2r-ziv9Ro1sDB-117" value="" style="shape=partialRectangle;html=1;whiteSpace=wrap;connectable=0;fillColor=none;top=0;left=0;bottom=0;right=0;overflow=hidden;" vertex="1" parent="Y9sVNeH2r-ziv9Ro1sDB-114">
          <mxGeometry x="173" width="87" height="20" as="geometry" />
        </mxCell>
        <mxCell id="Y9sVNeH2r-ziv9Ro1sDB-121" style="edgeStyle=orthogonalEdgeStyle;rounded=0;orthogonalLoop=1;jettySize=auto;html=1;exitX=0.5;exitY=1;exitDx=0;exitDy=0;entryX=0.5;entryY=0.667;entryDx=0;entryDy=0;entryPerimeter=0;" edge="1" parent="1" source="Y9sVNeH2r-ziv9Ro1sDB-101" target="Y9sVNeH2r-ziv9Ro1sDB-101">
          <mxGeometry relative="1" as="geometry" />
        </mxCell>
        <mxCell id="Y9sVNeH2r-ziv9Ro1sDB-124" value="&lt;b&gt;新增一筆&lt;/b&gt;" style="rounded=0;whiteSpace=wrap;html=1;fillColor=#0050ef;strokeColor=#001DBC;fontColor=#ffffff;" vertex="1" parent="1">
          <mxGeometry x="280" y="610" width="100" height="30" as="geometry" />
        </mxCell>
        <mxCell id="Y9sVNeH2r-ziv9Ro1sDB-125" value="&lt;b&gt;Submit&lt;/b&gt;" style="rounded=0;whiteSpace=wrap;html=1;fillColor=#0050ef;strokeColor=#001DBC;fontColor=#ffffff;" vertex="1" parent="1">
          <mxGeometry x="160" y="750" width="100" height="20" as="geometry" />
        </mxCell>
        <mxCell id="Y9sVNeH2r-ziv9Ro1sDB-126" value="&lt;b&gt;Close&lt;/b&gt;" style="rounded=0;whiteSpace=wrap;html=1;fillColor=#0050ef;strokeColor=#001DBC;fontColor=#ffffff;" vertex="1" parent="1">
          <mxGeometry x="270" y="750" width="90" height="20" as="geometry" />
        </mxCell>
        <mxCell id="Y9sVNeH2r-ziv9Ro1sDB-127" value="" style="shape=image;verticalLabelPosition=bottom;labelBackgroundColor=#ffffff;verticalAlign=top;aspect=fixed;imageAspect=0;image=data:image/png,iVBORw0KGgoAAAANSUhEUgAAAjAAAADmCAYAAADLCb90AAAgAElEQVR4Aey9d3CkTX7f9/oPkSpbJKWyKfJEqly2aJnWH2aJVXaZlGXaIlmUXSRl3h3DyeTdUae7e8PmnHPC7iIucs45h0HOOeecJwGDMIMwOX1c/Qywi8Xuu8DuuwsM8D5T1cAzzzyh+9vf7v72r3/d/RnyR0ZARkBGQEZARkBGQEbgiCHw2RGLrxxdGQEZARkBGQEZARkBGQFkASOTQEZARkBGQEZARkBG4MghIAuYI5dlcoRlBGQEZARkBGQEZARkASNzQEZARkBGQEZARkBG4MghIAuYI5dlcoRlBGQEZARkBGQEZARkASNzQEZARkBGQEZARkBG4MghIAuYI5dlcoRlBGQEZARkBGQEZARkASNzQEZARkBGQEZARkBG4MghIAuYI5dlcoRlBGQEZARkBGQEZARkASNzQEZARkBGQEZARkBG4MghIAuYI5dlcoRlBGQEZARkBGQEZARkASNzQEZARkBGQEZARkBG4MghIAuYI5dlcoRlBGQEZARkBGQEZARkASNzQEZARkBGQEZARkBG4Mgh8NnaxgbD41NMzMwxMT17/MLMHKOT01I4tmk8jvkmp+n4lUU5T+U8lTkgc+AjcuAzjW6JWaWaDaMRw/rGsQubRhOTs/NSEMfHMY1ymo4fb+U8lfNU5oDMAZkD7+bAZwtLy2h1S9gcdsxW67ELdocDpUYrBXF8HNMop+n48VbOUzlPZQ7IHJA58G4OSAJGs6jDardhsliOXbDZ7cyrtVIQx8cxjXKajh9v5TyV81TmgMwBmQPv5oAsYI6haJNJ/27Sy/jI+MgckDkgc+Doc2BvAWO1YhWWC7MZo8WCUfzfGbbOmaw2zDbvs+IcRwuMWRZdh2JJM1uPfoF/V6V93NP3rrS/72/HGavjnLb3zeeDuF7G+8Pr1XcLGKsdm2mVptoy2oaVWCwWzCbT68Fsxrq5Slt9JT3DMzhcjkNpXL6OaMdJwIjx0PXNTZZW9ZIvz9el+TDOi7gJh7MVg8Hr4vYx8BCiXbey6lXc/hjp2n7GpsnE0srqscy77TR+rP+C6wKr9U3jscRL8Fzw/WPhJT/n6xtoudx9PTb74c07BYzF4cS4OEVaZj46k+sdc8TdaCYb6W5qxAFeRfz9CxiPs9BL0KxWr0qHiJeoOMW0d+F0bfEya5fFamVFv8bi8so74ybS8BLjrTS9+m5GWPKcLjfieRa7cCzfIrjZgsXuwCkJ5IOvXEWFrl7QvRb3V/H+ZoXQG54jKlLhC7c7f94et11l5b0sgq/nv8myy0lPPEuaTPAK09fj9Or6t8ft1X2f6ncRH4HV2sbmPvA6/Pi+Lw6C5/sTMDt4IDqyDhcOh33Pe7/Ogixw/brf3jcN73f9bk5+eg5tx+9Dy50YDbE53djtNozmD4vv6+Xqw56xnY73+S/l86524H3u33ntngJmc2GKrDwFBts79AuwpOxgoLUZ+1EVMFYbNocDq81DZjEc9rLxfK8K+tMRQWS8EDBi5pg3CphVw5pkpXhn3IQw2cbYapOEiiiMEinFMOTmMoNjwyxtbLKo0bC6YZYaCYvdxsqCkv5RJUab/cArOlGhaxaXjrWAEcJ4P5WaReBv/7Dy4RGlrxoMo8nI2uYmJouZjc1N1oWF12ZHmjG4xYttPgkBa3fY2DRuYrKJ48NxyhcYCaz2EjCe+NrZNBrZNFsOnLM7K/r3ORY834+AMYvyusUDwQmNcoQR5QKirH7t+6w2rG/pfIlniXw2b9UNX3v/dl3xAf8Fr7br9+3ni066w+k8tLwRAmbf5W4bI+HWYbUwOz3I5MLquyfgvANvkQ+fFm+R16/KusBcdExF+TWK0Z138WSf+btvAaO3vlvA6Obbj6yAsblczPdXEhGVzvymC7fLREtZJc1DizhwYne6cLhcOJyOQyO6yPyjLGBEBWW3rlNTkk/LxBIutxu9aoCs4npW7UjfnYB1ZYzo1BhGdasMtbcxu2TE6fJY/5R9jYQm17LhFBaaTycUtyu3nf/3K2BEoyW4YhdcERWNqCAFd1xOqfCaxe9u8bsLp8uJzeHE6Xa9UdB3vvsgjvdXkVpxOO0MN+cTlV7Hms2TJpvTk0Yxk1E0ZG9Lv5Rep5nB9hpG1AapLFkdDlSDnWQnxPEiJJzopAxaxmbpLEsisaAFI2BfV1GcV8OMwY5tY5Hakhzi4mNIzshnWLmC3XnwImY/AsZsd2JcW6ShrICEmGjSCspQrdklLgt8ROVtsTs9FguLFbvLKTXsdpdbalB3V/wHwYHtd+xHwEh15kAl4fHFLGzacQOddfEk1XYjSquH8x5eC5EgOC7Strk8Q1V7Nwar61UZtjmxbSjJSIyjuk8jWVnNtu1y4pQwE+XE4XZvlRMrtpd1skd8CA7a7FZMVruEpahvPOXs1buV4120DExLdbqw9AjBpF+cobysgD6lHsdHaFC3Mdzv/32XO5eD8a4KouKK0Vmc4LRRVRxOfucU4Ma+VccI3gheCbwdLljXTVLX1sOG4xXeZpsT8/ocKVFxNI9osbscCLyF5du+VZZFZ17gbZMEiO2NNlDgL3HUapf4Ksq9lMdb9Zqo/7STgzR2jWN1u6V20+qwoZkeJD8zhcTMfEa1BmyOd4jdfYgYWcBYLJLVaLIrn5sPbpBf2yfoQHlqBorOBVwuIz1N5WRm5dI0NIfJfngi5igLGDFU4HQ76K/JIqmkTarkBqqzySpvYXy4i+y0LOr7ZjGtzZCSk8z4wjK9jfVo1m0szQ9SlFdAQWY6sdnNbEpDTN4nYIR42VxSUlmYTa6igSWzjcWpHvJzMimqaWPVYmdldpC6yirKykqpahugt62W7MJqVAbzoYqYfVWkNgfmtQUqsjNISc6kV2XA7bQyNdBGbnYe7cNKDHo11YoC8ipaWDHZ0Ez0kp+TQ8vwDPrFCSLuX8M/soi5ZZNUeRktNszL00RHZtCn2sDlNFGVF8j1p/50Ta2CSUl8eA6TeiOtJUkkFjWh0xsY7SgjNCqL+TXbViV7cHzYU8AIsW7boDo9gezSNhaWllCq5zFYbGhn+sjNSqeyc5y5yW7qhiZw2NZpqWtnSqujt66ckooqOme02A9p2Yc9BYywVlvXaCjOIyUhmaZRtdS77WlKJatlCJtJLwm3gvJ6Fo1m5kd6KCgqo72vl66adK7du0NJSz9Gu1OyctvdLmb7WsiKjyentIE1wKAapa68isoyBRVNvQx01ZGTq2B2xYTTYWK0q4aMrCxqO0exOaz0trXRO7uKaXWW1vpOllcXqa+qo6ZWQX55CytrqxSnPOTGs2C6pxcRgsdiWaOrtpigJ89omVjBdQhieF/lTvDJtEJtaTbxaem0TS4JiUhdeRwl/Upc1hWaKgvJLa1DuW5lYbyLyuISanr7aayI4fr9+5R1jmKU2i4rdreb2f4GUlPjyaloZcMFa7oxKusqqKwooaK+g8HeZjLzi5gQHUjHJoNttWRkZlPXO4bFaWWwuZpRpQHj8hRVXd0saOaoqqijuqqQotoezJZNipLDuXI/mJYJLTanA6vVzIJWw8q6kY6yVOKKurHh+kZGAVnACAHjdjPaVUxqVSWVubl0TKtpyC+kZkDHWGsxKYUNKJVjpMUk0DOrl3pN+1XYH/O6oy1gLJgdbtY1gyQmFbC0vkJRZho9M6usrOoY760nLjyRKdUUGQWpTGhUFMXFMDKnpDA1nsbBObors4lKr/dOASN6IhY9ZTmJFDf2o9JoUc0OkBKfxsC8iqaSNHIahlD1VxIemcXYeA8BzwKpH5qiKi2WkqZxqRf1MfnyPs/aT0VqdYFqsJbc6k4GO6vIrRrEblQTGxxLTfcUq6vLNJVlEJVVy7x2maXZXpJSM+kb6iclMZ628VmqksMpax5HEi7CiiasEOsqEhPyGNFZwG2kvCyV4oZ68nMUzC3Ok5VYwqhyioKYOKYMTnCL/v4GZXFRtE4s43R+s17c++Akrt1LwJjtbja0A0Qn5KK2gMsperOwuThGSkIqLSMzqJf0DDRnE1XRCnY9aVFZdE1Mkx0aSGnnFBtv+IcdnEDbS8AIA8DqTDvZinpGB1tIL2hAGOj7mtPJb+6guSKLwvo+2qoySSlvp7s6lxeJ5ejFcMloHcHJSUzqNjxDRsJSYtVTXZJD59gUitxchnQWVofrCA9MZmRqkIgnflT2jNNQEEtOywiqoSYS0kqYU82Rl5pA29g8FTnZKHoXMGn7SI/JQa2dIvxFNN3TU+QlJFHZo6GvJZWYohpWTVbJGmoSfnVWPbXJCbSM6nB6qYCxOtzoptrIL21mrL+R3JImqdNdX5lA1dAUXZX55FV30FFTQGphEwMNBUTE5rNoMqEcKic0JY2ZlS1/Lasdp3WFisJ8escnKcnOYmzVydpsPQGR0QxNjBAd+Iji9lEaFGmkVw0yPVBLYmY588ppMpNTaJtQU58eSdPwEpvqDsLyC5ke6yYwOJnx+XGSIpLomtUz2FBKWEo1S0YP3sJXR7iY2E1LFGenUT2oliyx71v+dl4vC5htAdNRQHJjL2vaYXIys0lJLKBpWEVjTix1A0LxQlNKFDU9Kun4oIcwtivOI+0DIyor2zq1xdmU1tSQk1/N0qaege5W6itzCQ+JY2J+ikxJwKgpT0uht6+T7PgM1oHl0TZiMhu9cghJWF+MunkSkpKZt0gUQdVfTkRmrWRtWhxuIDa3hamBagoKG7BYViiIT5CuHa/IoqiqHzGE9jHGhXcW8P0e7ylgrDZcTjN1hQmExiSRmRRFUEweCyYbkz1NpGRk0jSowrAyS2VuFgXVnYx0VhLkF0BhWSmpSUWMKhdpyImna2oFt9vp8ZMQvixrShLjcxleNIPLSFlxArUzOuZ7q8nKziM+sYJJrZL82Gh61GJgCZzWBXKj4uidX8fxDc3Q+8Vo+7q9BYwL09Io0ZFpTOhFlS2M/DDfU0tkcoNUiYtzI225JNR1g3uNrPgcuidmKEuJZ3TBjPOA07SdNvH/3QLGisvtoLs2i+CwGLLTE/APSWJ63cVwezY59XXkR/sRk1FAYU42pbVDdNaWk105JmFgmG0jqrAIvQNskqO+m7XFYWLCgkjNziEyKIj8jjlWJ5rJyajG6FijJDaRMb2LmZ4C0pq66ajKJqNRDJ1AZ0U+RY2DVBYVUj28ik03SFZSIWrtNCnxpaw6obkkmZymCcZ6Cshs7pfu8zgL23A416hOjPNiASPwttNRmcmLyDiy02PxD0tFvW6juSaZqt5BClODCE4poCgvg4rGDvrriymp6JDqk+XpeuKKFGy4wWL1OFrr1UNEhb4gNTebsBcBlHRqWde0S9cZrRvk50bTs2hD1VNPZmEnDaX5FDTNS7g1FhZS2DRMQ04C7ZNrmLXdRBUomB7rIyG5HhsOitOjqRrUMN3VQGJxnxQPs9mMGD436ucpV+RQ2z8vifpv6rS9t4DRTpKVV8ravpx4PcpwZ2E47OP9zEISVcxQSxYR5U1SJo235XP+xD2qh/TM9VeTmKmgv79dmo01PjdLfXkVc6uWQzFdH2kBY7FI49KzPbXcu3mX0hEdhtkWIiLi6O5rJz4kjtGZMZKy4hhTKSmMjWZ4VkVxSjRlrX3U5iTyIqGaTakwHlyPVHB4Tx8YYea1GCjNSSarrJGhsUnUqgmyE5Np7B2goiCT6sF5lN0K0jMr2dxcICsiklmTi8GiZIqrehnqrqNlVHUofh17CRiLw4V+rpuE1EzmRQa4NilLT6a4roeZuWnqinOISqtnTjnN2FAr0dEZdAz0kZ2dTmP3AGMz85hsJhozo0gramPN7HHglpxxDXNERaQzsOARMEW5ERQNLYDLQnmKP+cvxzBvcjDRXkJ0ciYtHR2U5qSSWtzKuvDD2cdY+cesh/YSMGK41OEw01aaSVRiNo0tbbR29zKvnCAtMY6q1h5G5nTMDlYTlphOT18LAQ9j6Z6coSgmnH7lJnbhz3HA6dp+37sEjGiETCtTpCQnMbQk7C42mgrSyKsfo7c1nYyGDroa8skoa2R0Yhzd+iZdpfkkFQ9KDdmGupewmDA6p3TSLEOHaJzLU8lu8Py+MttNXGIe/Z01ZCYpMFiWyQ+LYmTZyVhrJnF1XegmuklKyqZ7oI+czCyGtHp6K7KJy6misyab4IhMNJpJYsLzWbQ6qM0JJ6V2iNmBKkISclAajFuOxDbsDj1lUeE0DC165RCS8GcxLY4Qn5LM2IpohG005cSjaBqmriqO0v5JBusVZBTWMjA+ycLaBsM1GWQXNiGuNii7CI2IoWdOzFy143RaaVIkkdMyLrV1y5NtJCYWMTreRGRuHuvGVTIyQ+nUmplpLSc+p5v5yRaSUvPo7esiKyOLkQUDPYpkkgtqaa9O52GKxwITEV2ByWUhO96fkl4V2sF6QiIzmFoxSmvJuZ1GKjLiiMqsYGxykln1Eqa3OHRv83A//98pYIQjmmlxivSMPIR1912fBWkaddORnEYtZkZo54fpnJhFOJxZzUs0V9Qzpl7H4bQw2tNIoaKSEc0aVtMK3W2daNcsB+6zcNSHkAQhJRVuUNNUU4fSYMNmXqO3tZb6tk56ugZYXNHRN9zLol7PSE8Xuk07K5pRqsor6ejqpWtoFqOYXn3AlfueAmY7bataGitLqGzuw2BzsKoeo1xRQkPPOGankxXlGANDUxhNawx2dbNstqEdH2BsWsPUaDeDc4uHYoXZU8DY7ejmJ+jqm8LkEI7tDtTTA3QNDNHVWouiqhnV6ibaqV5KFMV0jM5jcTpZmB2itKSAxp4xNuwOVlSjlCnqmFvexCo5XdqwGFfp6hpEs2bGbjcxOtLF6IJechzUa8eoqehAZ7LjdJiZGmyjqKiI2rZBDBb7gXciJA7vYxaSmPFisxkZ6W4iP7+IurYByel5RTVCaXExLcNKrNYNelvqqGnpoqNjBNXSMqM9XWj0plcOrgfMc5G+dwoYmx3D4hydXSOsW52SL8mycpjOoUnm5wYZmFvAatTTVl9KSVU9ylUj6skx+sYXsDgc2CzCn6Kauo4hiQ922yZD3T1Ma9ekZ1lNq/T2djI+Oc7wwCSblg1GhI/Fho3F+SG6ppU4nDZmRzooKimjd1L4V7gwrqqoq62gpauL/r4xVg1LdHeNSn5H0yNd9E1rsWys0FBZRs+U1rM4q0XMiNxkoruLmYW1A6/PBdb7KXd6zSTd3QNs2ES5c7I430/38CQTU72MavQ4zHo6G6soqKhnbnkd3ewwQ2NzmMWsWssGvU011PeMYLQ5sFk3GO5qZVa3gd3hxGJcoruniynlFN2jo2yaNhkc6kRpMLM8P0nXoAq7y8b0YDtFxaUMzC5IQ90bK0pqaypo7emiY2yCpUU1nT1TmOwWhvraGVXrsRqXaakpp21cg3DYt1uNDHY1UlCsoLCwmPaBOUxif8JvwPF3ChixJofDukFnbQEpuaW0dHbT1tX5eujupqWljuTUdHrH1TidR3AhO7MZ0cMUcZemD1rtktnf0wsSTk8eE7CYwilh4n7l0S1IeFBhW8B46zowYhr1XuvAiOmyonIXMxVsNovkCyHWDhKzksSsATEzwCE56dok3yQxVCfyRpjghZe7tA7MISyyJXixn3VghDe/SJvL7XFOE4JYxN3l9syWEJ0CMSNJ6qW73ZL1wOp0SVOCRUX8TdZ1+CY8FBXpO9eBEWVEWodHxF2sxm1BxFukRfh3iDSKGQsv82prQUuxNoiUd1KaPeVMfLdKeb9VdsTaP2ImllVYuizSbBVR9gTmnud5cBKYiZksHjwPpwwKjEU53Nc6MMIqJyK7I/9f4iP5W9gkq4TgihMxq8PDeYHNN8nLb3rvu9eB8ZRfkV9miQev6s7tdWCktZy2hs1EnlrFzBaRXmk1d6vUyXVt8UEsoSDy1MN7zzpQ0uwXafaep5wIH8XtesAp1pkRa6Bs8UB6rlSneMqdU6pHhHOw4NTWDCUxs0tMuRfDoML9VdTjL+sQj1OrmMH0cjmHA6zT9yx3Im2i3O3AW8LZ6Xi5Dsw23oJn0iwksR6PaIelNFo9HHuJt6c9k9Irfhc+MWK2kXiHc6tecrmlsijNHnOJWX7WV3hLSxd44iSwFDOXxH2eWUhOhF+RqA9Efu7EW5RlKa+3yoOI6zYnvglf3y1gREaKufOmNSbGh+kaGKRncOiNIM6PKxeltRm+SWQ+xb37GUL6FO/9FM8UFadYiVeslLm9NsaneM+HPFPM79evrbOsN3hd3D4kPbvvEQVQiLPd54/Ld1GR6pZXpMb5uKTpU6VDlEOB1XFdiVfwXPD9U+EnP/eVQJXL3SssPoQXewsYIWKEJcbl2uoBi17wriBU7yGvkfJ1iT9OAubr0iif/2aFQMZPxk/mgMwBmQNHjwP7EzAHaFL72CSSBczRI+XH5oD8PJkDMgdkDsgcOH4c+FYImDmVBhGEmJFJfPxILOepnKcyB2QOyBz49nFAEjBizFM4PNkc9mMXxHDXgm5ZCuL4OKZRTtPx462cp3KeyhyQOSBz4N0c+GxxaZn+4TFm5lVMzc0fw6BkanbeE+aUxzB9xyXPRN5sh+OSJjkdx7NOkfNVzleZA97Agc+EdUIMrxjW1o9tUGoWEOE4p/HIpm3DiMFqweCwYXDaMThtGGwWDCajnF/HuEweWb7KeSKXS5kDXsMBScAY1jektQqO6x8x7VgE+eONCLhhehYSi+FeOgQUQ8sUiI135I+MgIyAjICMgIzA1yAgCRixANlx/iwsLSOC/PEyBHRKuB4M/+4O/DwUrsXBhRD407vwVy+gac7LIixHR0ZARkBGQEbAWxCQBYy35MQnjYeJ1vw88vKqWTJ/0hft/+FL0/C3d+Bvo6FXA1bPpndirw+WtOAfC//2DpRM7v+Z8pUyAjICMgIyAt8aBPYlYDa0Y5SUlFBcVY1id6iupri8lOLadgw2sZ+u932+rRaY2boI/uT3fp//7X/+F3z22WdS+PV/8bv8/u//G25ldBxeRrk34NIz+HEyGL+OMy5ISYE/fgqTm4cXV/nNMgIyAjICMgJeicCeAsZtXqEoJ53moXk2NjfZWF9nfUfY2Nhg07BES1UuBQ3D0r4L3pbS/QsYNxbjHrtWelvi3hEf3XA5N06f5tSZc1y7dYtbt25w4dxpTp0+T2rTIVo2umrgjx7DtMkT+5Z2qJv1HOtmIasdJIOMGU48httV70ilN/0kVqR24tyx34eInUGnQrmwIu0BI77r1GrWzGIHKM9nVaNmeeNo8M6yaUCjUqLWrkj7yuA2oVJpsEsuSw4WtWqUShW6FbHT7Ks0bqf12/PfLe1Lsy3P3W6XtB+WzbiBRqVhdXkJjUqFyWLHsr6KWqlEuXB0/PScViMqpYoNx5avmtvO6pIWpVLJpsWT79a1RdS6V+4JTuMKKu2KtJeVhwdW1Co15m3jK04W1Go2TK8KkF6jZmntldl4U7fAwvIOn02LHpVmwSvbnY/JdYdxHZVKjXFH5aJfULGw8RI8rBvLqDWvOOS0GFCrda+i4bBJeNtewutCq1Jh3N6wC9hYUqM1vMLbotegXl5/+Qy3WY9KrfMavPcUMI6VedJzFGzu4VO5sdBJRmEb3lgN70fAWJbnSX14kx8+jMH4MoNf5tsRPdjgxff+hN/5nd95Lfyv//tV5g4zo0Ii4HzBFqYOSEqFP/SBojY4KSwzSbC21fgp8uGHkbC+BwG9IofWCS/Ko161Da6bqeEabt67zq0XGehxMF8bxbUTp/jyXBQzK3ZW+zO59/Mv+ekXvrTP7KiYvSI9uyLhWCHk0Qk+P3OR24+T0VvWqA18zqnTn3M7qh6DfYWAx7e4dPkCf/2Hf05k+SGK5F1RP/ivFsJ+8kNuJ5dJr7aqGyipiWO8rYE7577gD//0L/jZ2at093dx6eZ5Tl28yIXzlwlIqcGwrXoOPtL7eqPbbqczO4rzF89y/U4I2nUbq61lXP6bk9y5dYPmiVVWFqe5e/siJ058Sb7YdXh9Gd+nNzn9+U+JruvF6XbQEhHMyVNfcul5IctWG6OZCZz78gQnbyagMroxDOby4Gdf8NPPn9E2b8G0UIf/iZ/zk7+/jaJvDZw6IiIucurnf0d0cjXWfcX+CF7ksNKTE8vpcye4fD+BDYuD6f5KTp45xY9v3GLYsIlNM0PEhYt88dPzJLSqsOmXSL95k1NfnSSwYAi7fZ3m2HucPn2Sq8/K0ZvNDOf5c+H0ac7eTGdxw41WWcOlayc48eU5+qaW0esHuXXvZ3z10y+o6ZjDZtET7H+XM5//hOCyZjHYf+ifvQXMqorMXAX6Pdixqmonq7jjyAoYq2GBtoIE/j4qAf2x6TiqOfHf/Tcvh4+2h5E++8U/o+vQfJodcNUX/Ft3kN8N4QnwWyfh+9GwuUNBDjfAXwbAvHHH9d56aMAnPYmyWU8Pxm5WERIaTlZJDZOLBnBo8H8Rifi1Pf0xMTmZxMYnonbAdHkoPlFpXtOzeSvC65Mk5aaw3cdbHK7gXmyT2GuZuGs3qR7Qe26zqciIDGVO/6p3+NbnHeuTG+R/9YQbp+5TMy38uqpISvPB05fVcD4gjikhVIyjnEkrQRokdW8S6nOb8Frvdl53OxysGzxiu/TeVSoGtIwqMrh5I5beWU+PvyHrDgXjRlht5fLTVKpKgkhpnwXHFNcehNE10Mqj6AqJAdlPnpBfUMyT6EKJ/7WRfmTk1JCQFMesBVR1sQTHRJKankqn2oZxtIQnoeH0V1cSX9ID7lXu3r9D/YI3NKmfgNROG5at/lv64xeMzM2RkfCAMRso6+N4GF9NXWUmSU0rYB3B/4ofhRX5hBaLDsQygZd8qGutIyypWIpc6rPzZFWWEh6bIX0vC71Cen07iogo2jfA0pXBhegsyuPjKZ+zwVwV5wJTaamOIqF+CNBy4/ZTunWHj7csYHbybbmdE5FxrB4bAfRj6JkAACAASURBVKPh7G//xhsC5h/+yvfoWdmZ8IM8dsGdAHjasPVSNyyq4Ewg/Ml9+DNfaJjn5ThMbw38TRBotq0aBxnX933XGr5ZqVTMeQTMUn8+f/3VZWKCA7h9MZy+thrOZJZLQy9r4zmER93ndHIJQku6lQoC0+K92/pnW8T39k/4/Pw1ArJb6WsIIa6xTwKpK/c8hR1j0nFfQQBJ1YPvC94xu36FoqtF9PbW8zw8Bu1EMzl5/kgDKuZpzvtFMyxUy8YoF1ILWdrqIGrr6oj2qd8xzOK9sCyP1hP+JALNpotN1QARwUHcOHee2p4hSn3CGdCKinSVjEsJhN8OomNYCFwreVcKyE/1Jba2UUrcRM0zooLPEabwWKu0neFkJzzgbJoCjejL6OpJiL3Fqdhs+oRuMg6QWORL/N18qktV0jMSEpMo6T+0Xtknz6SlwRKu37pMVGE3a4vjpNyPkbhkHu0h8XwmqYrHNKiEytFTGn+KwOjHKMY9lXx92nlCUuO4VyXEBwzVB/E03JdrxW3S9/mOSMIL0kg+k8OCENXrkzyOjCTsVAoTkh7V4puYTsKDEBo7taK2Iu98PM0Dhk+e7r1eIAuYHQg5lY18FRkvC5gdmHySw5RE+FGiKAcg+lyhsfC38aBbhZhk+EHkqyGkuCT4SSJeadp7AxwDvrlZNG+ZKHS9WfwsplK6qiflFgkJEZxOVEjfte1hxMQ+5UxMHqJat42l4BsX5d1mcOMcsQnBtEwusGp0MNYUzdNSj4Cp8r+CoksjPH4IeRrH2PLh987eyJ4DPbFK7rk0NDYXU8U53Hl8m7TiYI8FZqeAWR/hUnbFy3xvzA8go3L8QGP6IS9bmBsgN1bBwq7OnmNcwVeJeZS8eEyn1Pip8bmTSHzAQ2pHJfWB/+1kSorieFrg6cR0JjwnIcyHh1mesjFZGEZWTATn47NZFPa92XxiI+9wMSqDHtE3WG8lPO0J+b65FBUopej7hgZSMuHlQ7AfArS4R9STdiOLizOkBd6ntLmd9ABfiUvGwSqePc4no8CfEsmNcInUezcITQwkpc9TEeU+vkliTho3CrqlGDRlXycsIYKL6XXS9+HSB8SW5pJ6Kh5JDuo6OR8TTfyZaAaXkKxml6NSyAx9SlnXghShwGvBNE8dvlVcFjA7SOWcq+XHLyJY2VUod1xyxA7VnPmXb7HA/PJ36T40CwygGoA/uQWKLVO5fgUMW11QtwXUW5EzzMNf3IKY/iOCu5FHwQ+5HpZOXlEpSu0Y0bevk5iexq3LQbSMzlAQdZOo+GTu+4TQMqmkLv0xweFx+PgEktcx5d3pNM/j/+wyEVkKyqpqEY2Y3+WnpKTEciMohXmjm7W+XPxik46G3vykaK+Q/nkcYyuiV2zF7/S/4Qcn73p8002TfPEohAHR3prG+dHt2yTm5pGdEsC9iABJ9HzSqH3Dh7uMSp5//jnBafmUFJUwtLjGaF0W8Xl5RN89R17NICOdmVz2DyMp8h4JNS1MD1Vx6dkzUmKfEJJTwsqaluCrPiQlx3EzMJHheSXJD54THZfAHf8wOmcMNGU/4UVIDM+fBlHcM0V/VQS+vsEE+wYT1zjM5nQH13wekxwVxAvfHHTHpt5+PYNspjXqSrJQlOQTdvsWA9NaFJm+3I9IITLoBpWTamZaFNy59oKYhGD88jqYH2jh/iU/kpPCeRBfw5JmnDCfKySnpHIzIJFJ1QwpgVeJT07h9tNwhhb0tORHcDMijqQHjylqHGegIYMrL0JJefqElMI+tDMNXHn6hNS4ZwSkpLOyw6H49Rgf3DdZwOzA2m1aomNymlde2jt+PJKHWr74b//RG0NIn/2Df0/3tiPDoaTLBYkp8H89gjb122OwoYGTj+FHSXj3uMrr0R/rqiE6MpKI2CTmNsA630NERARNgx7/EIdujLiICEqbPaZvNlVkRESQXTb6+oO88puD7rp8oiIjiE3OZMMJmoE6IiJiGVzyDPGtz04zMyx6ad/2jw1l9ywbW84LZvUwHe3Dnplbzk26R6e2/NQt1JVkEhkRQUJOKes73L+8FkHnOk3pScRERxEREUOb0oBurEnieWHN9vIMVuryIojMKJV8vkRauipjiIjPYmXLOKcba5Pu6VB6ZioZVUPS96phMUwhxJ2W7IgIMko8Qx+41ihLiCQurfWlA+loSw4REdGojwRwnmS9/18b7VVZEjZto8LKCW7jHGnREeQ2bA/VOqgrTCYiuUSy6IprempyiYjKZHtOgW6wXsKqd8tHzzjrqZsa+rc6jM5lCuMjSFN4hvbARHVWBHGZipd4D9QnERGdwsLWBNL3T8vHvWNvAbOiJCOnVKqs3vXq9YVOMo/wLKR3pe3o/majKuEGv/Ubv/JSxPzCL/8qP32W5QXDZEYIiIY/uANPy6BrGrQ6mJ6C7HL4q7vwg2hQymvAHF3+yTGXEZARkBH4dAjsKWBcRh05Gen0z+txu1y4Xc5dwYXLbmaorZisyl6PifTTxfeDnryfadQf9OAjcpNOM8vo6KgUJmY8Y8beEXUHVNXAT/zh+w/gz+/Bdx/AX/tBYDVsfptnsXhHDsmxkBGQEZAR8FYE9hQwYork4kQH6Vk5FFZUUlK5K1RVUaAoJK2gAvW6d84U+bYLGG8l36t4OWByGpqHoWcajN92B9BXyMhHMgIyAjICMgJvR2AfAsZzo8tpx2SxYH5LMFmsnrHdt7/j0M9qdUuIIH9kBGQEZARkBGQEZASOBwKSgNGvvVoq+Hgk6/VUrOgNiCB/ZARkBGQEZARkBGQEjgcCkoBRLyxitlgxmszHMmwaTYhwXNMnp+t48lbOVzlfZQ7IHJA58PUckATMvHoBo8nE+obx2IXNTSOLSytSEMfHMY1HOk0iT0wW1p1O1nGx7naybrWwLueVzNVjWB8d6bIq54dcJr2MA5KAWdZ75uGLJQiOWxCGMq1uWQri+Lil71ikx2mG3mFQdEH9MCyb5HySuSpzQOaAzAGZA+/kgCRgllY9/iFOl5u3BtFK7uPz1nu/7pkHdF5EW7O4JAVx7I1x/FRx2mv/5k/13n09V+SF04IrtwT+5gl87yF875FnOvV/eAL3inAtmaXN3fb1vAPikxyXr6kjZPy/VXWLXA7kcuANHNiHgBHNvpuNNT0LYihm+c0gzq+bPes4e0Oidsbh2yxgrKYNFrRa5gcauPPjH/OjH52noGECjVbL6qb18CpcIV7sBtz3QuDfPcAd2YBrVINr1YBLq8ZV2YT7xw/hPwTjGtfLIkYWB4fHVRl7GXuZA17LgT0FDDiY6qsjOTMPRU0tZdXVlO4IZTW1lFYoSM4uZHzRs5nWTgFx2MffTgEjUg1Dhff5rV/7db7zq/+E/+Kzz6TVeH/pn/wa3/nOr/GfQqula1wHXTjdYvtGO66wWPjj57gHlzwCxbOt46tj2zLuq8/hr2Nw6Z2yiDnofJLf57WV9mHXqfL7ZeuLt3DgnQJGjBw51rRkZGQxs/ruxcXmBirJUHRKm7i53d6TwaKV3s8Q0u5RMm/JoA+Nh8vtxqSfJj3Inyc+T3nu54evnx9PfXzweR5Hr3Idcc2HPv+D7xNCZaob/vg27hqNJExcajUu9aZHpFg3cI2qPcebWvirO7hDuo6IgJE0ofRnG59XZ0CIxd2f3We27/PO/6/HfndyRPp2pseb6oGDx/MVVtK7t77uxOfVFa8fHQXcdsZYxHf3cPXudO7+3bnrhHv3De7XuSTet+sWdu8leOCdsQMT+TvRRqq3Xz/zJja7sdpdVnfjLfLwjSzY9ZLdz/AGvPcUMLaleTLySlnfY6fPNa1nL6RNN3hTARR5sJeAcbtdLE+1ceP8Oc5cjmbCaEVk8MFXeh9PUHgIrOP8v3pzN+pf/JW/os+zt+DBplGyvoA7Pg5+kiJVQE4cuIOj4HsRuGY0uMT+SH8ZgWvV4RE3yanw9/G4TMJy48V5InjvMlLQ3EivzsMfUSGs6QZ5ePs8F58lswxsjFZw+9RpbvmXsG4Du6aNZydOceFuKkpP4TnYPNlnJSwqL7drk/SIu5w6e54bD5NYdToYzYvn9OmTRClGpAbGZNTi/+w2ly4GMaqze1VdcGDlWaoDLWT6PCBBrC4NWHT9tPaVM95Sz62zp/lPP/05J89epmNgiBD/B5w5f55zl+9R3Dkv4Xhgcd1n/r+MjxtcDieDpamcPX8Wv9gSzHY360Mt3PvZaS5evEjD2ApWi4kov+ucvHibzgUjLqeLjOgnnD51kfKxRQmT6dJMTp0+SUBGF2Iv+pXWci6dPM39sCpp/1bHQhd+X53k3K1E5kzgtkwSffkUX50LYnBRlC4riuyHnP7qc0qap6QG+GU83zddXns9uJ0OBguTOX32NL5J1didsK4e4ualM3zlF8OywwmmNXJ97nDiq3vUCrDsVmrCnnHq1GXye3TCFMGYIobTp08Tmj2E3Q2a1mwunT6DT3QjFgeY1kd5evcUZ2/6oVmzYXMsEOZ7gpMX7jCqMkpluSDRj9MnzlAwMO8VeO8tYJaVZOYp0AuGveOzqmonq6hdIt7REzAO5qYnmZ1eoDw5lFvBdVLmeIPC/NACKQkYt5pT/+N3Xm7k+NnWMNIv/PJ36dxamPhDn/9B90kCxon7lj88a/QIEtw4DTrcV4Ph396EPw/E1b3oacSFYOmthb8OwqXycodeUTZceh4kxVE0bZRKisOxQkpSPFl1HUwvroBzifhAH/omp0l6cpeUikaKkoJp6h+nKPQJvkkVHtHmhZWpxKf1ScLigulZsGA2mtFNtfLQJ4vp2SEeXHhM97SB+rwcYsoaGZ9dkHaw/SCeeGH63ysdUld2k7gffM7Pv7jHxCq4VKXEpjxi0WRkcaqJv7v0kKrxBcy6Pn4eEkefUot6vJNr166TOezpXbzXOw8KMzc4LFamBwdRL2mJv3KeigEto0VZPL6VxvicWmocW0v9eVHex0RzEpfDc+lqTsE3t46Z/iLOPQ9nfH6MZz4pTM6M8/zqU6qau3jhl8jQ+BRRD56QVzOMIjWIup5RSqP8CE5TUFMUR1FtD605sTwIz2V+qIHnqXlMD9dz/dpteg2ii/PxOoFegb+wjNhMaDQLGNaVBJ1/yPC8lpzUJxT0z1Ce8hA/RQc9tUWEJLQw2l3M3TtJNLdU4xdSydREI7cuh9M/0kV0cBhTM1M8uXydys4OkkMDmZidJeTmVYq6JqnKiiClZ5Ke1Kc8SC6nqSSFiPo+xhXhXA/OZbg3h2eZpcyOVHHu4XNG1gTeh9uplAXMVsGXcgIXJbHRhJZPHXrGfNPCsy1gTv/2P3tDwPzir3zvEAWMHfc1X/Br2RIwwrJiwxUQA//TGfhuBC6d7dVvA3XwlwG45o2ecwdVUb/vewRjXAaeZ6RQNuvZa35lvIafnL7M4+tXuP0wC/VEF+eTS6Ue9vJAEuHRD7mQqJAsM/aZPAKSotnwMgvmNg8lPpnVBD6/xLOoFIrbJhhojCK4bkAqK23Jt8grLuTh5fPceXyNC5cCmV7wTIfffsa35r8kYFYouV5IWV4mj9MUGDUtpGc+R5Im1jku+MUyKmiyPsL51CKWtyzcE2WFBD1vkDpQ7vfl4EFdL6VPGEDUJN5+yrDWjLa/grOnz3Pu0j2mNIuU+vvSqxWsWSLyaiLRT57TMrIqbFEkXMuiIDuU4KpmiTtDBc+JCb6BX3GF9F1ZF05G7DMupSjQCEmiqSAu+iYXYvPoE4vGb3QTm+NDik8hlWXz0j1hsdEUDIjnH26D+ik4LqyfBmUPqSkxJBd2sqIdJ9UnROLS5nA7YVezSC31p3xe4L1CQdA5AuP9yR5ZkfAoj7hERHoyj8oGpe/d5Y/xjQ7iVl6b9H2yMYDwggzSLmaiFppEP8yNyCiiLyQxJow3LiX34tJI9g2grksticTEi9E0DO0xe/kA+CgLGAGyKJDOdUpK00jM7cDk8owzfgoyHtQzvVfAgDssEk7lbIkUB+6YRMmh11XXj/uSP/zHWFyGrSGkghz4UTSudffREDCZaVSpPLtoz7ck8/8F5EiVRH3kfZLiw/kqtdIjYPoSCQ+/xxfxRYg6wj6Vg198lNcLmCDfq/jHZVLWOU1fbQgvavqk9LUm3iYjLYqf342QhgMmCh4RmOlpkA6K817zni0Bk302HZVpg/roMCJjY8kve4HUxBqnOPc8ikHRGK+NcCG1+KWAGavOICmlx6stwKJusRjmyQqIpnZwWuKzRAJA1ZTOpZQCCp760asVQCwRdiWe8Ps+NEsNnoXYa5nkpgcSVNEg3TaY94zIgCs8K1RI3+erw8iI9OGrxCJUorlUlREXfo0vo7LoFPNE1ruIyX5E4p0cygqU0j0hMRHHVsAIFNc1/WRmJxMZHkFrTxepj0MQ8mFjuJXgK5kkFT55KWDy/M7hF/2E7GGPgCkLvURocjzXS/slrLpKHvIs3J/zOS3S98laf8LyU0n8Ig21ENKrg1yLDCPsizhGF4SAmeNOXDLxj32p6ZAkJbEXoqgf8qwfd5jlThYwUmVjozozHP/UclQ6HSv6dRwHoB4/ZcZ7BIyKk7/1629YYH7hv/oLOkSreRi9FfHO3gb4o4e4h9YlUeLq7sPVseW4q9fgLu3D6RA9qQ3cP3uI+36dR7wchtPxfnkgwHSt8SAmhNimcVRqDbr5du4/DGB0aorQe3corG8i+MVj2ofGSIp8TkFDM/FRT6noGqIgKZDwogapMfDGoUuJT+uThMYG0aHcZH1Nj2qomrv3kxgf7+fJw1B6RsaJC/albXSSohe3iCppPxyO7TfPPtV1Up2yTOrPYhkTimVTx4Wf/h4/u/kAyTa3Oc7nD4LpE/X/2jA/DYqiZ1bJZH8Fd/0u0r3kseB9yvrhQ58teOA0L5H41IfsmkEWdcusmazMD3cxrFJRH/+Y5zkNNJW8wK+wg5HGRHySi2ipTuBRajnjPfk8CE9ibLqfR3ejGB0bws8nhNrmNvwEhwZHiAoMorxxjOQ4H0raBihJDyVRUUl+RjCp5R00lyThn69gtqGc+6FZjPU18uheKEPrTuGA6ZU+ZB+Mt9uNxbjJ9OQUmxs6Em+fpaJrlLSYB2R3jVOT9piY2n7aFCn4R9cz0FPC44BcmmsKeOxfxNhoA/efJDPQ38Ij/wDGxsZ47u9DQ1crvgE+DI2NExr4kJrhCYpeBBLfMkh3ahSBefVUJ0YRVNrBaHEKPnFV9LWk8iAhn/GBcu4FBDO5efhDdrKAkUz2DvITXnDu/GXJCS0iqxK7GHs8woXBI2B0nP3X//UbAuazf/q9w3HiFQ2G8INxGz1+MGKK9Ip1yxKz5aQrKkgp2HCHx8K/98c9Z/Kc+1QNzsd4rsQjF6WZ4Zw8e54L1+8xuGRBWZHM6XPnCM8YxuKG1b5CLpw+y7O4NmnGnnWmnjsnT3PbvwK93bsc4HdWuh4nXiNZUcLh9AJX7z9nyeyiPT2CM2cvkNmvkqwGC91FXD5zDt+oWkyWo12Gdqb/vY4lLmzQntSMZs0zNjRbk0h4VAE28ZtlkaTiGpTCMdW5QtCzO5y7eIHrj5/To/FsrPte7/sY/N3nMwQPXGYtsZfOcfHqFS5cuErhyCJjtUmcunCBZ0FxGE0OHDYdQY9OcebOc5QbVpFoEl6c5czl2wxqNyVh21eQyJkzZ4hrmZDKt7K+kFOnzhCg6JSseLb5Fu6dPMWNZyWsikrBMEzAhZOcu5nKnOSTaSMv8R5nTp6hffD4Dh85HUZyoh5x4cI5kvIacDphZa6Jy2fO8jgmR8IKywrh969x6oY/vRtOcFjJDHjImXP3qFMLnzw3ffkhnDlzkZQ6tVRW5+qTOXXmLGF5wwiWmvQD3L98mjtPY9g0g8OhxP/eSS7d8kMr+Rc5SY+8zJnzV+ia8w689xYwS/OkZ5ewIbWIEu/e+mdD20FGfuuRdOIVlcXuj7dWIO8TLxcu5kcq+Lvv/hH/+nd/Vwq/94d/SmrzhNSYHlpPXwgUvRL3f34A3w3G3TCNa92E0+3AaTfimpvBfTcU/uAB7to57xcvOyr/3Tza+X0/UxffJ38P/tqdqZE6u6+dEHza/Tn4OHpLD3wLia1O0DYuEh7bMEm/bf/y6r/XY7Yd/1dRfuNod3OxmxoijTs/rl03vG1a765L3phG7fW47agn3i+uO5ES7g2vfxf1yhvYvH7JG1jtfoZYUmPXY9/4vvue90vDpymX7xQwIsJuq4Hy/DTKWgbQLiyysLiAduFVWFhcRKOapqIoE0XruNTYHFrD+BaCiHzcaxq1N2TEp4nDLhbv+HroDoJCxBgWcftEwx/fgR8GwIkw+Nwf/u878OMoXD0LHvFyhC1hnyZfP01lIMdVxlXmgMyBo8SBdwoYkRChyswr89RUV1JaW09FXT3lO0JFfQOl1VVUtQ2w6RAmY+/yAv92CxhPYRTqXOTjdvAagkpDRW5cKhXu7Arcvnm4Iytxd8/jcmw57cri5ViN6XsN997S2ZHjJjfeMgeOFgdeEzDC4rI77F4xcUcn/q2HggC7n3GY30Uk1Qs6KYjjw4yL/O5d+IvZXpKI2fZ7ef2/MCtL4S28lLHchaWMkVy2ZQ7IHPiWcUASMIvLqzidTuwOx7ELDqcTw/q6FMTxcUyjnKbjx1s5T+U8lTkgc0DmwLs58Nni0jIz8yoMa+us6g3HMqys6hHhuKbvyKdLcM9sZtVmYdVqZnXj+HLxyOfVMa0j5Hw5nnW/nK/HO18lC8zyqh6Xy3Vsg255BRGOcxqPZNrEkJ4U7LimZnC1juDqm8FltG2dF0NIx5eXctrkvJU5IHNA5sCHc0ASMKsGz4p6b3VqOQYnF5aWEUH+eBsCTqhrgJ8HwV8+hD+7B999AP8xEELrwCwWf5A/MgIyAjICMgIyAm8isG8B47BZ2DQa2TSZ3hocuyeRv/muQzvzbRUwbpcDq9WKSTtK1I3rXL/uS9vYqnTO/r7e2R8990zwIg7+4DY8KoH2SVAtwMQEpCnge3fgb2NBWoTpo79cfqCMgIyAjICMwBFHYB8CxoV2rI307FyKKqsoqaykeEcoqayiqLSY9PxylAazV8LxbRUw4yWP+Ve/+Zv85j/9xy9X4/0v//F3+Of//Df5IrL+EPPKBSmp8H8+gGbPXiZvRGZNBV8+hL9PAZMXq+M3Ii6fkBGQEZARkBE4CAT2FDCuzUWyMzMY0YpdtMRiItI62a/+i3MuG2OdCjIrevFsY+e51Fv+flsFzObCEHG+T3n0+Am+/v74+/vh8+Qxj5+E0Dx5iENq6iH4k1tQNOOhyJoe1myeY7cVtJ5lqlmdhf/3FsR5djz2Fj7J8ZARkBGQEZAROHwE9hQwjhUlGbmliO0V3vVZX+gks7Bd2t/lXdcdxm/7ETAmTT9Pbl3nxv1kFu17JPYwEvFB71zl1v/y2/zSL/3Sa+FXf/PHjG3p0Q967De9KS0JfpjgWVlP7MIREgM/SoRlPcQlww+iwODZQ4aYBPjPSXg2/PimL/7U95up6e1mbPWVjLeuTxP45Do3gzLQi12nlW08u3oV39h67MKwtDpE2JUr3AsolPZC+tQx/EbPd5spSfHn2vUbPPRNZwM3quosrl27QlbTvPTokYYsrly7wc3AZDTeaZD9RhDs/2YbpVGhFA7MSbfYV8cZmGhmtrOZR9evceHSZa5ev03v6AQpMQFcv3GD6/d8aZ7YEu/7f9HBX+lyMVmfz/Ub14jJaUC4D1imu/G7eI2bN2/SOrWKy+UkM/IRV+/6MmbwlIfy9CCuXb1Hq8qz39NCi4Kr164QXzoqOe0bh5q4d+UqL1Lapb15MIwRefkKd3xzWRHVgUtDxv3rXLkTy5xUfzlpLg3k6uWLNA4uHjwOB/VGt4vJymyuXb9KdFGHtCCpdXWGZ3evcSUqC7HTEQ4zleHPuHLZj54lB7hddKSGcfXKfeomBN5ulA2irF4ltWpGeoZ+oIK7164Rkd0rrXjusMwR/vwqN5/HYLCKjWgMpIZf5sq9AJRbdVpdXgTXrtykbvoQO8A7cN9bwKyqyMxVoJc2z9px567DVVU7WcUdR1bALKrnmZuaIzLkMvdqRnal7qh+1XD6X37n5fDRZ599Jh3/g1/6C7o9O60fQsJccDcAnjZsvdsNmjk4GQD/j3Dk9YXqGaRaUVzRUwN/EwTaPQh4CCl585UGHiTHUTzt2U3Y5VojNzOZjJoWhmc1uN2rZIU8orG9k9Dbd8mp76E6PYjyulaSnz4iOLNRqljefK6XnNmcJjTiKbXDSlQqHSvzPTx7kEhXdwO3LvoyrFxDkXCWsKIOxmYXPALNS6J+8NEwEv39H/LTE48Qexe6VAoS0h6xoF9hrKuE75+8Rm77CAZtLz/1D6VhYIih1kouXr2FYtaz2eHBx3l/b3RbrUx0tjI4OkT4xXPUji4yWZKDz40UBkfH2bC66K4J53lOHe0lIdyIL2aoO5cnqcV01yVxMSiG+cVZgh7F0tHVwoPLz2nsGSbaN5bm1nYCbj2htG2G+qxAFNXNpPs9JSKvnvaKeHLyqymNDeVxTDm6qRZ8EpPoaszl1vUHjB7XoWa7ifnJCSan+3h+5gETmiUKs5+TXN9FZvQtwur6GW0s40VoKc1Vadx9kk1fVyP+z3PpbCvm+o14JqYHSAzyo7O7gzsX7tE0NEBW2DM6urt5dvkmVQNKGooiiaprozb8Dv5ZdXTVZhCgqKEt9Tn3I4qYHinlcWI2PU1ZnH8WwIxp9w5M++PPx7xKFjDbaNo3aKipJDc3hFbVcZmVpeHsb//GGwLmH/7K9+g5NAHjgCu+4N+6jbznf2Qi/Pcn4PvRsLPnPtwAfxkA81I/4/V7vO7bGr5ZqVTMeRKwPtfEVxev8+T6VXyCFOiVA1xOUkixXumPJzL2CVeTSiXLjGsmm4DEqNeS7nXJM6sIe3GHuPwKB16LgwAAIABJREFUWkbUjLbEEVQ7KEWzJeYqVT3T1Kef5uS5s/jE1LL+yhDldUn59BFapexmAYUpyTzPr8ex1EpGli+S7cGl5lJQApMCH+MYFzMUnvPAaEk2gYHNnz56H+UNa2TcecyA2oi6s5gvvzjDlXt+6PQGKoN96NOJlywRej2ZeL9ntI4bEKbUmBuZFOdHE1TpqQMGc54TH3oP35IqKVbK6nCyYgO5kapAeoS6lPiYW1yLK2BQVAPGLmKyfMjyL6K6wuNDFxoTSfGweP7x/JiWJqisLCCjsI2lhQnS/YMkzlhGWgm+mUNm2QvKJShWyfe9SEhyMFkjwuYLZcFXiM1Jx6fUU1Z7FPcJigvlXl6b9Pt0/XOiinPIupaBVpzRD3ItKoaEq0mMi3bCPc/tuHQyXvhT16uW7om9EkXTqMeSJp04pD+ygNkG3rpCYlQoL0KeUNo07t094e047/nfGwUMEBwBFwq3Yu+E1Az4wyeQ1wJfPYWfpMDG1hBSaQH8MALWDl/t7wk3a/hmp1Gl9FiLVK1J/OBpCjaXk8qQR2SmRHMio9pjvh1KJSLiLl8mliCMse6ZfAKSYvDYbvZ+06FcYdUS+OQMd/xCSa8doq8umPD6Pikq7UnnKWyf8kTLuUnmCz+KOzzDSocS10N/6Sq557PQmFapDH9BWkYaReXBSF0j8zTn/aIZFoaWjVEupBWxsiX25uoLSY7vOvTY7xUBh3mBwuAIilsGPMM90g1uxsrjuZVZTJHPCwYWRJldIfZKPOF3n9M24hEwKddyyUvzI6zKY4UdK3lGVOAFAopLpadoGsPJin7EieRiNOKMppKEyOt8GZ1Fj8Bss5f4vCck3Mmlqkgl3RMVH0PR4BEYfpNi+/5/1mZaCIsMIiImif6hXtIfhUsCxjTSSeSlTFKKHlOjksakKQ45g3/UYwrGPL3UmpiLhKTEcaPcI2D6K57yLNyXC/keATnb+ILwglSSv8xkQXhPrI1wOyqcsC8SmJBG5lQ8TEgh4VEA9Z2SxCHlQgxNQ4ff0ZcFjOCS28KSblFqWDrzIrjvWy2Nyb4/zbztDjVn/od/9oYF5hf/0XfpPswhzI5q+OMnMLtlamlsgeqtxm9xBtJaQPLptcCpJ3Cz0tuA/Zr4rPEoKZrsQR0bm0YMyhZuPY9kyaAn8elNciur8A3xZ0qrozD5GbnVlYRFBdA+q6Uh/wUhuRXezbuNSWJSIpmSVJYTzUApd57lsLysJOCuH20Ti8yMqzBuLBP/wIeiZk9v7WvAOuanV8j4Ip6pdXCtKjnzs/+Ds08ee4bYTZN8+TiUAeHHsTHMl1GpzBo2WJnr5LH/Odq2J0x4KUJui57cyHCKGycx2zzbsyzNT7JoNNKfF8iDjBoa8/2Iqp9CN5TPw9g86hURBBa1szxfx/0X8QyNdfDQJxndkobIp0FU1NTy9FkMSs0i6aGBKKp6iY71pXlSTVtJJPH5+aSmhlHQOc14cxb+WdlMVCh4HlPGknKYR/eD6NMfF9/F1zPebjH//+y9B3RcS3rf+SR7j+WzY8uWvbbCruyRxrJs7a53vd6z3nPWsqwZpZE1epp5M3oaSTOaF/iYAeYEIoPIgcg555xzIAJBIpNEJAESOYdGaKRG3/7tqXu7QRB8JMD3SHQDvPec6r6xbn3/+qrqX1/VrY+ZGUHOdKQ5WlPS1ElypDPVg7O05fsSUtpKfWEcoZmPGBuqxcM9ieqyTLyj6pieeoS7UxStrbU4B0cyMzNNcIAjVXdrcA8MYHJ6loRQR8oedpLv5U9u3ziDhYm4Z1RQFhpObONTpu7m4RhZTEttDN6Zd5gda8bR+zaPl4ydzBeTe6BHKoGR4d6iuyCes1bWnPMRlY5F94PfQEGmOPPvfvElAvPBP/4zHpjT2iotwQVhaUmBtVd9Im2AtFT4jjs8NueM4zeAGz3ZCb58duos1lds6ZrRMpAdwskzp/GJamVlC6bvJ2N14hQOwXdYlmCtr5hrx05w2TWP6fU3eZcZ7pWWSPC/xsmz1ly2d2N2VUddlC+nT58lrnkIHaskX7+MtdVJ/IqaWDma7ck+gV+mPqSKsUUFhN58Pzx8k+XJkmxMEJpZjDzSKM3g4nSZs+esueLgSP3A5D7jN99thvUxgk8dw/ryRc6du0R+zxS95ZGcsLbG2c2fxcUNNtdGcbX9gtPXHBhYWMGgXyHY4zinrS/ROqRYBpqSwjh16gRB1Y/kr1efFqdy/MRJbmXXyRNTN/rLsfn8OBedspgSHZrZFtxPf86pi1E8lqcJrZIYdo1TXxynrsnycfuqOabXLZMWbI+19VmiEovRbRmYfFzJ2ZOnsQ+MRSu+DF6exO/qOY5fvsXd+Q3Y0BLvYsOpM9cpfioq+y2aUzw4dcqKiJKnckepvzSUE6dO45XcxqYBVqabuWZ9guv2gSwuSWxs9ONy4xjnLjkzPC2syhtE3T7L6TNW3H0s28a+qkhv7bm9CczcCKmZxazsYcFfnmyRx+cssQ7ez1dIbw1Ri4pIT8+9ZP7kd/8Pfv3Xf10Ov/Uf/jP+ha3mX1plqh8+toWfxoD4gmDLxOa3YGEaAuPg/7OD/McWhaiaGBUBFQEVARUBy0BgTwJjWJ+nMCuZOx0DaDSLLC5q0Gieh8XFRRbmJqgvyyS/vkfpYViGbNupeH8JjBECg57NzU05mH8F3u1sgYlBuOIPv28PJ8PANh6uhML3HOAHt+HO0x03q7sqAioCKgIqAioCzxHYk8CIW1cmn1BcXERhZRUlVVUU7wglVdUUlJVQdKeZpc09zDTP33uge+89gTlQtN/0ZZvQ/RgisuFGPLjlgPiMfcW4sN2bRqferyKgIqAioCLwXiCwLwJz2JGYmJ5BBHVTEVARUBFQEVARUBE4GgjIBEazdFgmSX410IW37bkj7nH7qyGjPqUioCKgIqAioCJwOBGQCczI+ATLKyssLR/NsLi0jGZx6cjKd1TzTZXraJZHNV/VfFV1QNWBt6EDMoEZHptgRbvK4vLKkQtLK1r5W3fxvbvYP4oyHmqZVlZZ3NhgUdKziMSiQc+iboPF1aOpj4c6r45g/aDmx9Gr89U8fX/yVCYwswvKinpiRY6jFoRhbGJ6Vg5i/6jJt195TAbC/d7/zu8TTs1N+TE+DtmV4JsLEVXwYFT4IpPXKti+x3Sv+v8cNxULFQtVB1QdeI91QCYwM/PKqmZ6ycCXBtGK7GOTXvW8Gc+LZI9PzchB7H+pfGZM37tMz17Z9i7fvWfcIi80Uxjco+AP7OEnfnA6BI77wnft4WeRSB2T8mf5esMr9PKI5tue2Klyv1flWNUHtfyrOvDlOrAngZFEK7i1zvDgAJ2Pn9D9pP+lIM4PTWlkJmxpJOZ9JTCSwcDS1BOqysooSAjge7/zO/zO7/xXHAIyKS0r58HgHOIesxQMmbyMYPjcGb4fiKF2AGlxFb20hX5Ti/TsKQaHYPg9Zww1QwqJURtt8+SViruKu6oDqg5YqA68nsDI9vt12usKScop4W5LK43NTdzdERpbWmhsrCU5LZ2WgWmLIzFvSmDESjZma9jfmpIIqaG74Bb/6zd/g2996zf5jW9+k29+8zf4zd/8Fr/5m/+aL8Jq5HsOnHAaQG/QYrD1hb+MQprbUAiKIDUvhE0MYdHwx74YhlYPDYkRhP9FTJWhMgG2QhZl2OVyYjo2WcrMQibfUOdMaTXJI3dwhAlb5Ot2XIrMz4/NRJS302Oe94u6xLDdSRD1ihIUDVB+xbmdmL6oO+ZJ937ybTvfTXq9QwhT/Wk6ZZLJtEqY6VhvvEH8ye/cfSw9x8aUJlOcpuPtOLdxtlzMTGn+Kv/beG+Xs5ex2cbCqPfbx0ZsXorjDfA25dnuOL+KLG/zmdcSGCGfbn6UlPScPf20zAzUkZJ/X16i/nmhNb8yiWpi30NIxppFkqQdlbH5ZfgqGS5XIro5cn3dsbl5k5u2tkq4eRM750SeLerNQ9REZdVRB99xwdC1JBMTqe0BUvOYQlLmxzAUd6DfEpXaMoZjLhic7ijXDl0lpSjU6pKGOc0KOmPpX1rQsGbynCAWitRoWNlQfOZ8lbw+sGcMoNtYZ2FhgXnNitEL8RbzC4ty/ggWI9Iib9sV7eEsP28DU53B8EKHTkCzubbO/Pwiq1otmoUF2Rni1voa8/MLzC0afbBZup6LvNVtMje/wLoxuyWDHu3Kknxu1ajLW2vLzC8rntnFbYbNVeY1qwom8nMS8wua7XIh9EazoGHd6JlbHGs1iyyvPy8s68tLLGqVRS5lVdtaY16zrMyXMzNhfRs686VxGGBrQ+iNBoGmEXK0SxoWN5Qj8avb0LKgURzkimO9fp35BdlplPKMpOC900WZwFv4QTJt68saNGvP79CtLjJvxFu+TSfwXrEYvPckMJszw6TnlLC4x8KoC+PNZOTfRyt6FBZUAEXG7IfAyIVBP43byU/JaFYsSV+qTIekkCht5RjHf+0bLztz/OC7NBu9UR+ojKLiEwUwJBzOZimkhC0MUXHwB15I1Q8wXPKBH0cjLWzJ16W8LPhpJNKSQbnfUvEXcklLRBcXUD+2ZqxkDAw9qcPG7jLXfZKZQ89YQzzXTp7mzNU4hjUSiz15OB47wbEzAbSNicrHMht8oU+GrXlC3a05dvY8Ni7xzG2s0BDix6kzX+AUU4vJOe1MWzpnTjowvqVUtgeqY5agH7JVZY3wU8e4lalYOtfG7lJam0RvYy22Vsf5k7/4IZ+fvUxzRxs37S5z+vx5zp2/QnB2o+zk02TFsDjshBVpU0dLVhRW562wvRXF9IqOufsVXPmr09y4fpX6vjk0c2O4OFzixOmzFPWMs65dxN/LltNffEH83S70Bj0tMaGcPH2C6wGlLGxtMZCbjPXxU1g7pTCxDsu9RTh//gXHTvnSOqFjfbYR3zPH+ORTRyq6tcLNNzFRVzh17G+Jy2iQHdhbLG5fVS8Fa9jaoDUzitNWp7jhnoJ2Q89wVy1WVqf5O1sXHi+vopseJerKZb747BIprVPolhbIdLTj1IkzhJQ+ZmtLy/0EN06fPoXd7TssbWzSWxTE+TNnuOiUzawWZsYbuHr9JCfPXKFrSMPich9OTp9z4osz1HdMoNtcIczfidNffEZ4dYtF4L03gZkdIT2nmAWFSJuI2kv/86NNZBQ0HVICo4jTV53HDz/+ryS0Kp42La7yeINCIBMYwxhWv/2rLxGYf/CLP6DFuDDxgcooExgdhuve4NNoJDCC1Gwi+UXBv7OG74chTW8+v/boDvzQD2lYa/EEBmkB16Q4ip4pPenN9XFCQsPIKKtncHYJdBPcvh3ErG6L6mgXorJziY+J4snSBg9zb+MWkSF75bWkDoBJP2R90jwhOiOBCWPpn+yuwj60Cr2kJfiqLdU9olFZI9nNih9Yn2BQ6QweemumCYN9/8td1WXSj9lx8ZQDDcNbMFlObKIb8wK79aeccQ+jSwssdnMmLocZwezXpvFytCG8YVRGeN/ve4N64WvHaTCwtbHJ9IRSgeTZXqGkY4zuwjTsbOLoHlU8TddmOpHyYI7N0WoueaVQUxpMVG0f+qWHXHYJor27hVtBhej0G8Q7uZFXVI57cBZLGzqKAjxJzW0gKT6c7vl1eorD8I+OIyMtgYZ+DdOtOTgHRdJZV0lYbiP61RFu2t2kXnZZvXMo0zI7A2+UBwYD0uY6S+tCQSTi7H149GyY1DhnWjV6estCcE6qoa48g+jyUdbn23G/GkBxZQH+6Z1sbQ7jccmTuqY6gqMz2dJvEel0gazqCsLC41mXJLJ8rpBa10ZxZBg10zrm6mK5HJVFeWIsOX2LbHYXcN4vmfu10YRVtCKtDXDFzo22acWq8UbyvGVdVQmMpJh5Z4bqyCupoazAlqIuxTW7OTPm677bcgmMXpn/4llvJCkG9JppDNcC4XdvwvduI7VNKY2ePNxUA3/pjzS6dggIjAavtCRKBxUCM/WwgI9PXiLA3YXrlyPoaq3FOrVUHnqZ70knONwJq8QipkUna6gQv6RolsS4vwVZME16KOvTxiReDsexuuFMSH4LHXeCiax7IDe2TekXKe3op/N+DrV3SonPdGHE6JreFMd78y8TmFnyrxVwv7Ec14h4pgfukp7lrRCY1aec94qgSyyAvtjDhcQ8Jo1YjVRVEeZ2x2JM9F+aZ7J8sDTYTJhzIIOaLTTPWvB0vcXFsxdp7HxCkUcQD4QJjjkSL8cR6uDHvS5B39ZJv5pNTrIP4dX1su70lnsSHniRwKJS2XI5di+E9BgXziUVM6oHw2QNMVE3OROdSbtY8WP5ATF5nsQ65FJRPCLHER0bR/4Dxaz8pWl+yw3nQb5DlL3pngpcbtkRkdeGZrKPROdIWZdWelqJvphGUpE71cOC5MxTGHkW3wg38nsVPKoTLhCYFINjRaeM1YMaH9xDfbief18+fno/lODcZBKtMxkTw3eaxziFhRNyNpE+0RRK47jHpRDrEkBt85hMpDIuxFD/cEF+/iCx2P2u957AKBXzDFcv/RhrjxBunP4jjgfnWrYZdx+F0XIJDBhiY+DTJMQkPr0YQgqKhB+EIQ1OIN2Ogh+GPR9CSkyGn8UirRon+e5D9t1KfiDHoihLC3hlpFErGAkw1pLKJ+Fl8n5rgh0xMSGcji+VjyeawwkLd+VMVC6imtnoS8Y7OtziLJgm7GR9WhkiLNKb4uY+hmZW6KoNx7NMITB14U7ERfrygxMnCfK/xd/+5I+JbxOV3RHrEe9H/+QGfo7McymMruvoykjGxcuNtKJA5CpfOyATmM4l0Vh0cymtFJMzl/uFISQVdMsNuWnipCkPLOVfiDc32k1acCYDSy+a5le7Czkdl02erxstcj9wHM+bsUR6ulDTLQRexf9mEnk54XgW1hnLhhdRAU64ZBXLxwOFwaRFBGIdm43QIP1gPlGhN7EOT6NVtlrdJzTlFumuWRTmDsvP+IT4k9+jrGdmKTi9vXTApnaWvr4O4vxdKWtsItnbF7H4yVJnDZ4OWSTleVM0KKCYIdX5Kv4xPiQ/VKxhuR7XiUxL5Hp+u4zV3ayb+EcFcSFVwb+79BbhBRkknopnVGTuTBsXIsKJPB1J55ToXQ1wNSKBJD8PylqE/VUi4EowdX2K1r49Od/cYqYSGGGi063RWlNIbnYWF4//F06GFaIVC6lZYE94v8qiEJgRTn3zf3ppCOnnf+F7NBkb2f3G99buExXSQBv8gR2G6nHZqiKNjyGNrygWls0VpF7jhF7tBPzIHkNQq2VbX0SjJqoGaRnnQHecEoqoutPA6GgnAbZ25BQX4XjFi5oHPaSE3CQpKx8Pz9tUdz6hON6FqKQs/H38SK5XGq63hvV+Gtt93qMQmEF8fW1JLGvkfnMrY/2tuF31I78gA7vbibR3dlNVmEdmtBt/+bffJvmhqP3eVwIzQ9KxKHpmREWyisvJ/8xfnbVHNrSsPOYLpwAeyNaEXn7qeIusiipKc8OxDXDl6aoyadUS9UC0b/qVMXytrAnPqaChvoH+mWV6GwrIqqoi0fUyCaXtPGhI4HpwIrkJ7oQW3aGnrZCrfiHkp/vjk5zDxMwQPte8yMvPws47mvbH/UQ6epOamYOLdxB3e6YpT75FeHwGQX7+ZDZ2cq8oCP/QeGJCQgitamW+p4Hrnn7kpcbg7ZbEyIbBIq2XXycfRblbX1nkblUJ9xprCLl5jebeYXKS3PFKKiA+6CZ5nc/ovZOLo2MM6ZmRuCfW0ddSg+P1EPLyEnAILWZ0sBM/Nxvy8guw8w6nc6CPSJ8bZOUV4ORxm7bhaapTgnBOzCLTy5PUyke0lCZiE5FAfqAvERnNDPaWcdXHn4LMEDyi45jYFKMXb046vg4eu5/dJ4EpQbPXJN6x5sM7B0buMcl1LdPDjQyJCT+HmLyITJYbHOax/+5vvURg/sl/+JxeY5dvt0K882PjPBgpJFqeuGvonFHIiagYd4aNWQxXvZRPrRf0lk9gBBE2QHttAV5e3njeDuWJRs9STx0enl4UNyrDkmvDbfh5epFW1i8rnDT3hAgPT6IyOuShJcM+CcU7z6fd6ZDl26SuMEGWzy80loVNGLhbiIenH40jSu9XKUXr9DxpZvWQdwK+DsaSYY3Hd3qZ0+pla4rm8X0qKpoRXyZJmxrutHYys2FAklbIS42SMQ2ITd8eSvo6736Xz4pOnbQ5T0loEL6+Pnh53abm6RwjD8rw8PImMa/aOIFdS168J54R6WhkPmagJscXD/9oxpQPYxhuq5LLRuVjZT7NwuNmPDw8yW6VTQkYFp4S7eFJeIoyYZSNKdL9PfELr0LYcsTWUh6Lh4cP/VPKp0vvUnazxC3wltapyYvB08uLyhal3thY6CPE24u44iYjEusUJITgEZzGmPGjrbrcODy8o+gT49LA8H1RVn2pky1hMG+smwrvKbPapPUx4gM8CTMOc4OGnChP/CLTWTbGebcoCA+fEHnYUMRpFkx21E17Ehjd3Agp6XksGAUwovXSn2akkdS8exZnAhcJ3c9XSKaMMAlmOj7M/6JBXV18iof9RT755BM5nLhwg3aTtWOHIhyonELxdRoMjkHw+84YwuuQeseR5jVIE2NIFQ0Y/s4F/jwQ6fGC5ZOXHTia9OfL/gXGO7iyvF6MUrUod1vqkMFz3dgllVj8Zce2fZ/p9CHvBGzLsyN/93/OCIwRAxNM8vMv4GO68vx//+8wU+/XlP7nSX5hT7Zc77xHdFp2Krqx4dv5kJB55yaOdz4il42dN8i47jxh/sb03eXby3LuREvGZucJGd+Xn9l5Zi+85Xl4O+O0ULxfS2DEHAWDXsvd8izSi2t42N1DZ083j7qfh86eHh48aCIjLZXazhFZ6SypIhaZ9iYE5t0poXkqm51Ku3Pf7HkkCpl+HSm7CD52gx+4wA9uwUfO8Odu4FiANGPhE3e/UsNmHj04anqtyqPqkaoDqg68nsAYWbB+XcOjB23cbW3jXlv7S0Gs0Puwf0wxgVtYr+t9JzAWXcgFiRFBt4rU3olU1IxU04U0Y5wPI/ck1EJq0Xmokjizm9FV/VDriPdVB/YkMAKYnaa8nb343fuWOOlVpHFsckYOYv99zWiLlVueE7Nr/ovIJ9nsrFZMFptvKnFR6xJVB1QdMLMOyARmem5Bnr29pZc4akEySCwua+Ug9o+afKo8ap6qOqDqgKoDqg68jzrwwdTMHE+HRljQLMp+LIR/i6MUZnfIs3P/KMl4+GURvoIWn4cFzZHSwcOfP0erTlDzQ81PVQeOhg7IFhjRsAsHhkc1zMzNI8JRle9QyyUviySWRpKQ9MLBpNgTx8Kr89HVSVU2NW9VHVB1QNWBr6cDMoGZ1+xcw2H3zJbDfzwxM4sI6maBCKzMQt4duB4Gf+MDJ8IgrBqMa0NYYIrVJKkIqAioCKgIWAAC7wWBmZyZRYT3eZvo7aW3d2jfE7IPBKv2ZvjYEf7UA1xzILECwrPhE0/4tgNEKr46DiQt6ktUBFQEVARUBA4VAvsiMLrFCe7W11JZ30B1w92XQmVdLQ0dfWzsXPjGgmB4XwnMREcu1p9/zicf/QHf+OADeUXe/+cP/5rPPz9GRFWPeXOoqwn+8Bo4lIBGWUXzeYJ0UFYKv38dAu89P63uqQioCKgIqAioCBgR2JPAGDYXqSxIo7jhASNjYwyPjLwYRscYGXpCSV4aZa0DltXDNwr5vhKY4cZ4fvznH/IXP/ghP/n0Uz799O/4+Iff58MP/xyPPMWxl1lKwvoU/NQRbCte//rGSvhvDtCo+NR5/c3qVRUBFQEVARWB9wmBPQnM1twIqZmFsnfm1wGzNN5Eat59xVnZ6240w7X9EBjDxhLNdVWUlVXyZMrorMMMaX27r1wl8eznfPjhhy+EH/21LxMvOpF9u6/dK7aqfPiuHyyIZewMkFkAEUafHp3N4JyP7JNC0GG723AuT5nVu1e8Zr+uZ1qzwNLmzpWTdHQ0lFPW8JA1kb6tFRrLy2nvV/y/wAbtFeU0PlS86ppdhNcmwMBwXxuV5WVU1z1EqJBu7inl5RWMzMvuLJkb6aSsvJKnI7K0r43taF/UM/a0n0nhFVZMSN9cZkk7x+LoEDXllTTU1VJZXsH4rIZnXa2Ul5VRdqcZ4Wz5MGzLEwOUlZXRM6Z4PJa0s7TcEfVnGcNzSt4PPaynvK59u02Y7m+hvLIRjaIq6JfGKC8vp39CdnEJG3PcKS/nUb9pTqaOBxXlNHQovpEELo/rq6m+qzg9FcdLo22UV1Qxu4evvsOA6evSuDTYS3lZOb1TJmzWaaktp7prdPuxsa77lFe0smYcCZl/9oDy8noWjPDqZoZlvIfmjWCtzFBTXk7vqMkXuo6uxnKq255sx/mso4Lyuw/lRWrFyfnBB5RX1DG722i+/cTB7uxNYOZHSc8uRvg3fN02P9pERmHztrK+7t6DvrYfAjP3IB1rm5vEx8Vxr18plAedzrf/vjFO/M//+CVnjh/83J/QYs4pQd5BYFtqFFcP5WXwxy7gngUfu4BNCWiNtVxtMfxNMMwZj98+SG8xxkU80hIpHTQ13jqa6vPwjAgnJruaZdZoy3DH65YrZ0950jSwwNOaUHxsnbA+4URe0/PK6C0m6u1FtTGOj8sZbnoEEBFXwrxmlFQHT9zc7bjgksLw4gbNZRkEeNrwM3sfBpYsdEz57SHympjWuP0XH3LKPVb2f7U5XEZavh8Dne2Ee97kd7/3I656BNLb08wXNldx8buNn7sL1zxiGFh9TbQWcMmwsUFLTgI+t72xuWBP98QyE1X52H7qRFx0JI9Glhjsq+f6LTdcbM4SWt3GzHg39h5uuNta45pRinZjhVw3X265OWJ1M4aBOQ13gkNxc3Lh7MXbPJhYY6g2HB8bB86fdCK/bZLJniz8b9hw+ZQd0aXP0Gmf4B5NrBO6AAAgAElEQVRsg5udFZ5e8SwcVXXTrdFRkoGnryuXz/sytbhKU00yl53dsLa9QOXQJAs97fhdcsLhhg1eWR3MjfQTdsUFV2cb7MJqWFqaoMj/Bm7ut7C+Gs/g7CwNsY54urtz1iqA3sl1eh9mcNXTBQerU5Te62d48A7XvG1wPneS5IJ2lub6cfF2w8P+PPaJmSzu7KeZSS9VAmMEfrDOHasr10nJ7pCXtzdTfrzl145z7rd/7SUC8wu/+APazcbRdHDZC/x2TdBNSoFf/QI+jnsRg556+MgXhg5D33QRr/QkyoYUArOueYyLhzeR4THUtA/B6hBOoamyfM8q/QhPCsMnNguN6Em2xeAREY2FdGxezAPT0fJTEjLiGDEmcrQjB5fsDvlq/q3rlLSOySsoI00QmhHAowULqOFMaT/w/0VKLkfjZ+tJctsUzNeSlOqJYtud43pIMmMiTWuPuZhZsd3DzQv3xjej68BT+0YvlCS2jFlb7mzLne5pHlekctbKlexaRR9q4m2pE06OpX7snBLJTfakuFtUOhpc7COpbSjGNaNBfu2dYHfSEmK5lVouH3emBZCamMHtxAymBURdaYRGeBCQkEmnMBbM1OEX6U1tegk5FQPyM27erpQOWjjzeyOQd9xs0Bv1Y42c8BT6RwZIjXCVsVnpyOeWXxFF5fFk9QiPyxNE3nAkMS+Z6EaB3hbxtg7kVRRzO/OuHGlZ1CVic9LwTVLwbk27SVx5Jfmesci+roersQ5PJMc3Vunoah9yPiiJsix/cluHgE3cbHy5N2zqqO1I6wHvqgTGCLh+dYqGqkoC3L0ILW0+IiTGEgmMAVwDwLnKiLwEHa3wIzc4GQYfukJ4E2wYa8j75fDjQJi26KbdKMsi3hnJlBsJzERzKt8/50hlWTF+132oKc3lTEa5PE9s8XE2IWGOnEosRB5MGinBLyVWGTk74Epg36/TTeNp83f87NQ53FMa6LjjT1y90mC15Z6n/NEgQ63FnDv1CfHF+cwdcbP+63GbI+9yLv0jnYTdvs2jpmpyC/yQBwDWnnLBJ5JuwWaWe7mYnM+M0cw/VVdLnHf9C17LX/8ec13V012WRnhYBgs6MTI6TX11BeEuNiRVNVLkGsGjCdGgLpBxMZZgmwCaugVV3yDvSh45iR7EVNfJie+v9SA88CxhRcXy8WRrCBlxDpxNLmJcWFWm64iLsuVkdDodgsBoO4kr8CbaNofKIpkGkhCfQNFDc5qV320+TD3I5fxlK4LS65ge7SXJIUbWpbXeDhLPpZFc6ET9qKgzFyiJP41fuDOljxU86tLPEZAYhV1Vp5zIrtoA3II9uVKodCKHmyMJyU0i/nQ2E8LQvTyAW1gYQScTeSI4EBP4xKUQ4xBMffOkPOyfdy6WxocL71bofcSuEhgZJMN2z9fQX4O3bQJHg8uPc+7ffokF5h+b0wID5KfD90NRxhsliE4GW1F5SVBdDqcT2Z505RMKJ9JER+IQbBo8szNoFPW06Gv2FXImShkqa4y/RnxKHJcjM+RrT2r8iE0O5Xp4kkxgFjqi8YqN29ZDJQYL+10eICErAVGFie3Z/USc0prl/SwXW8pbTPN4tgi9bk9pm/krOCWl5vidJ8s6iZF1mGuu49ylTwlO9VcsMGtPOecdQZcgMEvdXNq2wOhIj7Uhr9WyhxINko7u1jqKCx5uA2uytW305HE6Lo+SSGdqBLfQ9WLvlkB6lCt5coM3i4tzNNU12bgkKp2YyiAvUuMicYzNleNrTwkkMyET2+g42Uq10pNKZLQXjpHxNMsWmDvcTvSlJjyblGxhMzDg6uVFhQVYBLYBeYs7kt6ELmR7XiKntpnkIDfEpw2a1izcgkvJyQ0iu0t08kYJt3EjLi2MqHphAtsgxu4WOcU53EyrlVNVHHeF+MxErsUVysf3Mm1Jqi4j9WIYj8Wrnt7hQkwiqdfDuCeiWHrExdBUCpO8yLg3AqziautL86iRdb9FWd80KpXAyIjpacqMwe7mLS44uZLb8nzS2JsCaln3j3Hif/mSOTB/709oNdsQkih1g/B9WwhpM8K1i51sGee79LfBH9pC4WHJj3V8/e349IoTbt6BPJ4Yo9DtGjaODly5kUzf5AL3U524ft2Wi85x9M1q6Su9zY2L1zlvE8Ldp/OWpT67U7Mxia/TKS45uuMTHMXk9CjRN+yxs7PBIaWGmcUpsny8cXdz4GZAGk9MZoXd8bwXx/Nkn0/myayiy+lOf8FPz7oqPHynBWbjGZ9dssLOzQ139xsE5OQZh5ksFyRJO4jLjz/mhqcPXh7e1Dyd5VFRGNfd3HC5dJ6WhyOMP63F+vpFbG0vUvKoj7mJLq7YnsXu5jlS7zSzodOSbO/MTdvrXI/KZ3x5hXJfH65es+FSYAL9Gj0DlYHYnL/KhevB3BteYqo9Bftz1ly85EtBzwySph/7WxexvXyO+Nj6I9LpfDnfdWsasiI9cHd3we+WL2MzS9wrD+fUZTuc3Ozpmltkvvc+NqeucNXBgeimQZZHHuN69hq2drb4lnayvjxFqtd5bO0csA0rZ3ZpgfLwa9ywteOqVzpjyzp676dw5vo1XC450N49w8iTcqxsLuB44TpVjcMsLzzGxsEaextr4kurlY8SXk7ugZ7Zm8DMjZCWXcLSrjZmdyoXJ1pIL2g6tJN4VycGqa+vo7X/KH2yu0qi3cd84+8ra8B8IK8F83P83jEfJsxt3q8pg9+9AXGtu1VJOe5ugw9t4EaJ/KHSl99keWcXxp9yr6GOuob7zImJ7+uz1NfVMTpvLEAbS9yvr+fJiHFOj7ROe0M9jx6bk1HuF0cDE8+6uVtfR8P9Vrmsr86LcnOPeeMk/5GOZurq6hlfOQyTrvcr91e5T8/y9BKbwq262DZWmJmaV4aGDDqm5zXGUVI9w30PZB259/D51x9f5Y0H9oxhg6GHbbIe1NU18GxhjdXZIVmGriFT/WlguKuB+o4n28Nh0/33qL//CFPVs740Rn19A5NGXZHW52ior+fZrLFnb9jkQUMDD3pNX+wZ6Gu+S1O7sAIo2+LII+obGo8seVGklBh+3EFdXR1jS0b0pCU6Gut5OPS80/Ost5X65t7tpUwmhzqpb+jYbpPXZ0eor7/LjPGjI2l5hvr6ekZmTDmySW9TPa2PTZZUA4MPGmh82GeCm/nBFuob2yyCvIhE7UlgpKUJ0lIzGBQDna/ZhjsrSS1u2VbO19x64Jf28xXSgSfqAF/YereCnJwcORRW1FrIaIwEhcXwhzbwswhIboCGh1BWD/ZR8G0bsCmE1fe9ITxARVFfpSKgIqAicIgQ2JPAiMkH/W1VxKdlU1pTS0XtHSru7Ai1dZRWFJOQlkPfpOkbdctC4H0nMJaVG7tS8+wxeKUq7gP+zAn+0gOuJEPFc9a/6wn1UEVARUBFQEVARWBvC4yCkYElzRzjU9NMTL8cxqdnWFp7vYXGnFhPTM8ggrpZMAJrWpjVwOJh+FzagnFUk6YioCKgIvCeICBbYBYWl460uLPzC4igbioCKgIqAioCKgIqAkcDgQ+mZmYZHZ9iZXWNZe3q0QsrqywurchheeUIyncU80yV6eiVQzVP1TxVdUDVgbesAzKBGR6bkIFdXF7hqIWl5RWmZufkIPaPmnxHQh5BMjc2WdzSsajbZHF1Vc0nVVdVHVB1QNUBVQdeqwPyENLsgjL5VjLAUQvCUDYxPSsHsX/U5DvU8ihL18mf/RmmpjD0jGB4OoVhyyCfE2sqHWr5jmB5UvND1UlVB1QdsBQdkAnMzLyydKheMvCqsJ8Ev+pZc54XpGV8akYOYt+caTnwdxu+fAkVsTKFwWBmLMT7BUFpbcFwMUxx4vhdB/jQBT4NwZDYhF5nkO85cNxeUw7UtLy6jlCxUbFRdUDVgYPUgX0QGNHsg16/xdrG5iuCTnHiZoEEQaT9fSYwct4tjpLu64uPbwxdxuWfzUpgZPKygRSTAr9nA1fSMVR0IvUOIrU9xBCaCX96E75IRppdV0mMSqjer46Hmt9qfqs6sC8d2JPACP80UwPtZGTnkFdWQUF5+a5QQV5xAemF1YwvK8txHiQD2+td7yeBEVJDb4kn/+e3vsVv/to/2/ZI/Y1//q/4N//m33AmSnGkJh14QRGWFwNSdhb8rj2GkicKQRHkd2eY7IefOsCJDKQN47UDT6vam9qrfKnXVR1RdUDVAXPpwGsJjJiDoF+ZJjs9jQdDc+i3ttjSbb4YtrbQb2p51FhAZuUDeSVeg8FyMnT/BEZp9E2/5sqQt/VeyWBgfrAJfydHbO0dcfXwxMPDHSdHe+zsPSh9OIa45229b9/xCJ2a7JMtLIaUPoW0rK6g124p+wYd0vyysj8h7rPFkNyjHFs8gTFpz/Phuedu2MAgKXN7THcJ/HdeF2uu7xtHs2BhSrnyb3gh8Urad95x8OTYDPr8ynx4joTI011QPb/4JXuWrQMKxjuTLfJ5t3xiysHObYc/Qvm0kHHnJuLYeealOEVdtfMGUY/seulhwO2rpnEnViKOnaLL7e1ubHYf73xADN1/Cf4v3GKcv/fie3ceWUZd9VoCIzDYnBmWfSHt5dpkebKF9Lx7rIh5F+ZoGF9RkQjI9zOEJGaLPGwsxMnZhcK6IblxF5n8VRXO3M8pyriA0+/9R375V37lhfCv/u0J+oz+MA48naLwpCXBX0Wh1wnLyhaG4GjZ47R+WYuUlgk/iURaUAiNISQaPk9CL1thLDg/BBmR1rnb1Un/gk7WH1F+trSjhPs54xySjfBasjXxkABHJ0LTmhSXDksDRDs44h1ZwZJkWWXnBd0Q8hnWqcgKx8nZGa/AbMTU//HGIhwdHSlqmUQ0QZ11WTg5OZFR+ViuZA9zGXpB/jesCyTDJtWpiVT0Kb67Nxae0vOsjcG2+3g7O+Po5ISTsxsP+p6Sk6Rg6uQZQtuIcFFtGY3Dl8ovGjZJ4mljCU7OTiSVtMgT7VeHHhHi4IyzswtNAwuy/hck+OLgGcbTZaU2qs2NxNHJh7bJVVnGmfZqHBwdSa95KpOX1f5WPBwcicp5oDTQy4PEOzjiGVqCRhQmwyw53i44eqYyLkdhoK06AkcHB5r6lXW+vjTNb5h3lhWH6PhIDNQUyDqTVPVQxmprcZQgDyccE4sVv0TSJrXxQTg4hNG9oEx+7MiNw9HRm/uDyuKg402irDqRe1e4CYfFvno8HJ1IKO6R45Q2J4gPdORWSBpLOtEiLpMb64iDdwTjonIC7hfH4+jgTuOI8uGPubHam8DMjpCeU8yC0VmbLMWX/MyPNpFR0IT2EBIYIc5MVyt+8Vk0trQyPKWVGaq5M+frvF9WN8MoZ771L7aHjxRnjh/w9/7HD2k2Lkz8dd7xxs/Kc18kDI63wbVGsaogoR/ow/CpF/zQC/7MA0NOD3qdpFxvqYS/CkAa37BsK4xQImkBp/ho8geUCkOSlsjLSiK+7A5tvYPopAVygp0oLK/E44oDOY1d1KX7kZlbQpC9E8HZTUpFYoEVrqxPy8/w83ckq/4hXd3PmBl9iI99BJVV+Vy9dJu24Wla6xu4d7eMaxfcqO5VFsh8Yz2xQPnfSAa596sl+MOP+eSsOzNroBsuIib5FiNTE7RUpfJnn1oTW36fmeFWPnXzpqC+kYayLM5dc6RyVGng3+idB4WZKMNr63TWVVN/vwHfc+ep7ZvmSWEWty7H0NrezuzKFu21MTjHF1CW4oFtYim9D4twjEylKieYi0GxjM6MEuQYRnllCTcu+dDY9YRYz3CKSspxueZKWdsojZl+pGcWEeZ8i4iCJtqrYklIyCLZzwe32DvMDjfjHBVKZX4MN2+40r8qs5xD2+n80vwW7emGlicP27nfUoPzGWeeTMxSmOVLcF4V4f5XiWjs5sndCnw90ynKjMTOK5+ujnt4OydQUZrMVbtEng51k+DrSkVVBdesb3G/t5fsoFuUV1XhcN6Omu4JGkoj8S0oI9v7GoHZDbTfzcQtI5uSMEdcI0oYfFKFY0QCVYVRnPcOZHBVITVfmu4D0keVwMiVjY78sCBsbM9y/ZodDQ81ckNizoz5uu9WCMwYVr/9qy8RmH/wiz+gxWwERofhihf43jcSGGV+ixSTAL9+An4UjSRbZozzXrpq4SM/pKGVQ0BgNHilJVE6qDRAmuH7WF25idtNG25HVbM43sWVmEKZ/k+1RhIa5c6NuCLZMrP5JA2fmHCL6wCY9FDWJ+0wIaGuZNa00j0yR29jHN6Vj2R57gRfIe/eU3kfNHjeCqPOSORMcbw3/3KdMk+xTTZpEVF4FzaxNXOX5FQv5O89DeNc8Y+jXzgoX+nlYmqxbM0S4LXnJOMTeM9iiawpD5WM3iTTzpmWZ4sM3svli2PW2HmFs6DVUhZ0i1bZMfUkvjcSiPN3p65XWEnWCLZJprAgFp/SRjmajhQvYkNcccuvlI+flYaQGhXIzcRChP1KGi4kKsIWm+hcHgoD1VIzYSmuZPkXUFqmeE6+HR5EXvfeX9Oa0n+Y/sVoj1YzSmvzHdKz6pgYe0yyny8CTW1XPb72WaSVBlM4KBRvjgzXKwQlBZP8SPFUXeBzjZisNNwLH8j43s+1wz82FKfMu/Jxb6U74QXZpNukMCqimO3gUngU8TZxdIt2Qv+M65HJpAf7UNk+KkxhhF4Jpc4COigqgZGzcBkH28uE1w0y112B9y0PJowWp8Ok6DvTarkEBgx+IXClwEhgtpAys+HbtzDEVmL4xA1OpSMtK0NIUnkB/G0Y0rz+0BCYsqE1WauGGhL4kVMU80sa8rxdSU+O5lRahTx0NNeZSnCIA8fjCxD1/NazfHwToliyMAumSadkfVqfwMvpJBcd3Iksbqe9OoCwOx2yrE3J58lvHYT1UWKio8gu75blfC+HkGQCM0fW+XSGl6bIC/AlOzuLvBJ/mayiHeC8VwSdwkC12MOFpHym1mUYGaotJj7svjyEIuZMmfC3pH+hC4aNWYpCQkkvv48x6WysrtCcFYJzRjF5twJ5MCYY2ixxl2MItvWmsVM0ueukXM0mK9GT0MpaWWjxsUHo7fPcLiiWj0cbQkiLcuZkQiEj4mXjVcSE3+B4ZDotArOlDmJy3Im+mUVZ/ojcoEbERJP/YFZ+3pKwehtpEeo087gaD69bBEWn0d3zgCSnCFmXlrtbiLiQRkKBC1XD4jOIOQpCz+Id5kJer4JHVewF/BOisClTOhsdFV64BXtxIVchkE8bggjOSSTuRDpjwqWhphf7sBACj8fROyEY5AiusYlEO97mTtO4OEHK+SjqHpl/2E4lMHJls0ZufBC5LWOsPruD4y17xoyl8m0ooDniUAjMKGd/60ssMP/o+zRPKxXmgadNqH99KfyhJ9KoMiwklVVjyOlSCMpgL4bQKqQ1YYHZxHDJC64UyxP49BY0t+ol3ASc0gK3EmMp6F+W5wnMP6vlqm8cazodaT7XSS0qwiUwkLElLWWpHqQU5eMT6s+D6SVaigPxSy1QGn0LlFPWJ80TotJilUYFGGnPx/Z2IaurCwQ6eHLv0TMKM+Mo6VbmfbyX5EWQDrlOmSX1ZCz9i7A5PsCZY9/mirc78uDiyhNO3QrmoZhGoOnidEwmExsSqzM9ePpac2fQ/A3DS/ptJFPCGiBtLFGUGEdRnTJ3xSDpmZ0YlWV7XBLKjeRyKtM8iGuaZOVpKQ4h6ZTnBhBc1snqTDP2PlG0PWzA0TsNrXaJGA8/CotKcPGOY3ZxhdzQ2+QV3SMg0o+W8UUeVEYSmZZCZHwoxV3TjLTl4JWSyKO8fPxia9EuDOHk5MP9WcWh8KvSfhjPi4n+G2vrLCwpDVKa01lyGzpICHPm3vQaXSWB+GU3UpkXRUThAJqpZjydoikqTME3sQXtygCedsE0NFZiH5aIdlVLRMBNCqtLcQwMY0m7RlqEHfktrWS6+FM6vMREVToOKYUU+IWS2jbFckcZNqH5NJSG4Z93n1VNN/auPjyaNz/eKoExzujWzrbhefJTjn/hRP2DOYs34e5VGBUCM8GJb33jpSGkD/7hd2mdMx+B0esWMJy6BadzkLaMQ0XCUrkrSAU58Pu3MDxcsGzri6jcRT/QsEVSpBs/OX4Gq8s3eTi1yMNEH744dQrngHrm1yWGayI5eewE13xKEeV/oSOTi58ew8ounaFlvbzC4F55a47rQp8MWxoivM7z+SkrLtm5Mbm0Rqm/GydOnCTk7gBr2qdYHfuC8xcvYm1lTW3vtPkXTDSHFUOeQ6mh0quYQWMl35rsgI1zlPKV5too3vHZ9K+AQTfBjRvWnLK24uLNGxQ/fGrRk58FN5O0w/h88lPOXLrEOetL5HZN8rAohGNWVtgJvZjRol0awPbKZxy/eJ3OyQV0G/N4On3GiTNW1PWJXjzcCb/N8RNf4FnUjBh07cqI5bNjx7FNLpcn7S515nH5k885a5OEmIe6NVaH4xc/45hVCB3zoqwsEuZ/geOffkZZzaBF4/ZVy6wod7qNJZL8bbCyOk1QeCar63qePSzgi2MnsfEOYV63xdbcEK7WZ/jsvAPl4ytizImwG5c5fvIyGd3TIK1zJ9qe4yfO4Jfdw6ak51GuD8eOn8Qp6i5aPcyO1HLu9DGuXPViclbHynInNy5/wlkrW/qGtEj6ZfzdT8rlvdJC9HRvAjMzTGp2MStyi6g0el/2uzzZesi/QgJpcxPthmiKLPgrgP1WyAbxTYiO1pIg/t///Tf4J//0n8rhl7/577BLuMOSXiyHbSYTtcB3sAvDhzfgVCrSoGYHeTGgX19EikuD/2KDIfmRcs1cad0v3vJ9onaXWF9dZUW7xqaxzGi1qzIhNpWb1dU1tnaUp/W1NTaFtd3S9U70vvV6VoV8QgbZ0iChXVV6h+JQt6VjRSvkX2VDTMR+I/zMpI/vKI1yY2+M25T3Ch7KkWyhEmRnS4fQEe2GohQWb7kyGNja2pLTLPJ5Xc5nST7ekHXCKJ9ufVsm+bR+A+26ouimr3i1q2tK2TA+J8qGbMESK22CbH0wlQ1xRrexwZqxYMk1tbSFdk0Z77d43L6ingmsNjc35TKltE4KvptraxibKxnDLf0mqyZ8RVVk2EK7uinfvBNvccIILwJ/WeuMJ7bW11jb8b26tLnOqk55q3yftIl2TbG8WALeryUwIsHS6ix5GSnc6x1DKNfa2iprqzvC2hqry/M01+SSXfMIIdph/IxaVCxCXlFIjk6lqyj6mnaJmdk5OcwtKp9pCg02n5yKtUV62ovhpCd8xwkuxmHwzMDgFAMfOcOfemDIM67/Yta0vhlOoqIQOiTCdgMlVybGeEzXt9d8eX6/+fJj/zLulE8uM0Z5TJWZSXZZ/kOUb+8Ce4HVdrzGdTVMxzuvmeodgZnpuqX/70yz3BF6Sa9frk9NumOSzXS83ZEy6dI2bi+XDZN+vRTHVyQHpngs/f85ViYdMWKzjdWr8TaVzedxvFgXbeNvXItnpx6a8tmEz3YcFoL3awmMSLSAaW64k5zcPHkl3sKKCl4MleQVF5JdWs/0qvzxuEUVQtGE72cdGFMGHb1/hcTs/N2psOaT1zhktKVFuteBwSsJw5kwDNeTMGS3Ik1rn1tlLKSwmA+r/RMMNY0qVqoOqDrwvujAngRm52qHW5KBLw/Pm0dLA06kbGxymrFJ5bthS0vfe58e0et8VVCJi0V1Bt57XVX1UdVHVQcsSgdkAjM9p6ycuKWXeFXYs/LSG1757KviPIjzwtqgWVphYVF8GWKZaTwIHCz+HTvJ8Wv00OLlUNNukfWAqjevrttVbFRsDqsOfDA1M8fToREWNIvMzi8cuTA3r5FlmpmbZ9a4fxTlPNQyLSwyu7zMrHaF2ZVlZo+oLh7qPDqCdYOaH0evvlfz9P3KU9kCIzJdMogvBo5eEH47pufm5SD2j6KMh1YmMcnTNHy0pEE/NoN+ZtcXSWqeqTqr6oCqA6oOqDrwJTogE5h5jeKY6flMlqO1NzEziwjqZoEI9PeCWzL8nQf8d0f4kTtcTISSHgtMrJokFQEVARUBFQFLQeC9IDCTM7OI8N5uhmXq0tNJTy9lwuiF2vxY6CG3AL5zAz6Phox70NQF1Y3gHAPfsYGreaA1LpBi/gSrKVARUBFQEVARsCAE9kVgFsd6yC8oIL989yfU4riS/NJi8iobWdiwzMbmfSUwT6uD+G//13/iP/72r2+vxvvP/9X/xn/6T/8315Pvm1cNK4vhd20gWfGl81JinjyEj27C5SLhekPdVARUBFQEVARUBF5AYE8CY1ibIz8rlXu9o2hXV9GurLCyI2i1WlaX5mmqziG3tkv25fLCGyzg4H0lMLN9VThdvsTFy1exc3LCycmBa1cucfHiNTLuPzNfziw8gw9tIcJIXoT76W2SYoANZaVHnj2AP7oJeSYvx+ZLsvpmFQEVARUBFQHLQmBPArM1N0xq1n5cCbSQlv/cM6klibk3gTHQXldAQEAAwcFhpJbelX2WWJIMXy0ty/j9+bf59//+378Q/uN/vsyg4jD5q0X7dZ/KTYOPwkBeAVwPkYlwrQD0OigtguPxyL4OxHv8wuF4KhbJjF/CYZPOZwOMreywRG7NkRkbQGBSKcKRLovPSAgIIL28W3l6fZLsgABis+/Lq1i/FKVFndDRXJFBUGAAEfGlsv8aTXcdAQGBNPZp5JRK+k3aK8poGniPh2xlJLZorSihdUyZX7i1PM7wZB8TXR1EBgYRGhJCUGAwfYNj3ClKJzAwgICIVJ5ptpm8ReX87sQIB47dd4tpfCTcFavbu0bAIG3xsKGa+71GL7zv+oWHJP69Ccz8KOnZxSwo7iZeKdb8aBMZhc3brtVfeaMZLuyHwAx0NVNQWELw9WOcv5l5ONrLPbEc48xv/PPt4aMPPvhA3v+5X/gebWZrXwxwKwBcqo2pl+BRO3zsDp8Hw1PsDE0AACAASURBVJ+7QnQrGP3C0FQBPw6EKaNVZk+ZzXmDBuekGIqeCdd0wqXGKuVFaUTlFVHd3MWGYYmKKCdSUtKwP+dEWfsz2vJuEx+TiNtlR2JKOs2Z+L3fvTqMn/c1onLKqal7wPxUHyF2gaRnxHLpajCDi1t0V5Xws5/8lCslD/aO70jfsUrg977Pp5d9WdHB1nAx8eluDA8/pSwzlD/862P4pxcx+qyVT51cSMwvID81mvM3Pbg/q/ivsWR4nt3N4cZHP8HF08xD0ZYM0ltM20BdNtc+/An+QXffYqyHPyqVwLyQh1ry00VFvNNl1gs3HLKDcc799q+9RGB+4Rd/QLvRG/XBC6SDK17gt6viS0yGX/0CPo59MUk9dfCRLwxpXzxvkUeLeGckUz6kmLe0k+1csXXCx+UWsdnNbM49xiY6T075VHMY4bE+OMYVIvrour4UfKIjFKOURcoGaIeIir1NXc8IU0trDDQn41mmkK7q21cpah5C0kvUlYdhV/a+ExgNZTYZxN8OIbiqC+bvkpLmhTKHfpprwYkMi3xe7eNSRtl2x+9+ejQ+kS2WqgHb6RIWmK6MHEJ9GrfPqTvvDgEZ77h4koLq391LDmHMKoHZkWljdbkER+bLa5PsOH2Idy2RwAA+wXCz1IirHkpL4I9cwDcPfnwLrhUi+3cXd9wphr8JgfnDQCpfJDCj9xL56GYgz4aekeLqQX5mIqczKuTpPou9mYSGOnAyoRDh5MIwVIRfUgxa4X7MUrfNKbztPuPkJRv8s+/Tccef6DplHlNr5nnymvvklNeXBmNb+r4TmHlyLmYxohkh3d+XyrJCCkr8ZbLK2lMu+ETSLfyqLvdyMTmfGaOFe7y+ksSge7IzUEtVA1O6ujMzCfZRLQImPN71f1d8LPEqgXkBZpXAmOAwbJKVGkR+hzxTwXT2kP+PYf1bX2KB+UffN+MQElBdAN/1NZISA+QUQYyx19nbDu6FsCr7RIWbfnA+X3G9avG5ocE9PYmqCWUew+KzKi4FZ8ipLgq+RkpeNvYhkawY4F6+F8m5abiGhfN0w8CT2lB8kzItmzwv9ROflYTJeDfSloV9eJWwHxFl70Rd97ws651Cf64VtVt8br3bBM6RcSaBQS2sP+vmzMn/jlOoF7Jtbm2Asx6hdAoCs9SNdXKhYplZGyco8ByVT8w2vvtGkDxKTcPfQ7UIvBFoX+Pmh9FRxNyu/RoxHL1HVQJjzFPD6jjZvrcZ2mOuz+FSgQlO/OtvvDSE9MH/8Me0KW2NecTZmIGfOcKNste/v64c/psj3Fcccb7+Zku4qiMq1Im/OWHNhesOdE3N0xzmzEmrs9i6lzO5oqO/1J8zJ05zyT2PyTWYaYrnwmcnOGOTwOM5C1e+rTmCXc/whdUFrjl5Mr24RJ6HE2fOnMa7pJVV4/zTppp4vO8YJylbQraYJQ0aSpxyGZxXJnTXR1hx7kaQQlDXh3GKSOWJGBXdGuP8lTOcvXiBq7ZXybjXYdkkdgeWj4uKiY9o3XFG3X2XCPRlZpAV1/wuX3Ho4t6bwMyNkJZVwsoeFvzlyRbSD+1XSMKGr2dr3ZLt919FtzapSXbgt3/9l/j5n/95OfzDX/oVTvnlsLBHfn6Vt73RMz0t8MfX4GYhzO9uuDegsBh+7zqENr1RtOa+WdpYZXZqkonJadblBl1ianKSzR2qNTM1hXaHri1MT7G488slcwvxmvdvri4zPTnB5PSM0tBKa0xOzjz/Ch6QJL3ssfY10bwXl6QtCcOOfDfo9cahIcWprOnSxoqGyYkJphcOwzyv51lnEEu7601SPD+v7r0bBATeYo6Zuj1HYE8CI2mnyUpLoWNwDr1ej6TfQr/1PEh6PfpNLY8aC8isfGCRX+/s/RXSc0CO4t781Cj9/f1yeDZiQZ89PmyDv3aCP3EDp0yIKQUx5PJTD/iOE8Ra/mTGo6gvqkwqAioCKgKHAYE9CYyYfDDd30paZhZ5ZRUUVby4Gm9RRSV5xfmk5Vcysby7J20ZELzvBMYycuEVqdDOQ1E93IyAn/rC6QiIugMDppkWr3hOPa0ioCKgIqAi8F4jsA8Co+AjFtJZ39hgfWOTjR1BPreps+hZ8xPTM4igbioCKgIqAioCKgIqAkcDAZnALCwepS9vXs6Y2fkFRFA3FQEVARUBFQEVARWBo4GATGDGJiZZW1tHq109cmFFu8ryslYOYv8oyqjKpOarqgOqDqg6oOrA+6YDMoEZHBljaXkZYYk5amFxaZnJ6Vk5iP2jJt/hl2eZhZVVFnQ6FqQtFvQ6FlZXWVDzStXVI1gfHf7yevTaCDVPDm+eygRmTqMMIYkP4o5aEIayyZk5OYj9oybfUZAH3Sq0PoL8JqjqhGmxwpeaV0chb1UZVD1WdUDVgXelAzKBmZlXPMnqJYO8fsNL/+Lt+9heeu5V8R3geZHs8akZOYh9S0zju0rTXisGvKv37itekRdbq0jp+fBDV/jolvL/Ixf43i2wzUOa1MprjewrvgPUKTU9r6gn1Dx4r+oXtRyo5cDcOrAPAiOafQOLmnnGppSveUxf9Zj+xXnNquJB1dwC7X7/+0xg1rUaRodHGGir4trHH/OXf3mKjKpuhodHmFlaM19lK8jL5gIGW3/4tguGmEak/kmkxSWk6Qmk2vsYPnOF/+6P1DOnkhiVGJhPV1XsVexVHbBYHdiTwAg/J0/aq0nMyKX0Ti3lNTUvhju1lFWWkJiRR++kMhS1m0SY8/j9JDBCaujKd+Rb//KX+ZV/8Uv8/Q8+4IMPfo5f/KV/ya/8yr/kk2Dhw0asmnrAvQgD6NEhBUbCH/lg6DUSFEFqdoateQw3feCjCKT5LZXEHHQ+qe+z2ErbnPWp+u4Dri/VcvjacvhaAiNGjrYWx0lLy2RIo5MbvFf9DHdWklrUIruFNxgsJ5NFevczhLR7lOywF1TJYGBNM0iavw+3XN1w9/TC09MTNzdX3DxjeDi2jLjnwOUUJKW/Fb5jj6F2UiYm0vAw0vCSQlLWF5E6h5X91Sn42B6Df7NybI70vlEF8rx0mHB9fkYhizuPxf7h0rtdqTfwggsBcXX3SucmHN7HfxNasuzGg935vftY3GZJ9eer8s0km/y/Sw+E+4Tdcu0ezpZ2ndjpcsEU5+44dh/v9mJw4J2xN6obvk5d+wLacr394pmXy+EueJF2gfcS3i/l2Jfk4a44LAHvPQnM5swwaTklLCk+yXbjtn28OKH4QhKedi2pAIoE7kVgROauz3fid/kMpy760j67IfsweVXhPQznFQWe4ty//eWXnDn+/W98RIdxWZwDlUW2voAhJgY+S0ZUQHq2MARFwl+EID0ZRfIKhx+GbVtdpOQU+FkMktZooTmwSuMNKxyh95KWnPpa2qYU/RHlfWHyIc52F7nsmYjwMbzYXYLdWStsvArQbMDm6F08Tp3hgl0Cg0uSKDwHTyr3gakoIwb9Mskhdpw9dwGboATm9RL6hRGiblzi+CkvWmbEMPImrQ0ZnLt0lZCidrkusISK7qD13GBYJ9XFnui6R3IduT7Vwd32Eh7fq8X23Fl++unnnD53heZHnfj7OGJ94QLnr9iTe++pQtb3kScHKpMpPYKsbOl5VJzEuQvn8IrIR7spsdTZgP3nVly+fJm6vjnW11YI9brBmYs3aRpflt3PJIe7YnXmAsU94zImTwpTOWN1Bu/kJrnjO9NQzOUzZ7EPKmNZAt14E96nTnPuRgzPVkBa7SP80llOWvvRMSHstWsUpDtx9tQXFNQ9lptgs2Biwuad/Ityp+NRfgJW56zwjC1nUw+akUfcuGTFCa8wpnRbGFYWyHS15dRJeyqfaWFjncpAD86euUxWyyQGg46egnCsrKwISH3EpmRg7G4al62suRVWy6oOtJpuXO3Pcu6GJ6MLG2zoxgn0OsWZ87Z0DS0jfDFlx/7/7Z13bF1Lft8fAjgOYmwMpPxhGzAce+N1ECBw3LCJ43VZx4693vXaW7zrbHad994+taenQlKiSIoSi9ib2Hu7bJe9UyyixCo2kWLvvfdOiuXeTzDnXEqUKD1R6yfykBoCw9PmnjPzne/MfOc3zZNLn14ivWlAabwcN95vFjCzIyRn5LPwhl0C5kdrScmpZe3ECRiRl4xUBLiQWdRCW2kujj5lSiFykgteRcAYx7j0lV86IGD+5b/5DvWmhYmPlIB7guWmN3hUqAU1RnaXZzHaBMD/sIZv+WJonmFXVOSiRf/kAfyDL4bRdW0X7IJGhgUcdVHk9Kub8u1szxIbE0XqwzoGpxdgd4bIu260D42Q4G6H7l4ZWbEBPOoYoCDUDY+Ye5rlncKnpV5CYgLpX9klV2eFrrGXstQEdLkdtD1IwsE1g5GxNu5GxlHd1M7c5g7Gd1Koa1PkPctLSkt1lZh/vMC5c3Z0zoFhrIDIOCemNjeYH6rhJzdceNg/x9OZZs4GxdA+Mct0fxPWVlYktarbaDx7n5YwNMLO5lMGOjqYXpxFZ2lGYcs4HTkpONkm0j2iWlWr8zwJLGljsDaBa4Fp1FXq8M6qZLSjgKvuQXQNduLmlsjQ6ADeVq4UVdRx10tH98AwUU4upN9vJTfej4qWPkqifPBLyKE4K4r8ylYasqNxCEplsLkMz8RsRnqqsbGy5bGyQ63GufG2aWk0YthaVzZMXduYxN/cibbhcVLinclrH+V+kjMeubU8Ls0mML6evpZ72NlGU1FZgldQKcODNdy6FkhTWz1hAaEMjw7jbmlFYV0NsYF+DIyOEnzrBtl13RTrg9G3DtGS7Im9roCKnDjCq9oZKA7nhl8qrY9T8EgtYqy3jKuO7rQvqlaN4+SpFDCi0QsMVWUR6e+GW0AUqeWDSgvhVAiY3/rlAwLm53/xOAXMNkYrL/CqNgkY0e2wicErHP7LVfj7YAwTm8+ftTyE7/tgGNb4jCRFwCzioY/n3uC6wp/ZrhI+/OwazlbXuWmfxEhXPVfjC5S4zbbGERzmiJmuAKEltwcy8NGFs6KxBsBe4aQImI0x7rpdwyMkGkefMPpnxolP9KBWTGJc6yQj2Iq7MTouWtzA5vI5IhKeIGwyJzkf7cX/rY6KgJkj1zqbouxUnBJyWB2rJinZA8XwuTmIuVcEHULnLndgFp/DjKmHvq8wFz/3cqV1q1nxp8QPWB8i+pYHHZObTLaUYHbZjMvmt+gZnaTAy8tkJZkh3DKWMGdPqjvmgU1irVLJSgkgoKRKySftOR6E+1vjnVekXI+UBaOPdMMiPp9xkR/Gi4gKv4lZZAZNYpjlSiOR6a7EOWdTfG9Y+U1wVARZLeL9p2+mqbB+LgzXExsTQmx2A3OT3cS7BiJiu9peS7BlCgkFXhQNi1w6R5bfFe5GeZHWoQrhorBrBCfquHOvVcGnscgFjzBfbDNqlOu+yrsEZ+lJtEhmTGiShQ5uhoYRZqaja1pk4FHsoxPRedzlYcOY0uDXWURQ3vqG2ctvK9Z+Bv9SwIgMYlgnT59AdHwKyQlxxCfmsbqrra6wtypADUZ1bIKwwGhOwIAxOAwupppEyg7GsGj4C08MVW0Yb9yFH0RgWNxWnhsyUuEn4RiWTRaZn4Hkb4vdz+RfFAWGRTySEylRSgEYro7jR74ZSiFREW6PLjqYC/HFStrMNMUQHGzP+agcRBmx3ZuKV3QoWuuC3cNCETDro/h5WxOWmklMcjq5eVVEpbhRtyQETAdp3texueuDX40oWucJsb5Eu1rGabJbbC9uX/jRJGBSryQxur5KZUQIQeFhZNzzVyod1vq46hFGq6iMlzowT8hlTpgbgY6SRHSJTUqjSqvCT3BhfWGQZO8IKjqHXxg9MfEoGfO4TLLcvGhUNr6fJuBGNMGOLlQqZNgk3CqZdL0vdwvLlTi3pLkT6nMD96x85XqoJAh9qBufxmYzKqrLkQKigq04H5ZCvVgiaqme8BQndHZp3MsaUX7jHx5MVuspFTBCs022k5WdTGhQIFUNDSS6BCCy1krbI3xvJKPLdqVwWBBvjgzPq3iFu5LSrgqYAv9rBMZHY53frGDVkOuIR7A3ZmmqgOwp9SQoM4HYcwmMCR7Ot3AjNIjgc1F0TgpFOMStSB0xLp6U1onuPyMR5qGUtYmMf7yCUQoYkeY78/g7uJFUNcZYrQ47y5tMKC2ik2uOVCoc4ygXf+PgGJif+9d/R62oNY+DfOKbzRXwdUeMzUuqSGluxdA0oQqapUmMJa3s7sDu7hJ87Ijxjtqlp3QraVrALOEY7kfYw3YGhoaZHqnnjoMnLZ2d+N22I6fiEYF+d6hsaiUq2IPsqhp0YS7kP2oiLdqH0LwqRdxoseJS+LTcR0C4N42TC1SnJBIQW8G91EhCE2uoKkngblQpNQ+T8AzKoO1xGVZWLgxtiPLu5Oajn0ncKAJmloRPIukSderaLNd++lU+tnJAsc2tdnPGwY8novxfbudjnxDqegfofJzHbc/rPJkToB1vxfC6eAse7K5PE+XkRPL9ZsbGJ5lf3WSotZYng4PcD3fEO72C6oIA3NOraHkQiXtCLjUPdDjo8mirS+VOaBw9g6043wqhpbUJD9dAymrq8XYMoK6xmWAfX4qqe0mMciGr4jFZcYHE3ntATrIfurwqHmbF4pNVyHBVEXb+ibTWP8DZPpgOMXDmlHFNGZ+5tkp3ZycL82NE216hpLGLxEhHkh61UxR3h+jyVuoKEvAMuc/juiycfbOoeZiDk0cmrS2l2Lsl0N5ag7OXJ61tbbh6uVPVWIu3tzNNre34+TjzsKOPvEBfwsubqI0NwT+rkgfx4XjnVNGSGYt7dCkttXrsI9Nof5yLg28g/WtC7Rxv3pYCxmBUWhBbo904WF/DwuoWzf0rSkXyukx8Eu6rAmaaq7/3Hw50IX3wS9+l+bhaxso4mHWMdnfVKdLT+7qLROH4zG1i9A+Dv/LBOLKh3teqeBHhUrp+DBSlh3PF4jrXbe/QNrvJWGkSZhbXCE/r5KkwBbfkc8PMAm9dPWJY2dZQFY5XzHDwu8/SjnatfsogXsMa6VGuWFy3xNYpmWExlWRxFE8bCy55RDMoEu/pAlletzG/6kFl94aSt05CfvlCw6hwYZX6xEdMmGY/DJcnERGdx5Z4tjlN4r0yRjfEAM15An0cuWZpia27Dy2T6irUX2h4vsB8I3hg2Jwk1vo6N25aY2l5k9zOabrLEjCztMQrKI71zV12tmcIcjPD3NGHsVV1cHd8kAXm1g60T6pdrC15CZibm6Or6VPy92hlHlfNzAkobFS6HrdHa3G6Yoad9z0WRYG21IX/jStct9Mzoiw7tk1OvDPmV8xp6Dj+7ox3kWYC792dNTIi3bhueY3EnCplpt/8yCNsLCxwj85UsBL5LtzZlqu3/WhZNYiFtkgPcMX8mhMVEwJvI605oZib30BfMaHky5FKPWbmFoRldyn4b4pBvNZmOHrFsPZUNCDH8He6gpW9L1NLasmcGmmD+fWbNI1oA+83C5iZYRJTc5VR4Uqz4DX/Vibq0Gc+OoGDeFUFqTSa9sXtXZDxqN9pwMBYdykf/eAbfPWrX1Xcn/z135NSO6BUpsfW0hciZWkM41kn+FtfjCXdGBZW2d3dZndzBUNvD0YbP/hTJ4wVI9oXL/sqiH0UOnD68tRFMVvvZPHuQJTUrsp9t0Uxt//vqDmvne+ZUDBZBPYwUcK3l+jKs70nz4/aicNrWtd74X8e5ANnSgNq311REe//E3Hc/3dwWvVLeeOlqdrity9Po9Y8bvvKibcL636kODCNWpQrL+N9EJuX3/Hy9Ut4ix7xF71oEu/PFTBKq3JrkaKsJPIrnzA6PsHY+NiLbmKCkaEe7mXpKajtUSqbY6sYX0EQkQZvmkb9dmR6TaZ+xbeP/70vMXDf5bEPEBQF0PIMRs8o+Mvb8CMvOOsPP/WEv7KDjyMxtEyr4uWUmYWPnxcnicMyrJIvkgOSA6/mwOcLGFP3yubCKA8f3Ofew3KKyg66gtL7lNa1IbrEhBrUEtjvt4BRE100dkR7R3FaSh9Td5FhcgJj5n2MvtkYI0sxtowhWmSK0VKTwvDVmUlLvJdhkWkkOSA5cNo58EYBI1bWfNHYt68Z/4pTrQEmgjg2Oa04ca618L334TGJGLWHdf8YGJlW7z03pHiV5ZXkgOTA53BAETDTcwvKipk7uwZOmxPL5S8srShOnJ+2+Mn4nD7OyjSVaSo5IDkgOfBmDnwwNTPLwPAoi0vLzC8sSicxkByQHJAckByQHJAc0DwH1C6kuXl2dnbZ2dk5lW56dg7hTmv8TnS8xNLkYimeV7lTyscTnV4yTWQ5IjkgOaARDigCZmFJLAl5ev8mZ2YRTv5pEYEtaOmE4FS4Hg130qC4HZbfsPmWFqMiwyQRkAhIBCQCR4aAImDmF9UlgY/sq0f8ISlgwLCxzrrYclRLf6P9YOYNf2YHF8PAPh6sQ+Fv7eHb3lDSq6XQyrBIBCQCEgGJgIYQOJyA2Vqhs72ZuifNNDQfdHVNT+gYEpsmaPPvfRUwC4N1RAUF4e9gxm9/6Ut86Uv/kQ/N3QkKCqakRWzKdYx/E93w/ZvwUSx0zogpR6bA7MLyLATr4I9sIb3zGAMpPy0RkAhIBCQCWkXgzQJmd51Hxemk5D/kSVs7za2tPNnnmtvaaH5SR2pyEpUdY2815fqoQHlfBUxvkTd/+N9+h9/7/T/gD7/2Nb72tf/JV//g9/nd3/1tzGIqjwr+g98RexxddoVP9Cjr6R/0od5JTYavu0Dn6e7ifF305X2JgERAIiAReD0CbxQwu/MjJCZnsyBGWX7O38JwFUnZNZ9bH33Oz9/po8MKmLmxQQaGZ95pWI725StkOtny2WefveDMrkcxoe4Xd7TB2ftaTTH8L1cY3lTvPKiEez3q+XgPxFaYhM1TVehYF+39UuNHI0+3tth+aZn06ZFeeoYmUDvwjIz09jKzb4zPZF8fY3PqHjgaj6ASvJ3VcXp6ephaUIWlcW2K3r4BdU8WUwQ2N1ZY396zqp2EWH3RYTSytraqbNkh3mw07LCzu8Xm0iL9vf2Mj47Q39vL8vpTVucm6evpoWdQ2b75iw7IO3nfzvoiPT29zG+auqV3N5kYGVB4sWjqql6bGaZvX3m6tThBb/+YMmBfCZRxnd7ePlaelUVbDPb1Mbf8fEOK6f4+RmdWnsVhYWSQwTF1l2Vx06Bwb/AF7j3zfIpOtpbmFKwWtp5jMznUy6Bp408R1bX5Mfr6n/eEbK1O09unbsWiQPF0jb7eXmXBWeXasM1Aby+LG8/fOT/ax8D08wbj6lQ/fWPPx4/urIi8PqIZvN8oYHbmR0lOz2dR2Tzr9YxYGKsjJbcOU5X0eo/H8OQwAmaiOpVbH53lzKd2ZLQ+zyDHENwv8JNjnP2lXzi4meMHf0n9c05+gd875Kv8guFatsnzDiTpVUtLcjmcdYWfJoJpEzwKs+DHIbB0EirDZQKyUnkwspcLDHQ1F3HbxR6nkHQW2aa/KBDbK2acvxxE99RTZh7H4/jpJc6cdaOi27TD5iFhPA5vg/Ul2Fifw9raGq+wDBamewkJs8Ts038iKKJAEWk9lalc/cEF0sqPuZvyOAB69s1NAn78Q6wiVZ5vjT4kuzicnvpK7ly/yJ/+zd9z7potTS31XLUxw8zaGqvrN3CNLGD2DY3FZ584phPj1hZ1qeFYWl/H2saHkYVNZisLuPGPV3G540BN3zzTY13cum3JlUvnSW7sY3VxAlfXW5h/eoag4lq2DVuU+fty1fwSZi5pTG5s0hIXxbVLV/jUOoKBZQNzTXqczl/kzBkXKvrWWBktxvvSBT750JbMujnYmcA/+JrCveDIfJ7poGPC5Z19dmeTxoxoLCyvcM02nKWNbboe5/OZmTkfWVvTNLfExkgPQWaWfHbOnLCyQTbmJomztsXs8iU8Upt4+nSRstDbmJtf5ZpTLrNrazSnunPD3JxLN3SMLe0yOlCExc0rXD5/ifrOSWZnG7FxPM/lM2cprOzj6foMPl72WFz8Kd45DzRR1x9awCy8YVLI/GjtyRUwhkXcQnypEbplvpmQaB2rb7P88Dtj7j/3xeNc+a1fOSBg/tUvfofGY9NoO2DpCd6PXoxcuA5+7QJ8L+LFbqX2cviuDwyvvehfk1dLuOnjuDeoFqVb68Pc9QsgKaOAjrF52B7Dwz9CqeSbUl0JT04gNDoO0WYaLQ3GNTTueetUg/HbmW7F1/YKD/pNOyZvbtGSkUB0XjOwiv0dOx6MbTHZ3Uz8FWdy8/s0GIujCtIK2Z95cvuKI4U96zBTii7RFdWWMIWFbyyDIijrnVxJKjBVvpuEe9gRUNx/VIH8mb5j3Nlh1WQ2KXSworhlgs6CJKxuhFDbM668s0x/i7z+p7DyGEuXeIqyfNA3jALD2DgEUdtUgVNUieI3y92F9LRMnCNzlevKCG/0KUVE6GIZ2YWpqhgCwgOJTUzk8ZSBrb5CXIMCeFxYRFxBC7CicK90/A2V1M8UWw38aHf7mSUv2T2IzqFB9NF36DPAZJUOx/BiSouSSKhdgt1e7lq6k3EvneB7gmGLBFx3pqSqlID4e0pkkr3MSLqXS2B0mnJ9P9SShAfV5AWE07gBuy3pmIXrKQiP4v6oEcbLuOIbT0VhCHGVYkziLLa2bjRMHj/eUsCIJDSuExcYQEDaIxqKQ3F1sWZeCph3lHMNYHcXXMtM7zfC6ACc94ZvOcM3PaCwD3ZMCdB4H37oCxPHn1neDMgSnikJFA2pAma6KZ3vfWpJbGgQdhYBNFQVcym5UNnldak7naBQBz6Lz0Mxho3kczcxWtnN/c3fOR4f0zWlRFmqheBeCMo8EsnPHlEuY2N1ZDepyrjSzZ/M3Pd5FtkcOTdyaGmrwiswlJGOStIzvVHme270Y+YVTrvQgSudmCdkM2Oi92RZGRGuZZocS7iXf8eACQAAFThJREFU5nvHiSfFBLtHMLluZH2yk5jwUOwszCiqaybfNYSWCWFKmifZIoZgWz/q2hcQrZNMyywy4z2IfFChvKrngRth/pcJzle5NVEfTGqMA5cT8xkXhtfpMmIibbkYmcIToQDXW4nN8STqdib3C4QoAsG9vObjNCvvofJujjMtOVhamxOSWc/iZDfx9pEKlzY6G9FdTSYhz4nyUQHWAgUxF7kb5kRBt5oXy5KuEhAfiV1JmxK4tjJfXIM9sMqtUa6H68IIykog7lI6k6I3abkP55BQAi/G0zMtvEzgGZtEtEMAFfWim9NI5tVoqluO32IsBcwe3xbHCA+4y22bG/h5x54Sc6QWLTBAUhz8KNq0X/suBEbCR/GwuAzxSfB/wmDJ1C8bFg0f6160yuylmeaOi3ikp1AtymlgpjmNs5FqK7MxwYaY2FAuR6utzLFHAUREeXI1PA3hfbNDh2dUuCbHkO3BvN5bjY+NK/tHiT26G0FqmmJLwN3fm5xu1VL2wMmXrLz3WcDMk34lkfEtI8OF2djY3yAu21+1wOwXMMsdXEsrfjamoDTNneQHGrdcGY2M9jWRGVvCy1XYbk8+52MyyAu4Q61S+Y3gZBdLrN8dSjqE+ljF83YsBfmxuGaUK9SqifQgNtgTR32ect2dEUhKRAQW0cmKdXJ3IJ3IUHuuhyUpFgKWqwlKcCXHO52srGHlN4J7+b0nZxzZXp46zFFskIxhi9XVKfQ+t8itqCXR10MRMGsthbi5ZZOc5UPugHjbNHG3bQnW+aFTzOxGUu7cIj5Dj01mvfK5cv0NQnRhXEssVa5bc+2JupdJ4qUolKbIZC1mEZHEXgmjWWT27R6uhcaTGuJGfoOwFxvwsvajeuD4reJSwJgYtDLVSUFeHrHRXlQ+njLdPemHMS786r870IX0wc/9DQ3H2ViZaIf/bQsZpoJ6ZRFW99ao2YYZ07pEs/3wLVuIVVsO2k+NNVz8HDD3jiRen8bQRC8xt60IjozA+nogdT3D5EfexDcwlFvOQdQNTFKV4oKndwD2d3zJbRrSdhSNT7mnu8UNC1fi4+NJy25gqLEUWzcHQu+6EuCT+Wz8RrGtO6mZ3dqOzzsN3Rz6c9F0zYpW8Tb+Zn/MDz+1U7sI13s57xxIi6jPN3r4ibUVIXHx6CLcuBMZxJTGBz8b1oZx/egjPKOTSE5KpnF8kY77CQTGxxNgc4W88g56mjIwd/UixNeW+PI6hrrKsXB2ICzAjpCsIhZXpgm2ciYkNABrvwS6xifQO7njGxCEjXcoTSOr1GW44eHhx507vtxrHabjYRiud9xwd/JFV9PDxnAj1i72CvcC72Yz93ws6jtN2aN++db6EsXpsSQnxxFw256OoSkK072x8QnD39uGssEJRmqLsLVwxz/Yi7u5TYx31OFw1YXQ0Lvcia9gfqqPUFcLQsPCsfFNZGBiBL2vJYGhYdi4hdM1vUxdXhiWPgGE3b5D4aN+2mvSsPDwINzRkZT8NqZHHmHpbEd4oCP++jQWNTAs8c0CZm4EfXoBS28axDteR0pOrSYG9rxMsMMM4l0aaUIXE0Npi6roX37Hybxexvsn//2AgPn1Pzdn4FhHvBlAr4c/cYCHauv9AL5zQ/CJI3yciCZJdSDA6o3+5kriYmOIjk9mZFWMM2wjJiaGum51ZL9hboBEwbN602yB9SkyY2LI0Xqr+1l8d2nITCI6OpqKJtV8P/g4j5gYHVP7GmSz3f1M7r/x7Pfvy8kWE62jrD1VS/mt6X5anvQo3YfsrtHaN8SKMlj3KY9KsomNiSYpt/RkWH4Nq9RlphKniyU6Oo6GsWXm+uqIiY7mXrUYDyX+tnlUEENsZukzq2JreTwxSTksmgYpzw00KnnjyYRqOdmY6lauK3pMNr7NWXJiYsgqNglh4yql+lgSMx6zp1X66wX34phaN332VB62eVyeTXR0DI39Jmw2xsiIiyGvZq+RYKC6MJWYlBLTOCtorconRpfFlKnunu+qVbBqH1VvbIyqZVNtp8mOZlikMCmG9Pt1JhQ3qcqOISH7/rOxeV2PUoiJS2NWIz36bxQwu4tjJOozmN6bWPEagsz2l5OYU/uMrK/xdiy3DyNgjiVgR/LRJZIifbG3t1ecq28I48cqXvYivQHBsfDHtmCXDZVdMDQGHZ0QmwPftoV/ioHJU10y7YEhjxIBiYBEQCLwlgi8UcBg2KSpLJu4tHyq6huoaajnUf1zV9PwmKrqh8Qn6qnvm9bk4LP3W8C8JSOO1LsBKivhvB98zxG+YQffdoQf+UKoWAtGAzbKI8VDfkwiIBGQCEgEDovAmwWMeJNhk5HBXlq7umnv7jngxP2hqZeHcx02CO/e38TMLMLJP60iYICRUWjqg85ReLpnINZqeGW4JAISAYmAROC4EVAEzOLy85X3jjtA7+L7s/MLCCf/JAISAYmAREAiIBE4HQgoAmZsYoq19Q1W19ZPpVtaXkG40xq/Ex8vwb2tLVZ3tlnd3mJ14/Ry8cSn1SktI2S6nM6yX6br6U7XD6ZmZhkaHWd5dY2FpZVT55aWV9kbAyPOT2McT2ycVlZZ2NpicXudxbExFrsGWewfY1Fw0bDFwtrp5OSJTa9TWD7ItDh9Zb5M0/cnTRULzOyCuu6G2IPutDlhKBufmlGcOD9t8TtsfPYMhsqaSFpIZ2U5JDA+bgDLSDjjB/90Fz72gwsREF+HYUdd6+6wcZT+3l9+y7SXaS858P5xQBEwM/PqANxdg5FXucPOBTG85veveudR3XtZwBzVd7XwnT3R8rrjsYXRCLs8xRCVBH9iA9eSMRY+wdDah6GuCWNgCnzjJpxJwDC7qaz5cGxh1SCnJRavLqckLhIXyYH3iwNvFDBC1bKzwWB/D82dXcpMJDHraL8T9wcmF5Qp1FoTMe+rgDEYjSxNdHIvO4e0CE/+8stf5je+/FWsPRPIzs6loX8G4efoM7wQL0YM6WnwtdsYC3pUgYK4v89N9sJP7OBcCoanpvtSTBxDeh0HR+Q3jz5fSswl5iePA58vYJT+hk0aHuaQkFnIo4bHL6wBo6wHI+7VlJOYpKe2d0pzIubQAkbE1fSnirC9K/V4ssithrkj15n/+htf5jd/8yt85SuqE+e/+Z9+nbOhD44nrYRImexSLCzGxC5VtKyvsru2o54btzHMr6jnE8KfLcaEDvVa8wLmOWf2+LLfemk0GNWVWE3ehIDc/1wkyN7vtHl8Hr+9M5FXlEbO3g2RvvsiJeKszbi863A9B0TEfx8kzx+85uwk4LU/zU9CeE96GCXer86vnytgRJ2+NT9KYnLms91SX5PnmO2vIDG7hnUjGI+lZf/qCIrw7h8D82oiw+72U/qri4nJKGdT2T0LnpRHYW93m+pOdQ2ZV//21d89br+KdWVngUwvZ6ysrLGytsHa2kY5v2mnY3DZcDzpJMa+6OPhhxHsbgvLyg5GsZnjOT27K2sY9Knw43AMC6qgMQZFwk/j2VWsMNrEWklrIUYMm1S1tdK7sK1YtxTj5doooT6OOAalMy+MmRPN+Nk7EKyvVZfnXu4j0s4ez/Bilg3ayjsvcFjEz7hJcVooDo6OOLh4UNyl7nZr2F5FH+qCnW8sE5tg3NlmvK2aOP19lnbF7zScbu9IYBmMW5QmxVHcpW4Z8XShn46Bxww+rsHT0RF7BwccHF140tVPRrwJU/cgHov9JxQRqGHMjPB0Y5XK7DgKqoaU9NWa5f0F7r6jND6ybxiNPF1f4WFmKkUNo+9lfnod1m8WMDPDJGcUsPimvZDG6kjJrmHtBAoYoVdWRtoJvGHOXzsHKrt8LveU4xAWSHGejptWjrSviDaUhguVlzKp2uIb48yv/MKBvZA++OCvqDNtqfE6YryT+8rYFwNG+7vg/EC1qmBgt68L40ce8D0P+KYbxowOdrcN6vP6EvihH4bxp9q2wohax7CAQ2wk2X3qpkAGwzJZafHEFj7kcecg24YFMgIdyC0qwe26HRnVbZQn+5CaWUDAbQcC02uPxyr2EndelfYKn1YH8fK+SXxJNdXl6VibnedB9xwND8NxSSgkJ9oeu+T7bC4Mone+zsXvuDCk7NF5cvLNq+L+1vcUa+4agd/+AR9+5srMBmwP5xGV4MTI1AT195P45keXiS6qYWa4gY9cPMmpqKayMI0rN+wpGVW3z3jr7x4iHb+Id4rysr86E9t/+Bgnt0eK4Hp/LW3vntsC797yDGy++yF+vpWaLSO+CG697TveLGBmR0jOyGfhDZs3zY/WKps5nkQBI0ATZY5x8hEXwmIQbaDHUUlkZqm7JQeEB5DyRG1tvi3Ax+VfqXCMY1z6rV8+IGB+/he/Q/2xCZhtjNc9wLvGJGDU8S2GKB386jn4fiQGxTJjGvfSVgbf9cEwtHoCBMwiHvp47g2qFdDicA2Xrt/E5aYNdyNKWRpv43pUrlLgTzWEExzhinVMnmKZ2erR4xUVqrkGwB5/FT4t9RGTEsuQqSwYa0zmdkQymYGedArNttaDw5VYpkUMV/sIP+PLgOL33Rfye+HUxFERMPPk26SjD4vAM7eWnZkqEpI8UKZLGMe57htDr9jUcLUT86R8pdEkYGvMSMDL/5HmKykR1o70TAI8KxU+SwHzLjmuQEx7nI5Y/3LNc+Mo86AUMKZWiyhztobLORcSjah+KrziyNT3K8yJiokktW5KOT/KxPnnfEu7AgaMPkFwPcckYHYwpKbD150wRpdg/NAFLiRjWFG7kAxFOfB/QzDM754YAVM4pO6WOVSp4/sOEcwvL5Ll6UxyQiQX9MVK19FcaxKBQXacjc1BMGtnIBtvXQTLGrNg7nFQ4dNyP1FJUXSpqy4w31uNY0wqqXcCUDbbXh/E/5yOcdEYWOgk+JO777GAmSPtajLDy1Nk+XmTnp5GVoGvIlZZ6+OqRxitYgH0pQ7M4rOZMm2WO1SWT2xIjTJmRsuiQBSGzfoU/KWAOYIxXqqAeRIdRbQUMC/gLQXMfgEz9IAP/cOU1tBgThLuofdZWxzHycGD8im12blXoGv9qEkBI7AWPS0V9+Av3DGMqt1ChsJSjBltqkAZ7MQYfB/DhrDAbGG08IDr+eyK7ictj6UQZYxhAae4aHJ6VzAYDMwPlGHpHcPG9jZ6LyuS8vK44+/P2PIahUluJOZl4xXsy5PpZerz/fFJylHEjRbHjKgWmF5CdcG0LxrYXR4m0Psqhe295Mc4ktK6zGJzMlZ+KQj5tjPXjt+P3el7by0wsySdj6Z3CbbG+7j4yde57umK0rm42sMFp0CahRBcbOPTqFQmnhpYn+nA3fsyDwfVbU+0XMYIujfFJ+LtXKbUrloWW1rG8XBhUwVMY1goYd7HNPniiLonD4fHc2uXFDD7BMz2RCNOaVksiFp2Z4mIgOuc/en/I6+4T2kRnaSBaqqAGeH8r/37A11I/+Lnv0WtYuc/hlkvYoDi9gLGC07waYayWN0L06fFc5Mz5GTAnzlhbF7QtvXFJMyMxh3iw1348dmLXLp2k+apJZrjvDhz4QKOfhXMbxoYfhDO+U/OccPrHvPbsNCUivlHn3DpVjJDK7tiFO8LLYy3zdDvyr/gk3FnkTCPq5z57BLmFpdJedSppMvS2GOuXfmEizYOdM+qa0ptLw6S6pjA2JYYOabNOL0rrITYNrJIiUc+gyKRgYYEO2wcIxBDCY0bo3jGptO7CsbtCaytL3Ph8iXMb1qT39x/IsoaYbHuLiwmSdekdr9rtIJ7Z2l8pPEVfILu7Gyy9Y2yC2kf9ocUMIccxJtTq7k+fFF4vHkWkqmAVfquTZW6+KFhh7UN1bZ7ksSLyLSKgGEBh2/+5wMC5t/+zhm6VpRy9XgqSyFQBtswftsaLiRhGFx8JlrEGjG7m0sYYvTwRzYYE1rUZxqt2F8sIAVnDGyui/1HNthSE4G1tXWl0FERh/X1DXZMz8S9zY0NtsR4CIHLvsypuXOxgvPuLutiP6QNtWIWLW8l3FsbrJsG+qvhVgvdk5ZvvkjMBTJ78VdAepa+6pXyTIidnW2FI2tPVVLs/eaLDMu7eJcIrYjju3i3fOdB0S/xPojJGwXM9twIiclZSmtxLxO+6rg4XE1S1qMTOo36OTCiPN7LPOJ8fyG0d/+kHEX4N1aH8b5zgzNnzyrukuVtWqbWFYFzfPEwDdzt78R43h3+3AHMYzC6p2B0iILvOsI33DBmmdZ/ORHiReXQHmee8WaPQ3txMF2LmQUq/irHTkpFsD9++/kjwv9yHITf/X7et/MX4m/avmMPg/3P9iqml/Hb86vZoxKn52WnZsOp5UbB24RN4n2gPPlcAaOYQnfXqC5OQ597n6bWNprbWnnS+tw1t7XR2PiIZH0S5e2jmqvwhdg6tAXmbch0Qvy+SmyKe8ffyjN1Fe2sYXjUhNEjHuPFEIxW8RjTGzBMrz23ypwQrGUBLiszyQHJAcmBo+PA5wsYU1eE4ekyHa1PqGlsou7JkwOuprGR1v4JpcJ53rI8ukh8HmFEZT02NaM4cf55fuWzY0gzkSavc1K4SL5KDkgOSA5IDryGA4qAmZ5bUFZl3dk18ConLDGH+ds1vPr3r3rnUd0TqwJPzswpTpwf1Xfld96SCwYjO3vuNTyUmL4lphJHmd8lByQHTjEHPpiamWVodJyV1TWWlldOpVtYXEK40xo/Ga/TyVuZrjJdJQckByQHXs+BDyanZ3hQVUttYzM1j5+cSifidprjd1rTTcbrdOZHma4yXSUHJAe+CA58sLa+QXffIL0DQ9JJDCQHJAckByQHJAckB04EBz44zNgW6UciIBGQCEgEJAISAYmAlhCQAkZLqSHDIhGQCEgEJAISAYnAoRCQAuZQMElPEgGJgERAIiARkAhoCQEpYLSUGjIsEgGJgERAIiARkAgcCgEpYA4Fk/QkEZAISAQkAhIBiYCWEJACRkupIcMiEZAISAQkAhIBicChEJAC5lAwSU8SAYmAREAiIBGQCGgJASlgtJQaMiwSAYmAREAiIBGQCBwKASlgDgWT9CQRkAhIBCQCEgGJgJYQkAJGS6khwyIRkAhIBCQCEgGJwKEQkALmUDBJTxIBiYBEQCIgEZAIaAkBKWC0lBoyLBIBiYBEQCIgEZAIHAoBKWAOBZP0JBGQCEgEJAISAYmAlhCQAkZLqSHDIhGQCEgEJAISAYnAoRCQAuZQMElPEgGJgERAIiARkAhoCQEpYLSUGjIsEgGJgERAIiARkAgcCoH/D1KF5TrWC216AAAAAElFTkSuQmCC;" vertex="1" parent="1">
          <mxGeometry x="250" y="890" width="560" height="230" as="geometry" />
        </mxCell>
        <mxCell id="Y9sVNeH2r-ziv9Ro1sDB-132" value="&lt;b&gt;同意&lt;/b&gt;" style="rounded=0;whiteSpace=wrap;html=1;fillColor=#0050ef;strokeColor=#001DBC;fontColor=#ffffff;" vertex="1" parent="1">
          <mxGeometry x="590" y="860" width="100" height="30" as="geometry" />
        </mxCell>
        <mxCell id="Y9sVNeH2r-ziv9Ro1sDB-133" value="&lt;b&gt;拒絕&lt;/b&gt;" style="rounded=0;whiteSpace=wrap;html=1;fillColor=#0050ef;strokeColor=#001DBC;fontColor=#ffffff;" vertex="1" parent="1">
          <mxGeometry x="710" y="860" width="100" height="30" as="geometry" />
        </mxCell>
        <mxCell id="Y9sVNeH2r-ziv9Ro1sDB-135" value="" style="curved=1;endArrow=classic;html=1;rounded=0;edgeStyle=orthogonalEdgeStyle;exitX=0.58;exitY=1.15;exitDx=0;exitDy=0;exitPerimeter=0;entryX=0.5;entryY=0;entryDx=0;entryDy=0;" edge="1" parent="1" source="Y9sVNeH2r-ziv9Ro1sDB-125" target="Y9sVNeH2r-ziv9Ro1sDB-127">
          <mxGeometry width="50" height="50" relative="1" as="geometry">
            <mxPoint x="390" y="710" as="sourcePoint" />
            <mxPoint x="440" y="660" as="targetPoint" />
            <Array as="points">
              <mxPoint x="218" y="830" />
              <mxPoint x="530" y="830" />
            </Array>
          </mxGeometry>
        </mxCell>
        <mxCell id="Y9sVNeH2r-ziv9Ro1sDB-138" value="針對資料做變更或新增一筆資料&lt;br&gt;填完成後送出" style="edgeLabel;html=1;align=center;verticalAlign=middle;resizable=0;points=[];" vertex="1" connectable="0" parent="1">
          <mxGeometry x="480" y="730" as="geometry">
            <mxPoint x="6" y="6" as="offset" />
          </mxGeometry>
        </mxCell>
        <mxCell id="Y9sVNeH2r-ziv9Ro1sDB-139" value="勾選同意/拒絕該資料變更內容" style="edgeLabel;html=1;align=center;verticalAlign=middle;resizable=0;points=[];" vertex="1" connectable="0" parent="1">
          <mxGeometry x="414" y="830" as="geometry">
            <mxPoint x="18" y="-2" as="offset" />
          </mxGeometry>
        </mxCell>
      </root>
    </mxGraphModel>
  </diagram>
</mxfile>
